<?xml version='1.0' encoding='iso-8859-1'?>
<svg version="1.1" xmlns="http://www.w3.org/2000/svg" viewBox="0 0 470.003 470.003" xmlns:xlink="http://www.w3.org/1999/xlink" enable-background="new 0 0 470.003 470.003">
  <g>
    <path d="m367.503,455.003h-3.255c-3.484-17.096-18.635-30-36.745-30h-65v-15.743c24.704-0.848 49.674-6.037 73.82-16.038 1.838-0.761 3.298-2.221 4.059-4.059 0.762-1.838 0.762-3.903 0-5.741l-3.827-9.238c-1.585-3.827-5.973-5.645-9.799-4.059-3.827,1.585-5.645,5.973-4.059,9.799l.902,2.18c-20.083,7.449-40.68,11.405-61.097,12.16v-2.37c0-4.142-3.357-7.5-7.5-7.5-4.143,0-7.5,3.358-7.5,7.5v2.342c-74.658-2.952-144.548-48.323-174.967-121.759-40.713-98.291 4.114-211.04 100.012-255.046l.903,2.18c1.585,3.827 5.97,5.645 9.799,4.059 3.827-1.585 5.645-5.973 4.059-9.799l-3.827-9.239c-1.585-3.828-5.972-5.645-9.799-4.059-108.252,44.84-159.843,169.391-115.003,277.645 32.808,79.207 108.276,128.079 188.824,131.039v15.746h-65c-18.11,0-33.261,12.904-36.745,30h-3.255c-4.143,0-7.5,3.358-7.5,7.5s3.357,7.5 7.5,7.5h225c4.143,0 7.5-3.358 7.5-7.5s-3.357-7.5-7.5-7.5zm-185-15h145c9.777,0 18.114,6.271 21.21,15h-187.42c3.097-8.73 11.433-15 21.21-15z"/>
    <path d="m410.314,271.759c20.572-42.737 23.595-93.709 4.059-140.874-26.806-64.715-89.387-106.53-159.434-106.53-22.656,0-44.844,4.433-65.948,13.174-42.569,17.633-75.724,50.788-93.356,93.356-17.633,42.569-17.632,89.457 0.001,132.026 26.805,64.715 89.387,106.53 159.434,106.53 22.656,0 44.844-4.432 65.948-13.174 40.013-16.574 70.484-46.566 88.376-82.613 0.359-0.533 0.661-1.116 0.88-1.753 0.015-0.047 0.025-0.095 0.04-0.142zm-11.216-11.466c-12.527-3.749-25.356-6.037-38.246-6.874-0.692-9.08-1.946-18.494-3.764-28.148-0.766-4.071-4.692-6.747-8.758-5.983-4.07,0.767-6.749,4.688-5.982,8.758 1.626,8.639 2.75,17.014 3.409,25.058-18.672,0.428-37.27,3.888-55.06,10.368l-25.895-62.516 62.278-25.796c3.14,8.105 5.948,16.309 8.367,24.475 1.178,3.971 5.348,6.24 9.322,5.061 3.971-1.176 6.236-5.35 5.061-9.321-2.567-8.664-5.551-17.365-8.889-25.955l62.275-25.795c14.13,39.24 11.637,80.838-4.118,116.668zm-210.435-27.798l62.282-25.798 25.895,62.515c-17.173,8.002-32.78,18.717-46.293,31.629-15.978-18.822-30.365-42.229-41.884-68.346zm132.681-71.194l-62.282,25.798-25.895-62.515c17.173-8.002 32.78-18.717 46.293-31.629 15.979,18.822 30.366,42.229 41.884,68.346zm-157.403-49.339c1.96-27.578 10.46-47.42 24.176-56.946l25.447,61.435c-16.177,5.818-33.076,8.904-50.037,9.252-0.037-4.687 0.096-9.275 0.414-13.741zm63.481-1.251l-25.447-61.435c16.439-2.964 36.476,5.057 57.363,23.172 3.382,2.933 6.721,6.083 10.009,9.423-12.241,11.747-26.373,21.515-41.925,28.84zm-8.114,19.607l25.897,62.521-62.282,25.798c-10.322-26.609-16.699-53.331-18.712-77.938 18.686-0.425 37.295-3.897 55.097-10.381zm102.568,208.426l-25.433-61.4c16.167-5.814 33.055-8.9 50.005-9.251 0.268,33.467-8.475,59.328-24.572,70.651zm-39.29-55.659l25.448,61.435c-16.436,2.963-36.476-5.057-57.363-23.172-3.382-2.933-6.721-6.083-10.008-9.423 12.239-11.748 26.371-21.515 41.923-28.84zm114.877-153.314l-62.26,25.789c-12.347-28.063-27.931-53.256-45.317-73.478 8.56-9.748 16.039-20.488 22.262-32.054 37.046,14.379 67.817,42.534 85.315,79.743zm-99.791-84.542c-5.157,9.212-11.195,17.83-18.007,25.748-3.448-3.487-6.951-6.782-10.5-9.861-10.646-9.233-21.276-16.185-31.62-20.785 5.757-0.643 11.558-0.977 17.395-0.977 14.712,0.001 29.055,2.044 42.732,5.875zm-141.015,28.57c-4.072,10.576-6.678,23.024-7.679,37.1-0.333,4.687-0.48,9.493-0.452,14.397-10.401-0.781-20.75-2.602-30.897-5.462 9.978-17.87 23.212-33.437 39.028-46.035zm-47.164,62.826c0.436-1.054 0.888-2.098 1.345-3.139 12.548,3.761 25.401,6.056 38.313,6.894 2.006,26.592 8.801,55.424 19.913,83.997l-62.277,25.796c-13.333-36.965-12.434-76.999 2.706-113.548zm3.052,127.4l62.26-25.789c12.347,28.063 27.931,53.256 45.317,73.478-8.56,9.748-16.039,20.488-22.262,32.055-37.047-14.38-67.818-42.536-85.315-79.744zm99.791,84.542c5.157-9.212 11.195-17.83 18.006-25.748 3.448,3.487 6.951,6.782 10.5,9.861 10.652,9.239 21.288,16.183 31.639,20.782-5.763,0.644-11.57,0.979-17.413,0.979-14.712,0-29.055-2.043-42.732-5.874zm141.011-28.633c1.521-3.956 2.844-8.176 3.953-12.655 2.881-11.633 4.268-24.698 4.179-38.78 10.375,0.779 20.698,2.592 30.82,5.44-9.783,17.478-22.919,33.169-38.952,45.995z"/>
  </g>
</svg>
