<?xml version="1.0" encoding="UTF-8" standalone="no"?>
<svg
   xmlns:dc="http://purl.org/dc/elements/1.1/"
   xmlns:cc="http://creativecommons.org/ns#"
   xmlns:rdf="http://www.w3.org/1999/02/22-rdf-syntax-ns#"
   xmlns:svg="http://www.w3.org/2000/svg"
   xmlns="http://www.w3.org/2000/svg"
   id="svg8"
   version="1.1"
   viewBox="0 0 122.09777 122.09776"
   height="122.09776mm"
   width="122.09776mm">
  <defs
     id="defs2" />
  <metadata
     id="metadata5">
    <rdf:RDF>
      <cc:Work
         rdf:about="">
        <dc:format>image/svg+xml</dc:format>
        <dc:type
           rdf:resource="http://purl.org/dc/dcmitype/StillImage" />
        <dc:title></dc:title>
      </cc:Work>
    </rdf:RDF>
  </metadata>
  <g
     transform="translate(-37.436008,-13.002981)"
     id="layer1">
    <rect
       ry="0"
       y="23.002975"
       x="47.625172"
       height="13.6"
       width="101.90895"
       id="rect815"
       style="fill:#000000;fill-opacity:1;stroke:none;stroke-width:1.55487299;stroke-linejoin:round;stroke-miterlimit:4;stroke-dasharray:none;stroke-dashoffset:0;stroke-opacity:1" />
    <rect
       ry="0"
       y="50.202972"
       x="47.625172"
       height="13.6"
       width="101.90895"
       id="rect815-3"
       style="fill:#000000;fill-opacity:1;stroke:none;stroke-width:1.55487299;stroke-linejoin:round;stroke-miterlimit:4;stroke-dasharray:none;stroke-dashoffset:0;stroke-opacity:1" />
    <rect
       ry="0"
       y="104.60312"
       x="47.625008"
       height="13.6"
       width="40.593502"
       id="rect815-3-6"
       style="fill:#000000;fill-opacity:1;stroke:none;stroke-width:0.98133439;stroke-linejoin:round;stroke-miterlimit:4;stroke-dasharray:none;stroke-dashoffset:0;stroke-opacity:1" />
    <rect
       ry="0"
       y="77.402977"
       x="47.625172"
       height="13.6"
       width="81.508949"
       id="rect815-3-7"
       style="fill:#000000;fill-opacity:1;stroke:none;stroke-width:1.3905654;stroke-linejoin:round;stroke-miterlimit:4;stroke-dasharray:none;stroke-dashoffset:0;stroke-opacity:1" />
    <path
       id="path862"
       transform="matrix(0.26458333,0,0,0.26458333,37.436008,13.002975)"
       d="m 346.57617,243.4043 a 77.102358,77.102358 0 0 0 -72.60742,51.40039 h 72.60742 a 25.700788,25.700788 0 0 1 25.70117,25.70117 25.700788,25.700788 0 0 1 -25.70117,25.70117 v -0.002 h -56.44922 v 51.40234 h 56.44922 a 77.102358,77.102358 0 0 0 77.10156,-77.10156 77.102358,77.102358 0 0 0 -77.10156,-77.10156 z"
       style="fill:#000000;fill-opacity:1;stroke:none;stroke-width:5.61386633;stroke-linejoin:round;stroke-miterlimit:4;stroke-dasharray:none;stroke-dashoffset:0;stroke-opacity:1" />
    <path
       id="path901"
       d="m 120.2764,125.46457 -12.14545,-7.08633 -12.187208,-7.0143 12.209708,-6.97505 12.12289,-7.047226 v 14.061386 z"
       style="fill:#050505;fill-opacity:1;stroke:none;stroke-width:0.57027954;stroke-linejoin:round;stroke-miterlimit:4;stroke-dasharray:none;stroke-dashoffset:0;stroke-opacity:1" />
  </g>
</svg>
