<?xml version="1.0" encoding="iso-8859-1"?>
<!-- Generator: Adobe Illustrator 18.1.1, SVG Export Plug-In . SVG Version: 6.00 Build 0)  -->
<svg version="1.1" id="Capa_1" xmlns="http://www.w3.org/2000/svg" xmlns:xlink="http://www.w3.org/1999/xlink" x="0px" y="0px"
	 viewBox="0 0 480.545 480.545" style="enable-background:new 0 0 480.545 480.545;" xml:space="preserve">
<g>
	<g>
		<g>
			<path style="fill:#010002;" d="M243.236,163.644c45.105,0,81.773-36.692,81.773-81.773C325.009,36.741,288.341,0,243.236,0
				c-45.081,0-81.773,36.741-81.773,81.871C161.462,126.96,198.155,163.644,243.236,163.644z M243.236,11.209
				c38.903,0,70.564,31.693,70.564,70.662c0,38.895-31.661,70.548-70.564,70.548c-38.92,0-70.572-31.653-70.572-70.548
				C172.672,42.903,204.316,11.209,243.236,11.209z"/>
		</g>
		<g>
			<path style="fill:#010002;" d="M93.857,406.664l-4.812,0.024c-6.812,0-12.168-1.967-15.932-5.828
				c-6.901-7.08-6.812-18.46-6.804-18.81l0.252-126.456c0.179-1.756,3.674-29.442,30.848-48.373L93.857,406.664z M105.066,406.234
				l3.682-205.206c7.812-2.691,28.735-8.925,58.851-11.112l44.171,165.758c8.519,19.549,15.144,44.341,11.437,50.023
				c-0.187,0.26-0.35,0.528-1.406,0.528H105.066V406.234z M414.229,454.005c0,14.64-11.908,26.54-26.515,26.54
				c-14.64,0-26.548-11.9-26.548-26.824l-0.057-5.592V248.677h-12.811l0.098,227.803l-200.768-0.146l0.033-58.908h74.133h23.508
				c19.183,0,34.798-15.623,34.798-34.815s-15.615-34.79-34.798-34.79h-24.093l-42.082-158.19h136.828
				c3.829-0.024,91.788-0.26,98.283,76.709v187.664H414.229z M225.239,359.031h20.061c13.014,0,23.589,10.583,23.589,23.581
				c0,13.038-10.583,23.613-23.589,23.613l-10.616,0.024C237.481,393.195,230.198,371.517,225.239,359.031z"/>
		</g>
	</g>
</g>
<g>
</g>
<g>
</g>
<g>
</g>
<g>
</g>
<g>
</g>
<g>
</g>
<g>
</g>
<g>
</g>
<g>
</g>
<g>
</g>
<g>
</g>
<g>
</g>
<g>
</g>
<g>
</g>
<g>
</g>
</svg>
