<?xml version="1.0" encoding="iso-8859-1"?>
<!-- Generator: Adobe Illustrator 16.0.0, SVG Export Plug-In . SVG Version: 6.00 Build 0)  -->
<!DOCTYPE svg PUBLIC "-//W3C//DTD SVG 1.1//EN" "http://www.w3.org/Graphics/SVG/1.1/DTD/svg11.dtd">
<svg version="1.1" id="Capa_1" xmlns="http://www.w3.org/2000/svg" xmlns:xlink="http://www.w3.org/1999/xlink" x="0px" y="0px"
	 width="450px" height="450px" viewBox="0 0 450 450" style="enable-background:new 0 0 450 450;" xml:space="preserve">
<g>
	<g>
		<path d="M87.945,75.913c-1.877-7.41-9.408-11.893-16.818-10.018c-7.413,1.879-11.897,9.409-10.019,16.821l90.439,356.838
			c1.589,6.271,7.224,10.446,13.409,10.446c1.127,0,2.271-0.139,3.413-0.428c7.409-1.877,11.895-9.409,10.017-16.819L87.945,75.913z
			"/>
		<path d="M388.98,176.419c-14.739-54.423-29.492-108.842-44.234-163.265c-1.598-5.891-4.399-12.21-14.929-12.842
			C246.929-5.691,192.503,76.854,109.614,70.85c-6.541-0.806-10.745,2.6-9.148,8.491c14.743,54.422,29.372,108.877,44.233,163.266
			c2.385,8.729,8.388,12.035,14.931,12.842c82.887,6.004,137.315-76.541,220.205-70.537
			C386.375,185.716,390.577,182.311,388.98,176.419z M323.934,20.857c4.066,15.015,8.138,30.029,12.204,45.044
			c-17.436,0.574-32.825,4.092-49.132,10.203c-4.065-15.015-8.137-30.03-12.202-45.044C291.109,24.951,306.498,21.43,323.934,20.857
			z M153.13,189.197c-4.627-17.059-9.246-34.122-13.868-51.182c18.328-0.531,34.591-4.503,51.602-11.227
			c-4.07-15.015-8.138-30.03-12.204-45.045c16.629-7.433,32.314-16.332,48.022-25.523c4.066,15.014,8.138,30.029,12.205,45.044
			c-15.709,9.19-31.395,18.092-48.023,25.524c4.623,17.06,9.244,34.122,13.866,51.182
			C187.718,184.693,171.457,188.665,153.13,189.197z M217.114,223.674c-4.129-15.234-8.256-30.47-12.384-45.706
			c16.513-7.377,32.087-16.201,47.683-25.327c4.128,15.236,8.256,30.471,12.383,45.707
			C249.202,207.475,233.626,216.297,217.114,223.674z M252.75,152.445c-4.619-17.061-9.242-34.122-13.863-51.183
			c15.706-9.17,31.403-17.945,48.119-25.157c4.624,17.06,9.246,34.121,13.867,51.181C284.16,134.5,268.458,143.274,252.75,152.445z
			 M313.545,172.876c-4.129-15.234-8.256-30.47-12.385-45.706c16.211-6.045,31.521-9.521,48.843-10.086
			c4.129,15.236,8.257,30.471,12.386,45.705C345.066,163.355,329.754,166.83,313.545,172.876z"/>
	</g>
</g>
<g>
</g>
<g>
</g>
<g>
</g>
<g>
</g>
<g>
</g>
<g>
</g>
<g>
</g>
<g>
</g>
<g>
</g>
<g>
</g>
<g>
</g>
<g>
</g>
<g>
</g>
<g>
</g>
<g>
</g>
</svg>
