<?xml version="1.0" encoding="iso-8859-1"?>
<!-- Generator: Adobe Illustrator 16.0.0, SVG Export Plug-In . SVG Version: 6.00 Build 0)  -->
<!DOCTYPE svg PUBLIC "-//W3C//DTD SVG 1.1//EN" "http://www.w3.org/Graphics/SVG/1.1/DTD/svg11.dtd">
<svg version="1.1" id="Capa_1" xmlns="http://www.w3.org/2000/svg" xmlns:xlink="http://www.w3.org/1999/xlink" x="0px" y="0px"
	 width="461.596px" height="461.596px" viewBox="0 0 461.596 461.596" style="enable-background:new 0 0 461.596 461.596;"
	 xml:space="preserve">
<g>
	<g>
		<circle cx="63.532" cy="102.668" r="52.837"/>
		<circle cx="293.492" cy="71.021" r="52.838"/>
		<polygon points="398.573,268.479 461.596,250.437 449.725,208.97 417.638,218.157 421.135,208.925 410.551,193.853 
			350.041,107.689 294.219,138.573 326.494,215.241 314.168,247.778 136.166,298.739 132.746,296.458 90.447,268.259 
			90.382,166.542 27.458,160.644 4.41,287.386 0,311.64 23.432,327.261 27.37,329.886 1.507,337.29 13.379,378.755 37.512,371.849 
			12.823,415.378 47.385,443.413 171.907,333.372 220.35,319.503 157.571,432.265 295.11,432.265 230.683,316.544 295.104,298.101 
			291.952,306.421 408.529,374.659 438.08,341.386 393.34,282.294 		"/>
	</g>
</g>
<g>
</g>
<g>
</g>
<g>
</g>
<g>
</g>
<g>
</g>
<g>
</g>
<g>
</g>
<g>
</g>
<g>
</g>
<g>
</g>
<g>
</g>
<g>
</g>
<g>
</g>
<g>
</g>
<g>
</g>
</svg>
