<?xml version="1.0" encoding="iso-8859-1"?>
<!-- Generator: Adobe Illustrator 16.0.0, SVG Export Plug-In . SVG Version: 6.00 Build 0)  -->
<!DOCTYPE svg PUBLIC "-//W3C//DTD SVG 1.1//EN" "http://www.w3.org/Graphics/SVG/1.1/DTD/svg11.dtd">
<svg version="1.1" id="Capa_1" xmlns="http://www.w3.org/2000/svg" xmlns:xlink="http://www.w3.org/1999/xlink" x="0px" y="0px"
	 width="45.718px" height="45.718px" viewBox="0 0 45.718 45.718" style="enable-background:new 0 0 45.718 45.718;"
	 xml:space="preserve">
<g>
	<path d="M44.802,16.161L39.39,10.75l4.46-4.46c1.221-1.22,1.221-3.199,0-4.42c-1.221-1.22-3.197-1.22-4.419,0l-4.46,4.459
		l-5.41-5.412c-1.222-1.221-3.199-1.22-4.421,0c-1.221,1.221-1.221,3.2,0,4.42l5.412,5.412l-5.008,5.008
		c-2.685-1.819-5.846-2.801-9.161-2.801c-4.376,0-8.489,1.704-11.583,4.797C1.705,20.846,0,24.96,0,29.336s1.705,8.491,4.8,11.584
		c3.094,3.095,7.207,4.797,11.583,4.797s8.489-1.703,11.584-4.797c5.629-5.631,6.288-14.372,1.991-20.741l5.013-5.013l5.412,5.413
		c0.609,0.61,1.409,0.916,2.209,0.916c0.801,0,1.6-0.305,2.21-0.915C46.023,19.36,46.023,17.381,44.802,16.161z M23.547,36.502
		c-1.914,1.913-4.457,2.967-7.164,2.967c-2.706,0-5.25-1.054-7.164-2.967c-1.913-1.914-2.969-4.457-2.969-7.164
		c0-2.706,1.056-5.25,2.969-7.164c1.914-1.913,4.458-2.967,7.164-2.967c2.707,0,5.25,1.053,7.163,2.966
		C27.496,26.124,27.496,32.551,23.547,36.502z"/>
</g>
<g>
</g>
<g>
</g>
<g>
</g>
<g>
</g>
<g>
</g>
<g>
</g>
<g>
</g>
<g>
</g>
<g>
</g>
<g>
</g>
<g>
</g>
<g>
</g>
<g>
</g>
<g>
</g>
<g>
</g>
</svg>
