<?xml version="1.0" encoding="iso-8859-1"?>
<!-- Generator: Adobe Illustrator 17.1.0, SVG Export Plug-In . SVG Version: 6.00 Build 0)  -->
<!DOCTYPE svg PUBLIC "-//W3C//DTD SVG 1.1//EN" "http://www.w3.org/Graphics/SVG/1.1/DTD/svg11.dtd">
<svg version="1.1" id="Capa_1" xmlns="http://www.w3.org/2000/svg" xmlns:xlink="http://www.w3.org/1999/xlink" x="0px" y="0px"
	 viewBox="0 0 99.203 99.203" style="enable-background:new 0 0 99.203 99.203;" xml:space="preserve">
<g>
	<path d="M49.437,19.672c5.424,0,9.836-4.413,9.836-9.836S54.861,0,49.437,0c-5.423,0-9.835,4.413-9.835,9.836
		S44.013,19.672,49.437,19.672z"/>
	<path d="M71.508,52.416L62.73,25.217c-0.47-1.456-2.037-2.596-3.566-2.596h-2.127c-0.031,0-0.059,0.009-0.09,0.01
		c-0.032-0.001-0.062-0.01-0.094-0.01H42.023c-0.058,0-0.112,0.014-0.169,0.017c-0.055-0.003-0.106-0.017-0.161-0.017h-1.654
		c-1.53,0-3.096,1.14-3.566,2.596l-8.777,27.198c-0.26,0.807-0.152,1.623,0.297,2.24c0.449,0.617,1.193,0.971,2.041,0.971h1.38
		c1.526,0,3.098-1.135,3.579-2.584l4.031-12.159v6.562c-0.678,0.403-1.265,0.954-1.616,1.572l-6.617,11.684
		c-0.414,0.73-0.478,1.553-0.175,2.258c0.302,0.705,0.942,1.226,1.757,1.43l7.232,1.809v29.005c0,2.206,1.794,4,4,4h0.976
		c2.206,0,4-1.794,4-4V68.348c0.34,0.033,0.699,0.052,1.069,0.052c0.472,0,0.925-0.03,1.344-0.083v26.886c0,2.206,1.794,4,4,4h0.976
		c2.206,0,4-1.794,4-4V66.08l6.542-1.68c0.812-0.208,1.45-0.733,1.75-1.44s0.236-1.53-0.177-2.259l-6.617-11.684
		c-0.35-0.619-0.938-1.169-1.616-1.572V40.56l4.336,12.505c0.499,1.437,2.08,2.562,3.6,2.562h1.382c0.848,0,1.591-0.354,2.041-0.971
		C71.66,54.039,71.768,53.222,71.508,52.416z"/>
</g>
<g>
</g>
<g>
</g>
<g>
</g>
<g>
</g>
<g>
</g>
<g>
</g>
<g>
</g>
<g>
</g>
<g>
</g>
<g>
</g>
<g>
</g>
<g>
</g>
<g>
</g>
<g>
</g>
<g>
</g>
</svg>
