<?xml version="1.0" encoding="iso-8859-1"?>
<!-- Generator: Adobe Illustrator 16.0.0, SVG Export Plug-In . SVG Version: 6.00 Build 0)  -->
<!DOCTYPE svg PUBLIC "-//W3C//DTD SVG 1.1//EN" "http://www.w3.org/Graphics/SVG/1.1/DTD/svg11.dtd">
<svg version="1.1" id="Capa_1" xmlns="http://www.w3.org/2000/svg" xmlns:xlink="http://www.w3.org/1999/xlink" x="0px" y="0px"
	 width="31.425px" height="31.424px" viewBox="0 0 31.425 31.424" style="enable-background:new 0 0 31.425 31.424;"
	 xml:space="preserve">
<g>
	<g>
		<path d="M31.078,8.604c-0.006-0.005-0.014-0.009-0.018-0.014c-0.27-0.266-0.644-0.371-0.99-0.314l-4.002,0.052
			c-0.633,0.009-1.139,0.528-1.131,1.161c0.008,0.631,0.487,1.102,1.16,1.13l1.34-0.017l-1.961,1.961
			c-1.166-0.86-2.57-1.325-4.047-1.325c-1.826,0-3.543,0.711-4.834,2.002c-2.664,2.665-2.664,7.002,0,9.667
			c1.291,1.291,3.008,2.002,4.834,2.002c1.825,0,3.543-0.711,4.834-2.002c2.36-2.362,2.633-6.035,0.811-8.696l2.059-2.053v1.499
			c0,0.633,0.514,1.145,1.146,1.145c0.635,0,1.146-0.513,1.146-1.145V9.417C31.425,9.113,31.296,8.819,31.078,8.604z M24.643,21.287
			c-1.716,1.716-4.709,1.716-6.427,0c-1.772-1.771-1.772-4.655,0-6.427c0.859-0.858,2-1.331,3.214-1.331
			c1.215,0,2.354,0.473,3.215,1.331C26.416,16.631,26.416,19.516,24.643,21.287z"/>
		<path d="M6.839,5.538C3.069,5.538,0,8.604,0,12.374c0,3.34,2.415,6.128,5.576,6.721v2.066H3.784c-0.633,0-1.145,0.514-1.145,1.146
			s0.512,1.146,1.145,1.146h1.792v1.287c0,0.633,0.514,1.146,1.147,1.146c0.633,0,1.148-0.515,1.148-1.146v-1.287h1.882
			c0.633,0,1.146-0.516,1.146-1.146c0-0.635-0.513-1.146-1.146-1.146H7.871v-2.029c3.291-0.5,5.803-3.34,5.803-6.758
			C13.674,8.604,10.609,5.538,6.839,5.538z M6.839,16.917c-2.507,0-4.545-2.039-4.545-4.545s2.038-4.545,4.545-4.545
			c2.505,0,4.544,2.039,4.544,4.545S9.345,16.917,6.839,16.917z"/>
	</g>
</g>
<g>
</g>
<g>
</g>
<g>
</g>
<g>
</g>
<g>
</g>
<g>
</g>
<g>
</g>
<g>
</g>
<g>
</g>
<g>
</g>
<g>
</g>
<g>
</g>
<g>
</g>
<g>
</g>
<g>
</g>
</svg>
