<?xml version="1.0" encoding="iso-8859-1"?>
<!-- Generator: Adobe Illustrator 16.0.0, SVG Export Plug-In . SVG Version: 6.00 Build 0)  -->
<!DOCTYPE svg PUBLIC "-//W3C//DTD SVG 1.1//EN" "http://www.w3.org/Graphics/SVG/1.1/DTD/svg11.dtd">
<svg version="1.1" id="Capa_1" xmlns="http://www.w3.org/2000/svg" xmlns:xlink="http://www.w3.org/1999/xlink" x="0px" y="0px"
	 width="45.57px" height="45.57px" viewBox="0 0 45.57 45.57" style="enable-background:new 0 0 45.57 45.57;" xml:space="preserve"
	>
<g>
	<path d="M42.486,0h-16.76c-1.699,0-3.075,1.383-3.075,3.081c0,1.698,1.375,3.082,3.075,3.082h9.338l-9.096,9.089
		c-2.738-1.879-5.977-2.894-9.37-2.894c-4.437,0-8.606,1.726-11.742,4.863c-6.476,6.474-6.476,17.009,0,23.485
		c3.136,3.137,7.306,4.864,11.742,4.864c4.436,0,8.606-1.729,11.743-4.864c3.139-3.136,4.865-7.308,4.865-11.744
		c0-3.394-1.012-6.63-2.891-9.368l9.09-9.093v9.333c0,1.699,1.384,3.076,3.082,3.076c1.699,0,3.082-1.377,3.082-3.076V3.075
		C45.57,1.376,44.186,0,42.486,0z M23.992,36.355c-1.974,1.976-4.599,3.062-7.394,3.062c-2.793,0-5.418-1.087-7.394-3.062
		c-4.076-4.076-4.076-10.711,0-14.789c1.976-1.975,4.602-3.063,7.394-3.063c2.793,0,5.419,1.088,7.394,3.063
		c1.977,1.975,3.063,4.601,3.063,7.394C27.056,31.755,25.968,34.381,23.992,36.355z"/>
</g>
<g>
</g>
<g>
</g>
<g>
</g>
<g>
</g>
<g>
</g>
<g>
</g>
<g>
</g>
<g>
</g>
<g>
</g>
<g>
</g>
<g>
</g>
<g>
</g>
<g>
</g>
<g>
</g>
<g>
</g>
</svg>
