<?xml version="1.0" encoding="iso-8859-1"?>
<!-- Generator: Adobe Illustrator 18.0.0, SVG Export Plug-In . SVG Version: 6.00 Build 0)  -->
<!DOCTYPE svg PUBLIC "-//W3C//DTD SVG 1.1//EN" "http://www.w3.org/Graphics/SVG/1.1/DTD/svg11.dtd">
<svg version="1.1" id="Capa_1" xmlns="http://www.w3.org/2000/svg" xmlns:xlink="http://www.w3.org/1999/xlink" x="0px" y="0px"
	 viewBox="0 0 430 430" style="enable-background:new 0 0 430 430;" xml:space="preserve">
<g>
	<path d="M157.486,109.782c30.312,0,54.895-24.577,54.895-54.895C212.381,24.574,187.798,0,157.486,0
		c-30.311,0-54.893,24.574-54.893,54.888C102.594,85.205,127.176,109.782,157.486,109.782z"/>
	<path d="M173.912,120.076c-5.107-1.932-10.642-2.999-16.425-2.999c-5.79,0-11.33,1.068-16.44,3.003
		c-14.381,4.362-68.571,27.621-76.404,131.721c-0.724,9.592,6.469,17.953,16.061,18.673c0.444,0.035,0.886,0.052,1.325,0.052
		c9.026,0,16.66-6.965,17.349-16.114c1.786-23.729,6.163-41.954,11.662-55.932v53.622c0,3.657,0.433,7.214,1.232,10.626v146.95
		c0,11.225,9.101,20.321,20.321,20.321c11.225,0,20.321-9.097,20.321-20.321V298.327c1.505,0.147,3.027,0.223,4.571,0.223
		c1.542,0,3.068-0.076,4.574-0.223v111.352c0,11.225,9.097,20.321,20.318,20.321c11.224,0,20.321-9.097,20.321-20.321V262.716
		c0.797-3.411,1.233-6.96,1.233-10.612v-53.629c5.499,13.979,9.874,32.205,11.659,55.938c0.688,9.15,8.326,16.115,17.352,16.115
		c0.438,0,0.88-0.018,1.324-0.052c9.593-0.72,16.782-9.08,16.062-18.673C242.501,147.659,188.267,124.424,173.912,120.076z"/>
	<path d="M308.242,256.523c18.652,0,33.78-15.125,33.78-33.78c0-18.655-15.128-33.778-33.78-33.778
		c-18.657,0-33.781,15.123-33.781,33.778C274.461,241.398,289.585,256.523,308.242,256.523z"/>
	<path d="M365.376,343.916c-4.816-64.024-38.133-78.357-47-81.051c-3.153-1.196-6.564-1.857-10.133-1.857
		c-3.566,0-6.975,0.66-10.123,1.854c-8.854,2.683-42.194,17-47.014,81.054c-0.447,5.902,3.979,11.048,9.881,11.492
		c0.274,0.02,0.545,0.032,0.816,0.032c5.556,0,10.255-4.284,10.679-9.914c1.098-14.607,3.791-25.823,7.178-34.426v23.881
		c0,2.244,0.265,4.426,0.756,6.522v72.159c0,6.906,5.597,12.503,12.503,12.503c6.907,0,12.507-5.597,12.507-12.503v-50.238
		c0.926,0.094,1.866,0.141,2.815,0.141c0.949,0,1.888-0.047,2.813-0.14v50.237c0,6.906,5.6,12.503,12.506,12.503
		c6.903,0,12.503-5.597,12.503-12.503v-72.148c0.492-2.098,0.758-4.283,0.758-6.533v-23.773c3.384,8.592,6.082,19.776,7.176,34.318
		c0.423,5.629,5.123,9.914,10.679,9.914c0.267,0,0.54-0.012,0.813-0.032C361.393,354.964,365.82,349.818,365.376,343.916z"/>
</g>
<g>
</g>
<g>
</g>
<g>
</g>
<g>
</g>
<g>
</g>
<g>
</g>
<g>
</g>
<g>
</g>
<g>
</g>
<g>
</g>
<g>
</g>
<g>
</g>
<g>
</g>
<g>
</g>
<g>
</g>
</svg>
