<?xml version="1.0" encoding="iso-8859-1"?>
<!-- Generator: Adobe Illustrator 16.0.0, SVG Export Plug-In . SVG Version: 6.00 Build 0)  -->
<!DOCTYPE svg PUBLIC "-//W3C//DTD SVG 1.1//EN" "http://www.w3.org/Graphics/SVG/1.1/DTD/svg11.dtd">
<svg version="1.1" id="Capa_1" xmlns="http://www.w3.org/2000/svg" xmlns:xlink="http://www.w3.org/1999/xlink" x="0px" y="0px"
	 width="484.009px" height="484.009px" viewBox="0 0 484.009 484.009" style="enable-background:new 0 0 484.009 484.009;"
	 xml:space="preserve">
<g>
	<path d="M457.021,309.299l20.238-159.582L332.072,94.625l-45.974,21.953c-1.419,7.021-3.57,13.854-6.384,20.428l34.803-16.618
		l-14.369,154.664l0.804,8.286L194.91,299.333l-8.703,17.165l116.276-17.531l13.405,137.177l15.604-1.537l-13.488-137.969
		l1.359-0.213l121.573,15.403l0.295-2.376l18.371,154.282l-126.609-29.223l-164.753,31.387l-1.372-0.26l14.81-140.725l-0.098-0.856
		l-0.606-5.272l-20.3-40.075l2.864,25.352l-3.621,0.544L42.475,286.412l0.697-5.781L25.177,138.755l82.171,34.693l-6.859-13.521
		c-2.219-2.876-4.229-5.891-6.135-8.958L6.188,113.735L27.373,280.69l-0.399,3.321l-0.295-0.047l-2.409,15.486l0.866,0.118
		L7.037,451.605l161.225,30.229l164.438-31.315l145.121,33.49L457.021,309.299z M319.188,280.596l-2.707,0.396l-0.592-5.894
		l15.108-162.587l1.785-0.854l127.365,48.326l-17.295,136.264L319.188,280.596z M151.41,462.742L24.329,438.91l16.314-136.918
		l119.252,18.478l5.417-0.815l0.606,5.319L151.41,462.742z M183.018,322.799l-2.033-4.008l-0.165-1.478l5.394-0.815L183.018,322.799
		z M112.68,146.528l69.248,136.657l68.494-135.194c13.453-15.687,21.634-36.017,21.634-58.268C272.055,40.249,231.802,0,182.326,0
		c-49.473,0-89.71,40.249-89.71,89.723c0,21.542,7.637,41.316,20.33,56.805H112.68z M182.332,34.578
		c30.402,0,55.147,24.742,55.147,55.145c0,30.401-24.745,55.147-55.147,55.147c-30.402,0-55.145-24.746-55.145-55.147
		C127.188,59.32,151.924,34.578,182.332,34.578z"/>
</g>
<g>
</g>
<g>
</g>
<g>
</g>
<g>
</g>
<g>
</g>
<g>
</g>
<g>
</g>
<g>
</g>
<g>
</g>
<g>
</g>
<g>
</g>
<g>
</g>
<g>
</g>
<g>
</g>
<g>
</g>
</svg>
