<?xml version="1.0" encoding="iso-8859-1"?>
<!-- Generator: Adobe Illustrator 18.1.1, SVG Export Plug-In . SVG Version: 6.00 Build 0)  -->
<svg version="1.1" id="Capa_1" xmlns="http://www.w3.org/2000/svg" xmlns:xlink="http://www.w3.org/1999/xlink" x="0px" y="0px"
	 viewBox="0 0 25.771 25.771" style="enable-background:new 0 0 25.771 25.771;" xml:space="preserve">
<g>
	<g>
		<g>
			<path style="fill:#030104;" d="M24.171,13.728v9.8h-18.8v-9.8H24.171 M25.771,12.128h-22v13h22V12.128L25.771,12.128z"/>
		</g>
	</g>
	<g>
		<path style="fill:#030104;" d="M19.771,12.128l2.252,2.252c-0.017,0.083-0.05,0.16-0.05,0.248c0,0.717,0.581,1.297,1.298,1.297
			c0.088,0,0.164-0.033,0.247-0.049l2.253,2.252v-6H19.771z"/>
		<circle style="fill:#030104;" cx="21.271" cy="18.628" r="1.298"/>
		<ellipse style="fill:#030104;" cx="14.771" cy="18.628" rx="3.926" ry="3.414"/>
		<circle style="fill:#030104;" cx="8.271" cy="18.628" r="1.297"/>
		<path style="fill:#030104;" d="M3.771,18.128l2.252-2.252c0.083,0.017,0.16,0.05,0.248,0.05c0.717,0,1.297-0.581,1.297-1.298
			c0-0.088-0.033-0.164-0.05-0.247l2.253-2.253h-6V18.128z"/>
		<path style="fill:#030104;" d="M7.569,22.628c0-0.717-0.581-1.297-1.298-1.297c-0.088,0-0.164,0.033-0.247,0.049l-2.253-2.252v6h6
			l-2.252-2.252C7.536,22.793,7.569,22.715,7.569,22.628z"/>
		<path style="fill:#030104;" d="M23.271,21.33c-0.717,0-1.297,0.581-1.297,1.298c0,0.088,0.033,0.164,0.05,0.247l-2.253,2.253h6v-6
			l-2.252,2.252C23.436,21.363,23.359,21.33,23.271,21.33z"/>
	</g>
	<g>
		<circle style="fill:#030104;" cx="18.473" cy="8.505" r="1.297"/>
		<path style="fill:#030104;" d="M2.271,12.128c0-0.828,0.672-1.5,1.5-1.5h0.82L4.628,10.5L16.205,4.16l0.885,0.258
			c0.025,0.08,0.034,0.164,0.077,0.241c0.344,0.63,1.132,0.859,1.762,0.515c0.076-0.042,0.128-0.107,0.191-0.162l0.887,0.26
			l2.017,3.682L21.765,9.84c-0.079,0.024-0.163,0.033-0.24,0.075c-0.293,0.16-0.488,0.422-0.591,0.713h3.831l-2.586-4.723h0.001
			l-2.883-5.262l-5.264,2.882h0.001L5.263,8.328L0,11.21l2.271,4.147V12.128z"/>
		<path style="fill:#030104;" d="M11.131,8.634c-0.871,0.476-1.498,1.198-1.85,1.994h7.233c-0.058-0.305-0.145-0.604-0.299-0.885
			C15.308,8.089,13.033,7.593,11.131,8.634z"/>
	</g>
</g>
<g>
</g>
<g>
</g>
<g>
</g>
<g>
</g>
<g>
</g>
<g>
</g>
<g>
</g>
<g>
</g>
<g>
</g>
<g>
</g>
<g>
</g>
<g>
</g>
<g>
</g>
<g>
</g>
<g>
</g>
</svg>
