<?xml version="1.0" encoding="iso-8859-1"?>
<!-- Generator: Adobe Illustrator 16.0.0, SVG Export Plug-In . SVG Version: 6.00 Build 0)  -->
<!DOCTYPE svg PUBLIC "-//W3C//DTD SVG 1.1//EN" "http://www.w3.org/Graphics/SVG/1.1/DTD/svg11.dtd">
<svg version="1.1" id="Capa_1" xmlns="http://www.w3.org/2000/svg" xmlns:xlink="http://www.w3.org/1999/xlink" x="0px" y="0px"
	 width="198.658px" height="198.658px" viewBox="0 0 198.658 198.658" style="enable-background:new 0 0 198.658 198.658;"
	 xml:space="preserve">
<g>
	<g>
		<ellipse cx="99.33" cy="16.606" rx="16.828" ry="16.606"/>
		<path d="M130.829,43.168c0-4.46-3.27-7.37-7.314-7.37H74.943c-4.148,0-7.114,3.223-7.114,7.37v14.63v44.86
			c0,3.312,2.353,6,5.666,6c2.628,0,4.205-1.085,5.334-3.02v84.02c0,4.971,4.029,9,9,9s9-4.029,9-9v-67.86h5v67.86
			c0,4.971,4.029,9,9,9s9-4.029,9-9v-84.02c1,1.801,2.874,3.02,5.102,3.02c3.313,0,5.898-2.688,5.898-6V43.168z"/>
	</g>
</g>
<g>
</g>
<g>
</g>
<g>
</g>
<g>
</g>
<g>
</g>
<g>
</g>
<g>
</g>
<g>
</g>
<g>
</g>
<g>
</g>
<g>
</g>
<g>
</g>
<g>
</g>
<g>
</g>
<g>
</g>
</svg>
