<?xml version="1.0" encoding="iso-8859-1"?>
<!-- Generator: Adobe Illustrator 16.0.0, SVG Export Plug-In . SVG Version: 6.00 Build 0)  -->
<!DOCTYPE svg PUBLIC "-//W3C//DTD SVG 1.1//EN" "http://www.w3.org/Graphics/SVG/1.1/DTD/svg11.dtd">
<svg version="1.1" id="Capa_1" xmlns="http://www.w3.org/2000/svg" xmlns:xlink="http://www.w3.org/1999/xlink" x="0px" y="0px"
	 width="31.361px" height="31.361px" viewBox="0 0 31.361 31.361" style="enable-background:new 0 0 31.361 31.361;"
	 xml:space="preserve">
<g>
	<ellipse cx="15.766" cy="2.635" rx="2.586" ry="2.635"/>
	<path d="M21.457,12.522c0.229-0.981-1.104-5.02-1.104-5.02c-0.148-0.381-0.857-1.548-2.853-1.56l-3.897,0.012
		c-1.933-0.107-2.646,0.999-2.825,1.584c0,0-1.295,4.068-1.08,4.984c0.143,0.602,1.218,1.341,2.35,1.88l-2.375,7.245l3.476-0.011
		l0.009,8.789c0.067,0.677,0.538,0.925,1.116,0.925c0.575,0,1.047-0.228,1.113-0.904h0.358c0.067,0.678,0.535,0.916,1.113,0.916
		s1.046-0.254,1.115-0.93l0.01-8.796l3.705,0.005l-2.262-7.396C20.435,13.725,21.329,13.066,21.457,12.522z"/>
</g>
<g>
</g>
<g>
</g>
<g>
</g>
<g>
</g>
<g>
</g>
<g>
</g>
<g>
</g>
<g>
</g>
<g>
</g>
<g>
</g>
<g>
</g>
<g>
</g>
<g>
</g>
<g>
</g>
<g>
</g>
</svg>
