<?xml version="1.0" encoding="iso-8859-1"?>
<!-- Generator: Adobe Illustrator 16.0.0, SVG Export Plug-In . SVG Version: 6.00 Build 0)  -->
<!DOCTYPE svg PUBLIC "-//W3C//DTD SVG 1.1//EN" "http://www.w3.org/Graphics/SVG/1.1/DTD/svg11.dtd">
<svg version="1.1" id="Capa_1" xmlns="http://www.w3.org/2000/svg" xmlns:xlink="http://www.w3.org/1999/xlink" x="0px" y="0px"
	 width="925.1px" height="925.1px" viewBox="0 0 925.1 925.1" style="enable-background:new 0 0 925.1 925.1;" xml:space="preserve"
	>
<g>
	<g>
		<path d="M453.5,26.514l-345.6,187.3l15.2-3.8l412.9-104.7l-35-64.6C491.8,23.614,470.5,17.313,453.5,26.514z"/>
		<path d="M780.9,222.313l-26.2-103.4c-4-15.9-18.3-26.4-33.9-26.4c-2.8,0-5.7,0.3-8.6,1.1l-160.5,40.7l-347.4,88.1H599.4h181.5
			V222.313z"/>
		<path d="M546.7,665.513v-176c0-36.699,29.8-66.5,66.5-66.5h218.6h16.5h16.5H878v-135.7c0-19.3-15.7-35-35-35h-21.5H805h-16.5
			H615.7H133.8h-16.5h-16.5h-64H35c-12.9,0-24.1,7-30.2,17.3c-3,5.2-4.8,11.2-4.8,17.7v5.6v574.9c0,19.301,15.7,35,35,35h807.9
			c19.3,0,35-15.699,35-35V732.114H613.2C576.5,732.114,546.7,702.214,546.7,665.513z"/>
		<path d="M908,459.513c-4.5-2.699-9.6-4.3-15-4.8c-1-0.1-1.9-0.1-2.9-0.1H878h-5.2h-16.5h-39.6H613.2c-19.3,0-35,15.7-35,35v176
			c0,19.299,15.7,35,35,35H878h12.1c1,0,1.9-0.102,2.9-0.102c5.4-0.398,10.5-2.1,15-4.799c10.2-6.1,17.1-17.301,17.1-30.1v-176
			C925.1,476.813,918.2,465.614,908,459.513z M700.5,634.313c-31.3,0-56.8-25.4-56.8-56.801c0-31.299,25.399-56.799,56.8-56.799
			c31.3,0,56.8,25.4,56.8,56.799C757.3,608.913,731.9,634.313,700.5,634.313z"/>
	</g>
</g>
<g>
</g>
<g>
</g>
<g>
</g>
<g>
</g>
<g>
</g>
<g>
</g>
<g>
</g>
<g>
</g>
<g>
</g>
<g>
</g>
<g>
</g>
<g>
</g>
<g>
</g>
<g>
</g>
<g>
</g>
</svg>
