<?xml version="1.0" encoding="iso-8859-1"?>
<!-- Generator: Adobe Illustrator 17.1.0, SVG Export Plug-In . SVG Version: 6.00 Build 0)  -->
<!DOCTYPE svg PUBLIC "-//W3C//DTD SVG 1.1//EN" "http://www.w3.org/Graphics/SVG/1.1/DTD/svg11.dtd">
<svg version="1.1" id="Capa_1" xmlns="http://www.w3.org/2000/svg" xmlns:xlink="http://www.w3.org/1999/xlink" x="0px" y="0px"
	 viewBox="0 0 218.356 218.356" style="enable-background:new 0 0 218.356 218.356;" xml:space="preserve">
<path d="M139.744,104.097L13.76,141.736c-0.998,0.298-2.028,0.449-3.064,0.449c-4.69,0-8.903-3.14-10.247-7.636
	c-1.688-5.651,1.536-11.623,7.188-13.311L133.62,83.598l-6.558-21.95l57.348-17.133l19.24,64.399l-57.348,17.134L139.744,104.097z
	 M152.639,143.522c0.628,2.103,2.597,3.571,4.787,3.571c0.481,0,0.964-0.071,1.435-0.211l45.718-13.659
	c1.28-0.383,2.335-1.241,2.97-2.416c0.634-1.175,0.773-2.526,0.391-3.806l-2.449-8.199l-55.3,16.521L152.639,143.522z
	 M178.544,28.611c-0.628-2.103-2.597-3.571-4.786-3.571c-0.482,0-0.965,0.071-1.436,0.211L126.605,38.91
	c-1.28,0.382-2.335,1.24-2.97,2.415c-0.634,1.175-0.773,2.527-0.391,3.806l1.98,6.628l55.3-16.521L178.544,28.611z M213.356,183.316
	h-5.163v-5.5c0-2.761-2.238-5-5-5h-73.987c-2.762,0-5,2.239-5,5v5.5h-5.163c-2.762,0-5,2.239-5,5s2.238,5,5,5h10.163h73.987h10.163
	c2.762,0,5-2.239,5-5S216.117,183.316,213.356,183.316z"/>
<g>
</g>
<g>
</g>
<g>
</g>
<g>
</g>
<g>
</g>
<g>
</g>
<g>
</g>
<g>
</g>
<g>
</g>
<g>
</g>
<g>
</g>
<g>
</g>
<g>
</g>
<g>
</g>
<g>
</g>
</svg>
