<?xml version="1.0" encoding="iso-8859-1"?>
<!-- Generator: Adobe Illustrator 16.0.0, SVG Export Plug-In . SVG Version: 6.00 Build 0)  -->
<!DOCTYPE svg PUBLIC "-//W3C//DTD SVG 1.1//EN" "http://www.w3.org/Graphics/SVG/1.1/DTD/svg11.dtd">
<svg version="1.1" id="Capa_1" xmlns="http://www.w3.org/2000/svg" xmlns:xlink="http://www.w3.org/1999/xlink" x="0px" y="0px"
	 width="433.506px" height="433.506px" viewBox="0 0 433.506 433.506" style="enable-background:new 0 0 433.506 433.506;"
	 xml:space="preserve">
<g>
	<g>
		<path d="M76.888,302.386H25.938c0,0-25.938-0.039-25.938,39.483c1.234,25.526,21.148,29.605,24.7,29.605s103.744,0,103.744,0
			s25.986,0.033,27.133-31.15c0.043-1.19,0.139-0.033,0.153-1.229c0.052-4.604,0-28.4,0-28.4c0.062-3.386,2.648-7.229,6.134-7.229
			h81.233c1.195,0,2.229,0.966,2.338,2.151l19.188,43.399c7.158,17.748,21.076,30.772,44.328,22.405
			c22.012-7.923,23.15-25.364,19.264-37.614l-47.713-144.633c-7.172-17.131-25.26-27.124-47.898-27.124h-48.578h-63.299
			c-60.559,0-111.36,70.552-42.577,138.374C78.637,301.511,78.078,302.386,76.888,302.386z"/>
		<circle cx="358.346" cy="134.649" r="75.161"/>
	</g>
</g>
<g>
</g>
<g>
</g>
<g>
</g>
<g>
</g>
<g>
</g>
<g>
</g>
<g>
</g>
<g>
</g>
<g>
</g>
<g>
</g>
<g>
</g>
<g>
</g>
<g>
</g>
<g>
</g>
<g>
</g>
</svg>
