<?xml version="1.0" encoding="UTF-8" standalone="no"?>
<svg
   xmlns:dc="http://purl.org/dc/elements/1.1/"
   xmlns:cc="http://creativecommons.org/ns#"
   xmlns:rdf="http://www.w3.org/1999/02/22-rdf-syntax-ns#"
   xmlns:svg="http://www.w3.org/2000/svg"
   xmlns="http://www.w3.org/2000/svg"
   xmlns:sodipodi="http://sodipodi.sourceforge.net/DTD/sodipodi-0.dtd"
   xmlns:inkscape="http://www.inkscape.org/namespaces/inkscape"
   version="1.1"
   x="0px"
   y="0px"
   viewBox="0 0 90.514183 57.613998"
   enable-background="new 0 0 100 100"
   xml:space="preserve"
   id="svg4575"
   sodipodi:docname="api.svg"
   inkscape:version="0.92.1 r15371"
   width="90.514183"
   height="57.613998"><metadata
     id="metadata4581"><rdf:RDF><cc:Work
         rdf:about=""><dc:format>image/svg+xml</dc:format><dc:type
           rdf:resource="http://purl.org/dc/dcmitype/StillImage" /><dc:title></dc:title></cc:Work></rdf:RDF></metadata><defs
     id="defs4579" /><sodipodi:namedview
     pagecolor="#ffffff"
     bordercolor="#666666"
     borderopacity="1"
     objecttolerance="10"
     gridtolerance="10"
     guidetolerance="10"
     inkscape:pageopacity="0"
     inkscape:pageshadow="2"
     inkscape:window-width="1366"
     inkscape:window-height="708"
     id="namedview4577"
     showgrid="false"
     inkscape:zoom="1.888"
     inkscape:cx="44.751186"
     inkscape:cy="12.258"
     inkscape:window-x="0"
     inkscape:window-y="31"
     inkscape:window-maximized="1"
     inkscape:current-layer="svg4575"
     fit-margin-top="1"
     fit-margin-left="1"
     fit-margin-right="1"
     fit-margin-bottom="1" /><path
     d="m 77.785186,27.575 c 0.94,-5.371 -0.068,-10.837 -2.902,-15.559 -3.119,-5.197 -8.075,-8.868 -13.956,-10.336 -1.805,-0.451 -3.657,-0.68 -5.506,-0.68 -8.409,0 -16.053,4.631 -19.982,11.951 -1.879,-1.284 -4.1,-1.975 -6.421,-1.975 -3.09,0 -5.983,1.214 -8.147,3.419 -1.808,1.842 -2.936,4.263 -3.206,6.81 -9.0640002,0.543 -16.4410002,8.08 -16.6600002,17.267 -0.113,4.732 1.624,9.226 4.89,12.65 3.267,3.426 7.6710002,5.374 12.4050002,5.487 l 56.547,0.005 c 8.088,0 14.667,-6.579 14.667,-14.667 0,-7.096 -4.936,-13.006 -11.729,-14.372 z m -2.938,26.04 h -56.127 l -0.351,-0.005 c -3.931,-0.093 -7.59,-1.712 -10.3030002,-4.558 -2.713,-2.846 -4.156,-6.577 -4.062,-10.508 0.189,-7.924 6.7870002,-14.371 14.7090002,-14.371 l 0.357,0.004 c 0.408,0.019 0.809,-0.15 1.099,-0.441 0.29,-0.292 0.448,-0.69 0.436,-1.102 -0.066,-2.276 0.811,-4.513 2.406,-6.138 1.596,-1.625 3.729,-2.521 6.006,-2.521 2.218,0 4.311,0.855 5.894,2.409 0.354,0.347 0.853,0.499 1.34,0.401 0.485,-0.095 0.893,-0.424 1.088,-0.878 3.114,-7.234 10.211,-11.909 18.081,-11.909 1.604,0 3.212,0.199 4.779,0.59 5.103,1.275 9.403,4.46 12.11,8.97 2.707,4.51 3.495,9.804 2.221,14.907 -0.106,0.426 -0.021,0.877 0.234,1.235 0.255,0.357 0.653,0.585 1.091,0.623 6.075,0.528 10.657,5.525 10.657,11.623 0.002,6.435 -5.232,11.669 -11.665,11.669 z"
     id="path4573"
     style="fill:#626262;fill-opacity:1"
     inkscape:connector-curvature="0" /><path
     id="path2989"
     style="fill:#626262;fill-opacity:1;stroke-width:0.91147405"
     inkscape:connector-curvature="0"
     d="m 37.428222,24.917768 c -0.753972,0 -1.493906,0.0678 -2.212876,0.190361 l -0.350973,3.717902 c -0.743653,0.207297 -1.447511,0.497137 -2.10587,0.868507 L 29.885081,27.32106 c -1.213628,0.859119 -2.275951,1.91528 -3.134923,3.128999 l 2.379494,2.87324 c -0.370971,0.658084 -0.667291,1.363565 -0.87456,2.106417 l -3.711978,0.350971 c -0.122629,0.719263 -0.190361,1.458724 -0.190361,2.212968 0,0.755503 0.06731,1.492448 0.190361,2.212877 l 3.711978,0.350006 c 0.20726,0.74266 0.503535,1.448242 0.874459,2.10587 l -2.373478,2.873878 c 0.857424,1.210346 1.912728,2.271575 3.123074,3.128999 l 2.879165,-2.379494 c 0.658768,0.371698 1.361651,0.66708 2.10587,0.874459 l 0.350972,3.717903 c 0.719044,0.122565 1.458905,0.184427 2.212876,0.184427 0.753972,0 1.487891,-0.06185 2.206953,-0.184427 l 0.350972,-3.717903 c 0.744191,-0.207379 1.447056,-0.502761 2.10587,-0.874459 l 2.879163,2.379494 c 1.210256,-0.85746 2.265652,-1.918653 3.123075,-3.128999 l -2.37357,-2.87324 c 0.370925,-0.657565 0.667199,-1.363201 0.87446,-2.10587 l 3.711978,-0.350991 c 0.12304,-0.720438 0.190361,-1.457355 0.190361,-2.212876 0,-0.754218 -0.06774,-1.493633 -0.190361,-2.212968 L 46.595408,35.429424 C 46.388149,34.686755 46.091874,33.981183 45.72095,33.323555 l 2.379494,-2.873241 c -0.859521,-1.214995 -1.922299,-2.270482 -3.135471,-3.130001 l -2.87324,2.373569 c -0.658348,-0.37137 -1.362197,-0.661219 -2.105869,-0.868507 l -0.351829,-3.717902 c -0.719044,-0.122548 -1.452981,-0.190361 -2.206952,-0.190361 z m 0,8.096168 c 2.749461,0 4.973093,2.229648 4.973093,4.979109 0,2.749461 -2.223632,4.979018 -4.973093,4.979018 -2.749461,0 -4.979019,-2.229648 -4.979019,-4.979018 0,-2.749461 2.229649,-4.979109 4.979019,-4.979109 z" /><path
     id="path2985"
     d="m 51.323644,10.051352 c -0.725023,0.206905 -1.41789,0.475152 -2.0757,0.790312 l 0.682767,3.671508 c -0.658085,0.403419 -1.255099,0.875198 -1.786489,1.413059 L 44.72984,14.432233 c -0.931526,1.159213 -1.662529,2.466359 -2.155636,3.869117 l 3.076589,2.109972 c -0.176242,0.7341 -0.267509,1.493905 -0.263015,2.264921 l -3.473171,1.356092 c 0.07946,0.725296 0.21724,1.454986 0.424209,2.180245 0.207324,0.7265 0.474285,1.416704 0.790302,2.0757 l 3.665767,-0.681118 c 0.4031,0.657273 0.881632,1.254463 1.418801,1.785031 l -1.493998,3.4142 c 1.15666,0.92861 2.462712,1.65943 3.861824,2.151899 l 2.115714,-3.07823 c 0.735477,0.176653 1.492448,0.267809 2.264922,0.263006 l 1.357731,3.478914 c 0.725078,-0.07946 1.453528,-0.22302 2.178605,-0.429915 0.725023,-0.206905 1.413787,-0.467787 2.071598,-0.782974 l -0.682694,-3.67233 c 0.658714,-0.403636 1.25355,-0.880556 1.785031,-1.4188 l 3.421582,1.498098 c 0.928519,-1.15666 1.652138,-2.466812 2.144516,-3.865925 L 64.16767,24.838524 c 0.176243,-0.73411 0.267509,-1.493906 0.263015,-2.264922 l 3.473172,-1.356182 c -0.0793,-0.726445 -0.216019,-1.453801 -0.423835,-2.180246 -0.206905,-0.724622 -0.474878,-1.417343 -0.790248,-2.075335 l -3.665949,0.681053 C 62.620954,16.985628 62.142431,16.38843 61.605572,15.857861 l 1.499649,-3.415931 c -1.159395,-0.931344 -2.470095,-1.655419 -3.872854,-2.148527 l -2.111885,3.070847 c -0.73556,-0.176461 -1.491172,-0.261957 -2.26319,-0.257309 L 53.49956,9.628027 c -0.725069,0.07947 -1.449426,0.215673 -2.174504,0.422578 z m 2.221718,7.785356 c 2.643912,-0.754491 5.394012,0.77931 6.14853,3.423223 0.754491,2.643913 -0.771964,5.398114 -3.41584,6.152632 -2.643913,0.754491 -5.399754,-0.777679 -6.154273,-3.421582 -0.754499,-2.643913 0.777679,-5.399755 3.421583,-6.154273 z"
     style="fill:#626262;fill-opacity:1;stroke-width:0.91147405"
     inkscape:connector-curvature="0" /></svg>