<?xml version="1.0" encoding="UTF-8" standalone="no"?>
<!-- Created with Inkscape (http://www.inkscape.org/) -->

<svg
   xmlns:dc="http://purl.org/dc/elements/1.1/"
   xmlns:cc="http://creativecommons.org/ns#"
   xmlns:rdf="http://www.w3.org/1999/02/22-rdf-syntax-ns#"
   xmlns:svg="http://www.w3.org/2000/svg"
   xmlns="http://www.w3.org/2000/svg"
   xmlns:sodipodi="http://sodipodi.sourceforge.net/DTD/sodipodi-0.dtd"
   xmlns:inkscape="http://www.inkscape.org/namespaces/inkscape"
   width="44.606747mm"
   height="43.555031mm"
   viewBox="0 0 44.606747 43.555031"
   version="1.1"
   id="svg4784"
   inkscape:version="0.92.1 r15371"
   sodipodi:docname="github.svg">
  <defs
     id="defs4778" />
  <sodipodi:namedview
     id="base"
     pagecolor="#ffffff"
     bordercolor="#666666"
     borderopacity="1.0"
     inkscape:pageopacity="0.0"
     inkscape:pageshadow="2"
     inkscape:zoom="0.98994949"
     inkscape:cx="-47.178187"
     inkscape:cy="26.377736"
     inkscape:document-units="mm"
     inkscape:current-layer="layer1"
     showgrid="false"
     fit-margin-top="1"
     fit-margin-left="1"
     fit-margin-right="1"
     fit-margin-bottom="1"
     inkscape:window-width="1366"
     inkscape:window-height="708"
     inkscape:window-x="0"
     inkscape:window-y="31"
     inkscape:window-maximized="1" />
  <metadata
     id="metadata4781">
    <rdf:RDF>
      <cc:Work
         rdf:about="">
        <dc:format>image/svg+xml</dc:format>
        <dc:type
           rdf:resource="http://purl.org/dc/dcmitype/StillImage" />
        <dc:title></dc:title>
      </cc:Work>
    </rdf:RDF>
  </metadata>
  <g
     inkscape:label="Layer 1"
     inkscape:groupmode="layer"
     id="layer1"
     transform="translate(-68.410913,-44.657008)">
    <path
       inkscape:connector-curvature="0"
       id="path18"
       style="fill:#626262;fill-opacity:1;fill-rule:evenodd;stroke:none;stroke-width:0.03527778"
       d="m 90.714457,45.657008 c -11.764081,0 -21.303544,9.5377 -21.303544,21.303544 0,9.412464 6.104113,17.397941 14.568663,20.214873 1.064684,0.197202 1.455561,-0.46214 1.455561,-1.024822 0,-0.508 -0.01976,-2.186162 -0.02893,-3.966278 -5.926667,1.288695 -7.177264,-2.513542 -7.177264,-2.513542 -0.969081,-2.46239 -2.365375,-3.117146 -2.365375,-3.117146 -1.93287,-1.32221 0.145697,-1.295046 0.145697,-1.295046 2.139244,0.149929 3.265664,2.195687 3.265664,2.195687 1.900061,3.256492 4.983692,2.31493 6.199364,1.770592 0.191205,-1.376892 0.743303,-2.317043 1.35255,-2.848679 -4.731808,-0.538691 -9.705975,-2.365375 -9.705975,-10.5283 0,-2.325864 0.832203,-4.226278 2.194983,-5.718175 -0.221192,-0.536928 -0.950383,-2.703336 0.206375,-5.637741 0,0 1.788936,-0.572559 5.859992,2.183694 1.69933,-0.472017 3.52178,-0.708731 5.332236,-0.716845 1.810455,0.0081 3.634316,0.244828 5.336823,0.716845 4.066113,-2.756253 5.852583,-2.183694 5.852583,-2.183694 1.15958,2.934405 0.43003,5.100813 0.20884,5.637741 1.36596,1.491897 2.19252,3.392311 2.19252,5.718175 0,8.182327 -4.983693,9.983962 -9.727497,10.511367 0.764117,0.661104 1.444979,1.957562 1.444979,3.945112 0,2.850446 -0.02469,5.144558 -0.02469,5.846233 0,0.566915 0.383471,1.231197 1.463323,1.021999 8.459975,-2.820107 14.556325,-10.802761 14.556325,-20.21205 -1e-5,-11.765844 -9.53806,-21.303544 -21.303203,-21.303544" />
    <path
       inkscape:connector-curvature="0"
       id="path20"
       style="fill:#626262;fill-opacity:1;fill-rule:nonzero;stroke:none;stroke-width:0.03527778"
       d="m 77.479646,76.244252 c -0.04692,0.106185 -0.213431,0.137583 -0.365125,0.06491 -0.154517,-0.0695 -0.2413,-0.213784 -0.191206,-0.319969 0.04586,-0.108656 0.212725,-0.138993 0.366889,-0.06668 0.15487,0.06985 0.243064,0.215548 0.189442,0.321734 v 0" />
    <path
       inkscape:connector-curvature="0"
       id="path22"
       style="fill:#626262;fill-opacity:1;fill-rule:nonzero;stroke:none;stroke-width:0.03527778"
       d="m 78.34254,77.206628 c -0.1016,0.09419 -0.300214,0.05045 -0.434975,-0.09843 -0.139347,-0.148518 -0.165453,-0.347133 -0.06244,-0.442735 0.104775,-0.09384 0.297392,-0.04974 0.437092,0.09842 0.139347,0.150284 0.166511,0.347485 0.06033,0.442735 v 0" />
    <path
       inkscape:connector-curvature="0"
       id="path24"
       style="fill:#626262;fill-opacity:1;fill-rule:nonzero;stroke:none;stroke-width:0.03527778"
       d="m 79.182504,78.433591 c -0.130528,0.09066 -0.343958,0.0056 -0.475897,-0.183798 -0.130528,-0.189441 -0.130528,-0.416631 0.0028,-0.507648 0.132292,-0.09102 0.342547,-0.0088 0.47625,0.178858 0.130175,0.192617 0.130175,0.419807 -0.0032,0.512588 v 0" />
    <path
       inkscape:connector-curvature="0"
       id="path26"
       style="fill:#626262;fill-opacity:1;fill-rule:nonzero;stroke:none;stroke-width:0.03527778"
       d="m 80.333265,79.618925 c -0.116769,0.128762 -0.365477,0.09419 -0.547511,-0.08149 -0.186266,-0.171805 -0.238125,-0.415573 -0.121002,-0.544338 0.11818,-0.129117 0.3683,-0.09278 0.551744,0.08149 0.184856,0.17145 0.2413,0.416983 0.116769,0.544338 v 0" />
    <path
       inkscape:connector-curvature="0"
       id="path28"
       style="fill:#626262;fill-opacity:1;fill-rule:nonzero;stroke:none;stroke-width:0.03527778"
       d="m 81.920765,80.307193 c -0.05151,0.166865 -0.291041,0.24271 -0.532341,0.171802 -0.240947,-0.07303 -0.398639,-0.268462 -0.349956,-0.437092 0.0501,-0.16792 0.290689,-0.246943 0.533753,-0.171095 0.240594,0.07267 0.398639,0.2667 0.348544,0.436385 v 0" />
    <path
       inkscape:connector-curvature="0"
       id="path30"
       style="fill:#626262;fill-opacity:1;fill-rule:nonzero;stroke:none;stroke-width:0.03527778"
       d="m 83.664193,80.4349 c 0.006,0.175683 -0.198614,0.321378 -0.451908,0.324553 -0.254706,0.0056 -0.460728,-0.136525 -0.46355,-0.309385 0,-0.177448 0.200025,-0.321733 0.45473,-0.325966 0.253295,-0.0049 0.460728,0.136173 0.460728,0.310798 v 0" />
    <path
       inkscape:connector-curvature="0"
       id="path32"
       style="fill:#626262;fill-opacity:1;fill-rule:nonzero;stroke:none;stroke-width:0.03527778"
       d="m 85.286618,80.158675 c 0.03034,0.17145 -0.145697,0.347485 -0.397228,0.394403 -0.247297,0.04516 -0.47625,-0.06068 -0.507647,-0.230716 -0.03069,-0.175684 0.14852,-0.351719 0.395464,-0.397227 0.251883,-0.04374 0.477308,0.05927 0.509411,0.23354 v 0" />
  </g>
</svg>
