<?xml version="1.0" encoding="UTF-8" standalone="no"?>
<svg
   xmlns:dc="http://purl.org/dc/elements/1.1/"
   xmlns:cc="http://creativecommons.org/ns#"
   xmlns:rdf="http://www.w3.org/1999/02/22-rdf-syntax-ns#"
   xmlns:svg="http://www.w3.org/2000/svg"
   xmlns="http://www.w3.org/2000/svg"
   xmlns:sodipodi="http://sodipodi.sourceforge.net/DTD/sodipodi-0.dtd"
   xmlns:inkscape="http://www.inkscape.org/namespaces/inkscape"
   version="1.1"
   x="0px"
   y="0px"
   viewBox="0 0 92 86.616997"
   enable-background="new 0 0 100 100"
   xml:space="preserve"
   id="svg5882"
   sodipodi:docname="mail.svg"
   width="92"
   height="86.616997"
   inkscape:version="0.92.1 r15371"><metadata
     id="metadata5888"><rdf:RDF><cc:Work
         rdf:about=""><dc:format>image/svg+xml</dc:format><dc:type
           rdf:resource="http://purl.org/dc/dcmitype/StillImage" /><dc:title></dc:title></cc:Work></rdf:RDF></metadata><defs
     id="defs5886" /><sodipodi:namedview
     pagecolor="#ffffff"
     bordercolor="#666666"
     borderopacity="1"
     objecttolerance="10"
     gridtolerance="10"
     guidetolerance="10"
     inkscape:pageopacity="0"
     inkscape:pageshadow="2"
     inkscape:window-width="1366"
     inkscape:window-height="708"
     id="namedview5884"
     showgrid="false"
     showguides="false"
     fit-margin-top="1"
     fit-margin-left="1"
     fit-margin-right="1"
     fit-margin-bottom="1"
     inkscape:zoom="2.36"
     inkscape:cx="46"
     inkscape:cy="43.308"
     inkscape:window-x="0"
     inkscape:window-y="31"
     inkscape:window-maximized="1"
     inkscape:current-layer="svg5882" /><path
     d="m 28.28,54.712 18.118,15.046 -0.041,0.035 z M 46.378,66.196 30.016,52.609 46.343,66.227 Z M 91,30.687 v 54.93 H 1 V 30.682 l 9.622,-6.307 V 9.319 h 22.97 L 46.284,1 58.814,9.319 h 22.558 v 14.976 z m -9.627,5.943 5.998,-5.079 -5.998,-3.982 z M 38.566,9.319 H 53.884 L 46.274,4.267 Z M 13.349,38.708 30.016,52.609 46.343,66.227 46.379,66.196 78.647,38.716 V 25.759 22.485 12.046 H 62.922 57.991 34.406 29.432 13.349 v 10.542 3.261 z m -8.696,-7.159 5.969,4.957 V 27.637 Z M 88.273,34.36 46.434,69.787 46.399,69.758 28.28,54.712 3.727,34.323 V 82.891 H 88.274 V 34.36 Z M 45.797,51.741 c -7.066,0 -13.057,-5.173 -13.057,-13.447 0,-8.878 6.161,-16.549 15.731,-16.549 7.498,0 12.54,5.257 12.54,12.454 0,6.465 -3.621,10.259 -7.672,10.259 -1.725,0 -3.319,-1.164 -3.188,-3.794 h -0.173 c -1.508,2.543 -3.492,3.794 -6.077,3.794 -2.499,0 -4.654,-2.027 -4.654,-5.432 0,-5.343 4.224,-10.212 10.215,-10.212 1.851,0 3.49,0.388 4.609,0.905 l -1.463,7.8 c -0.648,3.275 -0.131,4.785 1.293,4.827 2.197,0.045 4.654,-2.887 4.654,-7.887 0,-6.248 -3.749,-10.731 -10.43,-10.731 -7.024,0 -12.928,5.561 -12.928,14.307 0,7.197 4.696,11.636 11.075,11.636 2.457,0 4.74,-0.517 6.507,-1.508 l 0.69,1.854 c -2.371,1.249 -4.783,1.724 -7.672,1.724 z m 5.301,-20.343 c -0.43,-0.128 -1.164,-0.302 -2.155,-0.302 -3.791,0 -6.851,3.576 -6.851,7.758 0,1.896 0.946,3.275 2.845,3.275 2.499,0 4.782,-3.188 5.257,-5.862 z"
     id="path5880"
     style="fill:#626262;fill-opacity:1"
     inkscape:connector-curvature="0" /></svg>