<?xml version="1.0" encoding="UTF-8" standalone="no"?>
<svg
   xmlns:dc="http://purl.org/dc/elements/1.1/"
   xmlns:cc="http://creativecommons.org/ns#"
   xmlns:rdf="http://www.w3.org/1999/02/22-rdf-syntax-ns#"
   xmlns:svg="http://www.w3.org/2000/svg"
   xmlns="http://www.w3.org/2000/svg"
   xmlns:sodipodi="http://sodipodi.sourceforge.net/DTD/sodipodi-0.dtd"
   xmlns:inkscape="http://www.inkscape.org/namespaces/inkscape"
   version="1.1"
   x="0px"
   y="0px"
   viewBox="0 0 99.375 87.800003"
   enable-background="new 0 0 100 100"
   xml:space="preserve"
   id="svg4"
   sodipodi:docname="ocr.svg"
   width="99.375"
   height="87.800003"
   inkscape:version="0.92.1 r15371"><metadata
     id="metadata10"><rdf:RDF><cc:Work
         rdf:about=""><dc:format>image/svg+xml</dc:format><dc:type
           rdf:resource="http://purl.org/dc/dcmitype/StillImage" /><dc:title></dc:title></cc:Work></rdf:RDF></metadata><defs
     id="defs8" /><sodipodi:namedview
     pagecolor="#ffffff"
     bordercolor="#666666"
     borderopacity="1"
     objecttolerance="10"
     gridtolerance="10"
     guidetolerance="10"
     inkscape:pageopacity="0"
     inkscape:pageshadow="2"
     inkscape:window-width="1366"
     inkscape:window-height="708"
     id="namedview6"
     showgrid="false"
     fit-margin-top="1"
     fit-margin-left="1"
     fit-margin-right="1"
     fit-margin-bottom="1"
     inkscape:zoom="2.36"
     inkscape:cx="49.7"
     inkscape:cy="43.9"
     inkscape:window-x="0"
     inkscape:window-y="31"
     inkscape:window-maximized="1"
     inkscape:current-layer="svg4" /><path
     d="m 11.6,73.9 c 0,-1.4 1.1,-2.5 2.5,-2.5 h 34.1 c 1.4,0 2.5,1.1 2.5,2.5 0,1.4 -1.1,2.5 -2.5,2.5 H 14.1 c -1.3,0 -2.5,-1.1 -2.5,-2.5 z m 0.1,12.9 h 47 c 5.9,0 10.6,-4.7 10.6,-10.6 v -5.7 c -1.6,0.7 -3.3,1.3 -5,1.7 v 4 c 0,3.1 -2.5,5.6 -5.6,5.6 h -47 C 8.6,81.8 6.1,79.3 6.1,76.2 V 24.7 H 15 c 5.8,0 10.6,-4.8 10.6,-10.6 V 6 h 33.1 c 3.1,0 5.6,2.5 5.6,5.6 v 5.7 c 1.7,0.4 3.4,1 5,1.7 V 11.6 C 69.3,5.7 64.6,1 58.7,1 H 24 c -0.6,0 -1.2,0.1 -1.8,0.3 -0.6,0.2 -1.1,0.6 -1.5,1 L 2.5,19.8 C 2,20.2 1.7,20.8 1.4,21.4 1.1,22 1,22.6 1,23.3 v 53 C 1.1,82 5.8,86.8 11.7,86.8 Z M 36.5,26.4 c 0.5,-0.5 1,-1.1 1.5,-1.6 1.3,-1.3 2.7,-2.4 4.1,-3.4 H 33 c -1.4,0 -2.5,1.1 -2.5,2.5 0,1.4 1.1,2.5 2.5,2.5 z m -22.2,40 h 25.5 c -0.7,-0.5 -1.3,-1.1 -1.9,-1.7 -1,-1 -2,-2.1 -2.8,-3.3 H 14.3 c -1.4,0 -2.5,1.1 -2.5,2.5 0,1.4 1.2,2.5 2.5,2.5 z M 11.8,53.9 c 0,1.4 1.1,2.5 2.5,2.5 h 17.9 c -0.7,-1.6 -1.3,-3.3 -1.7,-5 H 14.3 c -1.3,0 -2.5,1.1 -2.5,2.5 z m 2.5,-7.5 h 15.4 c 0,-0.6 -0.1,-1.1 -0.1,-1.7 0,-1.1 0.1,-2.2 0.2,-3.3 H 14.3 c -1.4,0 -2.5,1.1 -2.5,2.5 0,1.4 1.2,2.5 2.5,2.5 z M 11.8,33.9 c 0,1.4 1.1,2.5 2.5,2.5 h 16.6 c 0.5,-1.7 1.2,-3.4 2.1,-5 H 14.3 c -1.3,0 -2.5,1.1 -2.5,2.5 z M 57.9,21.6 c 5.9,0 11.9,2.3 16.4,6.8 8.3,8.3 9,21.3 2.1,30.4 l 2.5,2.5 0.9,-0.9 17.3,17.3 c 1.7,1.7 1.7,4.5 0,6.2 -0.9,0.9 -2,1.3 -3.1,1.3 -1.1,0 -2.2,-0.4 -3.1,-1.3 L 73.5,66.6 74.4,65.7 71.9,63.2 c -4.1,3.1 -9.1,4.7 -14,4.7 C 52,67.9 46,65.6 41.5,61.1 32.4,52 32.4,37.4 41.5,28.3 46,23.8 51.9,21.6 57.9,21.6 Z m 0,6 c -4.4,0 -8.8,1.7 -12.1,5 -6.7,6.7 -6.7,17.5 0,24.2 3.3,3.3 7.7,5 12.1,5 4.4,0 8.8,-1.7 12.1,-5 6.7,-6.7 6.7,-17.5 0,-24.2 -3.4,-3.3 -7.7,-5 -12.1,-5 z"
     id="path2"
     style="fill:#626262;fill-opacity:1"
     inkscape:connector-curvature="0" /></svg>