<?xml version="1.0" encoding="UTF-8" standalone="no"?>
<!-- Generator: Adobe Illustrator 16.0.0, SVG Export Plug-In . SVG Version: 6.00 Build 0)  -->

<svg
   xmlns:dc="http://purl.org/dc/elements/1.1/"
   xmlns:cc="http://creativecommons.org/ns#"
   xmlns:rdf="http://www.w3.org/1999/02/22-rdf-syntax-ns#"
   xmlns:svg="http://www.w3.org/2000/svg"
   xmlns="http://www.w3.org/2000/svg"
   xmlns:sodipodi="http://sodipodi.sourceforge.net/DTD/sodipodi-0.dtd"
   xmlns:inkscape="http://www.inkscape.org/namespaces/inkscape"
   version="1.1"
   id="Capa_1"
   x="0px"
   y="0px"
   width="490.79401"
   height="553.80103"
   viewBox="0 0 490.79398 553.801"
   xml:space="preserve"
   sodipodi:docname="pdf.svg"
   inkscape:version="0.92.1 r15371"><metadata
     id="metadata6461"><rdf:RDF><cc:Work
         rdf:about=""><dc:format>image/svg+xml</dc:format><dc:type
           rdf:resource="http://purl.org/dc/dcmitype/StillImage" /><dc:title></dc:title></cc:Work></rdf:RDF></metadata><defs
     id="defs6459" /><sodipodi:namedview
     pagecolor="#ffffff"
     bordercolor="#666666"
     borderopacity="1"
     objecttolerance="10"
     gridtolerance="10"
     guidetolerance="10"
     inkscape:pageopacity="0"
     inkscape:pageshadow="2"
     inkscape:window-width="1366"
     inkscape:window-height="708"
     id="namedview6457"
     showgrid="false"
     fit-margin-top="1"
     fit-margin-left="1"
     fit-margin-right="1"
     fit-margin-bottom="1"
     inkscape:zoom="0.42846689"
     inkscape:cx="245.39651"
     inkscape:cy="276.90049"
     inkscape:window-x="0"
     inkscape:window-y="31"
     inkscape:window-maximized="1"
     inkscape:current-layer="Capa_1" /><path
     inkscape:connector-curvature="0"
     id="path6418"
     d="m 130.377,283.725 c 0,-14.832 -10.299,-23.684 -28.474,-23.684 -7.414,0 -12.437,0.715 -15.071,1.432 V 309.1 c 3.114,0.707 6.942,0.949 12.192,0.949 19.391,0 31.353,-9.809 31.353,-26.324 z"
     style="fill:#626262;fill-opacity:1;stroke:#626262;stroke-opacity:1" /><path
     inkscape:connector-curvature="0"
     id="path6420"
     d="m 242.871,260.519 c -8.145,0 -13.397,0.717 -16.519,1.435 v 105.523 c 3.116,0.729 8.142,0.729 12.69,0.729 33.017,0.231 54.554,-17.946 54.554,-56.474 0.242,-33.513 -19.385,-51.213 -50.725,-51.213 z"
     style="fill:#626262;fill-opacity:1;stroke:#626262;stroke-opacity:1" /><path
     inkscape:connector-curvature="0"
     id="path6422"
     d="m 458.422,198.519 h -13.226 v -63.816 c 0,-0.398 -0.063,-0.799 -0.116,-1.202 -0.021,-2.534 -0.827,-5.023 -2.562,-6.995 L 336.321,5.194 c -0.032,-0.031 -0.063,-0.042 -0.085,-0.076 -0.633,-0.707 -1.371,-1.295 -2.151,-1.804 -0.231,-0.155 -0.464,-0.285 -0.706,-0.419 -0.676,-0.369 -1.393,-0.675 -2.131,-0.896 -0.2,-0.056 -0.38,-0.138 -0.58,-0.19 C 329.866,1.619 329.033,1.5 328.189,1.5 H 67.196 c -11.918,0 -21.6,9.693 -21.6,21.601 V 198.514 H 32.373 C 15.324,198.514 1.5,212.332 1.5,229.387 v 160.545 c 0,17.043 13.824,30.87 30.873,30.87 H 45.597 V 530.7 c 0,11.907 9.682,21.601 21.6,21.601 h 356.4 c 11.907,0 21.6,-9.693 21.6,-21.601 V 420.802 h 13.226 c 17.044,0 30.871,-13.827 30.871,-30.87 v -160.54 c -10e-4,-17.054 -13.828,-30.873 -30.872,-30.873 z M 67.196,23.105 h 250.193 v 110.513 c 0,5.967 4.841,10.8 10.8,10.8 h 95.407 v 54.108 h -356.4 z m 265.159,287.418 c 0,30.876 -11.243,52.165 -26.82,65.333 -16.971,14.117 -42.82,20.814 -74.396,20.814 -18.9,0 -32.297,-1.197 -41.401,-2.389 V 235.865 c 13.399,-2.149 30.878,-3.346 49.304,-3.346 30.612,0 50.478,5.508 66.039,17.226 16.743,12.445 27.274,32.302 27.274,60.778 z M 50.696,394.999 V 235.865 c 11.241,-1.904 27.042,-3.346 49.296,-3.346 22.491,0 38.527,4.308 49.291,12.928 10.292,8.131 17.215,21.534 17.215,37.328 0,15.799 -5.25,29.198 -14.829,38.285 -12.442,11.728 -30.865,16.996 -52.407,16.996 -4.778,0 -9.1,-0.243 -12.435,-0.723 v 57.67 H 50.696 Z M 423.597,524.853 H 67.196 V 420.802 h 356.4 v 104.051 z m 31.297,-261.226 h -61.989 v 36.851 h 57.913 v 29.674 H 392.905 V 395 H 356.312 V 233.716 h 98.582 z"
     style="fill:#626262;fill-opacity:1;stroke:#626262;stroke-opacity:1" /><g
     id="g6426"
     transform="translate(-30.004,1.5)" /><g
     id="g6428"
     transform="translate(-30.004,1.5)" /><g
     id="g6430"
     transform="translate(-30.004,1.5)" /><g
     id="g6432"
     transform="translate(-30.004,1.5)" /><g
     id="g6434"
     transform="translate(-30.004,1.5)" /><g
     id="g6436"
     transform="translate(-30.004,1.5)" /><g
     id="g6438"
     transform="translate(-30.004,1.5)" /><g
     id="g6440"
     transform="translate(-30.004,1.5)" /><g
     id="g6442"
     transform="translate(-30.004,1.5)" /><g
     id="g6444"
     transform="translate(-30.004,1.5)" /><g
     id="g6446"
     transform="translate(-30.004,1.5)" /><g
     id="g6448"
     transform="translate(-30.004,1.5)" /><g
     id="g6450"
     transform="translate(-30.004,1.5)" /><g
     id="g6452"
     transform="translate(-30.004,1.5)" /><g
     id="g6454"
     transform="translate(-30.004,1.5)" /></svg>