<?xml version="1.0" encoding="UTF-8" standalone="no"?>
<svg
   xmlns:dc="http://purl.org/dc/elements/1.1/"
   xmlns:cc="http://creativecommons.org/ns#"
   xmlns:rdf="http://www.w3.org/1999/02/22-rdf-syntax-ns#"
   xmlns:svg="http://www.w3.org/2000/svg"
   xmlns="http://www.w3.org/2000/svg"
   xmlns:sodipodi="http://sodipodi.sourceforge.net/DTD/sodipodi-0.dtd"
   xmlns:inkscape="http://www.inkscape.org/namespaces/inkscape"
   version="1.1"
   x="0px"
   y="0px"
   viewBox="0 0 92 81.342003"
   enable-background="new 0 0 100 100"
   xml:space="preserve"
   id="svg24"
   sodipodi:docname="robot.svg"
   inkscape:version="0.92.1 r15371"
   width="92"
   height="81.342003"><metadata
     id="metadata30"><rdf:RDF><cc:Work
         rdf:about=""><dc:format>image/svg+xml</dc:format><dc:type
           rdf:resource="http://purl.org/dc/dcmitype/StillImage" /><dc:title></dc:title></cc:Work></rdf:RDF></metadata><defs
     id="defs28" /><sodipodi:namedview
     pagecolor="#ffffff"
     bordercolor="#666666"
     borderopacity="1"
     objecttolerance="10"
     gridtolerance="10"
     guidetolerance="10"
     inkscape:pageopacity="0"
     inkscape:pageshadow="2"
     inkscape:window-width="1366"
     inkscape:window-height="708"
     id="namedview26"
     showgrid="false"
     inkscape:zoom="2.36"
     inkscape:cx="46"
     inkscape:cy="40.671"
     inkscape:window-x="0"
     inkscape:window-y="31"
     inkscape:window-maximized="1"
     inkscape:current-layer="svg24"
     fit-margin-top="1"
     fit-margin-left="1"
     fit-margin-right="1"
     fit-margin-bottom="1" /><circle
     style="fill:none"
     id="circle2"
     r="2.27"
     cy="47.799"
     cx="28.569" /><path
     style="fill:none"
     inkscape:connector-curvature="0"
     id="path4"
     d="m 5.78,53.903 c 0,3.463 2.271,6.404 5.401,7.415 V 46.489 C 8.051,47.5 5.78,50.441 5.78,53.903 Z" /><circle
     style="fill:none"
     id="circle6"
     r="2.27"
     cy="47.799"
     cx="63.431" /><circle
     style="fill:none"
     id="circle8"
     r="4.553"
     cy="10.333"
     cx="46" /><path
     style="fill:none"
     inkscape:connector-curvature="0"
     id="path10"
     d="M 65.986,30.472 H 26.015 c -5.544,0 -10.054,4.51 -10.054,10.053 V 65.51 c 0,5.543 4.51,10.053 10.054,10.053 h 39.971 c 5.543,0 10.053,-4.51 10.053,-10.053 V 40.525 c 0,-5.543 -4.51,-10.053 -10.053,-10.053 z M 28.569,54.849 c -3.887,0 -7.05,-3.163 -7.05,-7.05 0,-3.888 3.163,-7.051 7.05,-7.051 3.888,0 7.05,3.163 7.05,7.051 10e-4,3.887 -3.162,7.05 -7.05,7.05 z m 23.944,12.21 H 39.488 c -1.32,0 -2.39,-1.07 -2.39,-2.391 0,-1.319 1.07,-2.389 2.39,-2.389 h 13.025 c 1.319,0 2.389,1.07 2.389,2.389 0,1.321 -1.07,2.391 -2.389,2.391 z m 10.918,-12.21 c -3.887,0 -7.05,-3.163 -7.05,-7.05 0,-3.888 3.163,-7.051 7.05,-7.051 3.887,0 7.05,3.163 7.05,7.051 0,3.887 -3.163,7.05 -7.05,7.05 z" /><path
     style="fill:none"
     inkscape:connector-curvature="0"
     id="path12"
     d="m 80.818,46.489 v 14.829 c 3.13,-1.011 5.401,-3.952 5.401,-7.415 0.001,-3.462 -2.27,-6.403 -5.401,-7.414 z" /><path
     inkscape:connector-curvature="0"
     id="path14"
     d="m 80.818,41.562 v -1.037 c 0,-8.179 -6.654,-14.833 -14.833,-14.833 H 48.39 v -6.338 c 3.992,-1.059 6.943,-4.702 6.943,-9.021 C 55.333,5.186 51.146,1 46,1 c -5.146,0 -9.333,4.186 -9.333,9.333 0,4.32 2.951,7.962 6.943,9.021 v 6.338 H 26.015 c -8.18,0 -14.834,6.654 -14.834,14.833 v 1.037 C 5.389,42.681 1,47.79 1,53.903 c 0,6.122 4.398,11.234 10.2,12.347 0.387,7.835 6.884,14.092 14.815,14.092 h 39.971 c 7.931,0 14.427,-6.257 14.815,-14.092 C 86.602,65.137 91,60.025 91,53.903 91,47.79 86.611,42.681 80.818,41.562 Z M 11.182,61.318 c -3.13,-1.011 -5.401,-3.952 -5.401,-7.415 0,-3.462 2.271,-6.403 5.401,-7.414 z M 41.447,10.333 C 41.447,7.822 43.49,5.78 46,5.78 c 2.51,0 4.553,2.042 4.553,4.553 0,2.511 -2.043,4.552 -4.553,4.552 -2.51,0 -4.553,-2.042 -4.553,-4.552 z M 76.039,65.51 c 0,5.543 -4.51,10.053 -10.053,10.053 H 26.015 c -5.544,0 -10.054,-4.51 -10.054,-10.053 V 40.525 c 0,-5.543 4.51,-10.053 10.054,-10.053 h 39.971 c 5.543,0 10.053,4.51 10.053,10.053 z m 4.779,-4.192 V 46.489 c 3.13,1.011 5.401,3.952 5.401,7.414 0.001,3.464 -2.27,6.404 -5.401,7.415 z"
     style="fill:#626262;fill-opacity:1;stroke:none" /><path
     inkscape:connector-curvature="0"
     id="path16"
     d="m 63.431,40.748 c -3.887,0 -7.05,3.163 -7.05,7.051 0,3.887 3.163,7.05 7.05,7.05 3.887,0 7.05,-3.163 7.05,-7.05 0,-3.888 -3.163,-7.051 -7.05,-7.051 z m 0,9.321 c -1.252,0 -2.27,-1.017 -2.27,-2.269 0,-1.252 1.018,-2.271 2.27,-2.271 1.252,0 2.271,1.019 2.271,2.271 0,1.251 -1.019,2.269 -2.271,2.269 z"
     style="fill:#626262;fill-opacity:1;stroke:none" /><path
     inkscape:connector-curvature="0"
     id="path18"
     d="m 28.569,40.748 c -3.887,0 -7.05,3.163 -7.05,7.051 0,3.887 3.163,7.05 7.05,7.05 3.888,0 7.05,-3.163 7.05,-7.05 10e-4,-3.888 -3.162,-7.051 -7.05,-7.051 z m 0,9.321 c -1.252,0 -2.27,-1.017 -2.27,-2.269 0,-1.252 1.018,-2.271 2.27,-2.271 1.252,0 2.271,1.019 2.271,2.271 0,1.251 -1.019,2.269 -2.271,2.269 z"
     style="fill:#626262;fill-opacity:1" /><path
     inkscape:connector-curvature="0"
     id="path20"
     d="M 52.513,62.279 H 39.488 c -1.32,0 -2.39,1.07 -2.39,2.389 0,1.321 1.07,2.391 2.39,2.391 h 13.025 c 1.319,0 2.389,-1.07 2.389,-2.391 0,-1.319 -1.07,-2.389 -2.389,-2.389 z"
     style="fill:#626262;fill-opacity:1" /></svg>