<?xml version="1.0" encoding="UTF-8" standalone="no"?>
<svg
   xmlns:dc="http://purl.org/dc/elements/1.1/"
   xmlns:cc="http://creativecommons.org/ns#"
   xmlns:rdf="http://www.w3.org/1999/02/22-rdf-syntax-ns#"
   xmlns:svg="http://www.w3.org/2000/svg"
   xmlns="http://www.w3.org/2000/svg"
   xmlns:sodipodi="http://sodipodi.sourceforge.net/DTD/sodipodi-0.dtd"
   xmlns:inkscape="http://www.inkscape.org/namespaces/inkscape"
   version="1.1"
   x="0px"
   y="0px"
   viewBox="0 0 164 164"
   enable-background="new 0 0 164 164"
   xml:space="preserve"
   id="svg4"
   sodipodi:docname="secure.svg"
   inkscape:version="0.92.1 r15371"><metadata
     id="metadata10"><rdf:RDF><cc:Work
         rdf:about=""><dc:format>image/svg+xml</dc:format><dc:type
           rdf:resource="http://purl.org/dc/dcmitype/StillImage" /><dc:title></dc:title></cc:Work></rdf:RDF></metadata><defs
     id="defs8" /><sodipodi:namedview
     pagecolor="#ffffff"
     bordercolor="#666666"
     borderopacity="1"
     objecttolerance="10"
     gridtolerance="10"
     guidetolerance="10"
     inkscape:pageopacity="0"
     inkscape:pageshadow="2"
     inkscape:window-width="1366"
     inkscape:window-height="708"
     id="namedview6"
     showgrid="false"
     inkscape:zoom="1.4390244"
     inkscape:cx="83.389831"
     inkscape:cy="82"
     inkscape:window-x="0"
     inkscape:window-y="31"
     inkscape:window-maximized="1"
     inkscape:current-layer="svg4" /><path
     fill-rule="evenodd"
     clip-rule="evenodd"
     d="M141.951,145.142H21.729c-6.766,0-12.3-5.533-12.3-12.301V12.62  c0-6.767,5.534-12.3,12.3-12.3h120.222c6.767,0,12.3,5.533,12.3,12.3v120.221C154.251,139.608,148.718,145.142,141.951,145.142  L141.951,145.142z M46.78,164H34.653c-2.704,0-4.919-2.215-4.919-4.92v-9.295H51.7v9.295C51.7,161.783,49.483,164,46.78,164  L46.78,164z M129.027,164h-12.126c-2.704,0-4.921-2.215-4.921-4.92v-9.295h21.968v9.295C133.948,161.783,131.731,164,129.027,164  L129.027,164z M133.616,126.558h2.051v-2.052v-13.233h0.369c1.492,0,2.712-1.22,2.712-2.712V98.344c0-1.491-1.221-2.712-2.712-2.712  h-0.369V49.83h0.369c1.492,0,2.712-1.22,2.712-2.713V36.9c0-1.491-1.221-2.713-2.712-2.713h-0.369V20.955v-2.05h-2.051H30.064h-2.05  v2.05v103.551v2.052h2.05H133.616L133.616,126.558z M131.565,49.83h-0.363c-1.49,0-2.713-1.223-2.713-2.713V36.9  c0-1.493,1.22-2.713,2.713-2.713h0.363V23.005h-99.45v99.451h99.45v-11.184h-0.363c-1.49,0-2.713-1.222-2.713-2.712V98.344  c0-1.492,1.22-2.712,2.713-2.712h0.363V49.83L131.565,49.83z M81.841,81.861c5.041,0,9.13-4.089,9.13-9.131s-4.089-9.13-9.13-9.13  c-0.555,0-1.098,0.049-1.625,0.144l-2.086-2.5l-2.411-2.882l0.443,3.73l0.383,3.201c-2.321,1.657-3.833,4.37-3.833,7.437  C72.71,77.772,76.798,81.861,81.841,81.861L81.841,81.861z M72.045,80.373l-6.591,6.591l2.151,2.151l6.592-6.591L72.045,80.373  L72.045,80.373z M96.074,56.343l-6.591,6.591l2.151,2.152l6.592-6.592L96.074,56.343L96.074,56.343z M74.197,62.935l-6.592-6.591  l-2.151,2.153l6.591,6.59L74.197,62.935L74.197,62.935z M98.227,86.965l-6.592-6.592l-2.151,2.152l6.591,6.591L98.227,86.965  L98.227,86.965z M69.51,71.208h-9.321v3.043h9.321V71.208L69.51,71.208z M103.492,71.208h-9.32v3.043h9.32V71.208L103.492,71.208z   M83.361,60.4v-9.322h-3.042V60.4H83.361L83.361,60.4z M83.361,94.382v-9.321h-3.042v9.321H83.361L83.361,94.382z M81.841,98.362  c14.155,0,25.632-11.476,25.632-25.632c0-14.155-11.477-25.631-25.632-25.631c-14.156,0-25.632,11.476-25.632,25.631  C56.209,86.887,67.685,98.362,81.841,98.362z"
     id="path2"
     style="fill:#626262;fill-opacity:1" /></svg>