<?xml version="1.0" encoding="UTF-8" standalone="no"?>
<svg
   xmlns:dc="http://purl.org/dc/elements/1.1/"
   xmlns:cc="http://creativecommons.org/ns#"
   xmlns:rdf="http://www.w3.org/1999/02/22-rdf-syntax-ns#"
   xmlns:svg="http://www.w3.org/2000/svg"
   xmlns="http://www.w3.org/2000/svg"
   xmlns:sodipodi="http://sodipodi.sourceforge.net/DTD/sodipodi-0.dtd"
   xmlns:inkscape="http://www.inkscape.org/namespaces/inkscape"
   version="1.0"
   width="468pt"
   height="128pt"
   viewBox="0 0 468 128"
   preserveAspectRatio="xMidYMid meet"
   id="svg6575"
   sodipodi:docname="signature.svg"
   inkscape:version="0.92.1 r15371">
  <defs
     id="defs6579" />
  <sodipodi:namedview
     pagecolor="#ffffff"
     bordercolor="#666666"
     borderopacity="1"
     objecttolerance="10"
     gridtolerance="10"
     guidetolerance="10"
     inkscape:pageopacity="0"
     inkscape:pageshadow="2"
     inkscape:window-width="1366"
     inkscape:window-height="708"
     id="namedview6577"
     showgrid="false"
     inkscape:zoom="0.49519231"
     inkscape:cx="312"
     inkscape:cy="85.333333"
     inkscape:window-x="0"
     inkscape:window-y="31"
     inkscape:window-maximized="1"
     inkscape:current-layer="svg6575" />
  <metadata
     id="metadata6537">
Created by POTRACE VERSION, written by Peter Selinger 2001-2007
<rdf:RDF>
  <cc:Work
     rdf:about="">
    <dc:format>image/svg+xml</dc:format>
    <dc:type
       rdf:resource="http://purl.org/dc/dcmitype/StillImage" />
    <dc:title></dc:title>
  </cc:Work>
</rdf:RDF>
</metadata>
  <g
     transform="translate(0,128) scale(0.011863,-0.011863)"
     fill="#000000"
     stroke="none"
     id="g6573"
     style="fill:#626262;fill-opacity:1">
    <path
       d="M21295 10733 c-30 -3 -52 -16 -90 -49 -27 -25 -79 -73 -115 -108 -36 -34 -82 -76 -102 -93 -20 -17 -55 -66 -77 -110 -33 -61 -43 -95 -50 -156 -7 -64 -20 -101 -77 -223 -52 -111 -80 -158 -115 -193 -25 -25 -53 -58 -62 -73 -9 -15 -25 -31 -34 -36 -10 -5 -61 -5 -113 -1 -73 5 -103 4 -129 -7 -19 -8 -58 -33 -88 -57 -29 -23 -83 -66 -118 -96 -36 -29 -65 -59 -65 -67 0 -7 -14 -26 -30 -41 -23 -21 -32 -40 -36 -73 -2 -25 -9 -59 -15 -77 -6 -18 -14 -67 -19 -110 -5 -43 -14 -98 -20 -123 -6 -25 -11 -49 -11 -55 0 -5 3 -31 7 -57 5 -38 3 -52 -15 -77 -12 -16 -28 -46 -37 -66 -8 -20 -27 -44 -42 -52 -17 -10 -39 -39 -55 -75 -15 -32 -40 -73 -55 -91 -16 -17 -36 -51 -46 -74 -11 -24 -27 -45 -36 -48 -9 -3 -25 -3 -34 1 -9 3 -16 1 -16 -5 0 -7 -30 -44 -67 -84 -37 -40 -81 -82 -97 -95 -17 -12 -43 -44 -59 -72 -15 -27 -36 -52 -47 -55 -10 -3 -21 -17 -24 -31 -4 -13 -18 -30 -31 -36 -14 -6 -25 -15 -25 -19 0 -4 -22 -30 -48 -56 -27 -26 -57 -60 -67 -75 -9 -16 -23 -28 -31 -28 -8 0 -26 -13 -41 -30 -14 -16 -33 -30 -40 -30 -8 0 -27 -7 -43 -15 -15 -8 -43 -36 -60 -61 -17 -26 -55 -74 -83 -107 -29 -33 -63 -70 -77 -84 -14 -13 -51 -48 -82 -77 -47 -43 -58 -59 -58 -85 0 -20 6 -34 17 -38 9 -4 39 5 69 21 30 16 64 38 76 51 13 12 50 53 83 90 33 37 70 77 82 90 12 13 33 27 45 31 13 4 50 29 83 57 33 28 74 63 90 78 17 15 59 56 95 91 36 35 88 88 116 118 28 30 83 84 123 120 40 36 80 66 90 68 11 2 46 32 80 67 34 35 61 70 61 78 0 9 18 34 41 58 22 23 52 57 65 75 14 18 34 36 45 39 11 4 26 20 35 37 9 17 37 53 61 80 25 26 51 48 58 48 7 0 35 -20 63 -45 28 -25 66 -52 84 -60 19 -7 40 -21 48 -29 7 -9 16 -16 21 -16 5 0 28 -13 51 -30 22 -16 48 -30 57 -30 9 0 45 -9 80 -20 40 -13 76 -18 96 -14 21 4 44 0 62 -9 16 -9 49 -15 74 -14 32 1 52 -5 76 -22 29 -22 39 -23 100 -18 44 3 76 1 91 -7 21 -11 18 -16 -100 -136 -67 -68 -147 -145 -177 -170 -31 -26 -68 -54 -83 -64 -16 -10 -28 -22 -28 -28 0 -5 -33 -43 -72 -85 -40 -41 -98 -101 -128 -132 -31 -31 -78 -75 -105 -99 -28 -23 -74 -61 -102 -84 -29 -23 -55 -49 -58 -58 -3 -9 -22 -27 -43 -40 -20 -13 -55 -45 -77 -71 -22 -26 -53 -53 -70 -60 -16 -6 -60 -42 -97 -78 -36 -36 -88 -84 -115 -107 -26 -22 -61 -49 -78 -60 -16 -10 -33 -24 -38 -30 -4 -7 -22 -22 -41 -33 -21 -13 -47 -20 -67 -19 -30 3 -34 0 -32 -19 2 -18 -12 -32 -69 -69 -39 -25 -83 -50 -97 -55 -14 -6 -46 -20 -71 -31 -25 -12 -57 -32 -72 -44 -15 -12 -51 -30 -80 -38 -29 -9 -73 -27 -98 -41 -25 -14 -83 -44 -130 -66 -48 -24 -110 -45 -143 -49 -32 -5 -95 -24 -140 -43 -45 -19 -104 -40 -132 -46 -27 -5 -81 -17 -120 -26 -38 -8 -80 -15 -93 -15 -13 0 -33 -5 -45 -12 -12 -7 -56 -16 -97 -20 -41 -4 -118 -12 -170 -17 -52 -6 -119 -17 -149 -25 -42 -12 -120 -17 -329 -19 -247 -4 -275 -6 -284 -21 -9 -16 -11 -16 -28 -1 -9 9 -52 23 -93 31 -42 9 -98 24 -124 33 -37 14 -47 22 -45 37 2 10 11 39 22 64 10 25 22 62 25 84 5 26 14 40 27 44 11 2 21 16 25 33 3 15 19 40 35 54 16 15 37 43 45 63 8 21 21 44 29 53 7 8 22 42 32 75 l18 59 41 -3 c39 -3 44 0 90 55 26 32 78 88 115 126 37 37 74 67 82 67 8 0 22 8 32 17 10 10 27 23 38 28 12 6 28 26 37 45 10 20 40 57 68 83 27 26 57 47 66 47 8 0 15 4 15 10 0 5 16 24 36 42 20 18 49 59 65 91 19 37 39 61 55 67 13 5 29 21 34 35 5 14 20 40 32 58 12 17 40 55 61 84 32 43 44 74 72 185 18 73 34 166 36 206 l4 74 -57 31 c-49 28 -60 30 -77 20 -12 -7 -35 -13 -52 -13 -17 0 -57 -14 -88 -32 -31 -17 -68 -41 -83 -52 -16 -11 -28 -26 -28 -33 0 -7 6 -14 13 -15 6 -1 28 -2 47 -2 29 -1 36 -5 38 -25 2 -14 -4 -50 -13 -80 -10 -31 -21 -63 -26 -71 -5 -8 -18 -32 -29 -53 -11 -20 -34 -49 -50 -64 -17 -14 -30 -33 -30 -41 0 -7 -22 -35 -50 -62 -27 -27 -50 -54 -50 -62 0 -7 -31 -43 -68 -80 -37 -37 -92 -91 -122 -120 -31 -29 -67 -62 -80 -73 -14 -11 -34 -22 -44 -25 -11 -3 -23 -19 -28 -35 -4 -17 -19 -42 -33 -57 -14 -16 -29 -28 -33 -28 -4 0 -32 -23 -61 -50 -30 -28 -57 -50 -61 -50 -3 0 -49 -42 -103 -94 -53 -52 -97 -99 -97 -104 0 -6 -22 -34 -50 -61 -27 -28 -50 -54 -50 -58 0 -5 -18 -19 -40 -33 -22 -14 -40 -30 -40 -36 0 -7 -7 -14 -15 -18 -8 -3 -15 -13 -15 -21 0 -9 -6 -22 -12 -29 -7 -7 -24 -27 -38 -46 -14 -18 -41 -51 -60 -74 -20 -23 -47 -58 -60 -78 -19 -29 -32 -38 -53 -38 -15 0 -42 8 -60 17 -18 9 -60 20 -95 24 -49 5 -70 13 -90 32 -17 16 -48 31 -82 38 -30 6 -68 18 -85 27 -16 8 -32 18 -35 21 -3 3 -14 11 -25 17 -11 6 -21 22 -23 35 -1 13 4 35 12 49 9 14 20 35 25 48 6 12 18 25 26 28 9 4 22 18 30 33 8 14 65 78 127 142 62 64 124 122 138 129 14 7 42 27 64 44 21 17 55 47 75 66 20 19 54 49 75 65 22 17 57 44 78 62 21 17 47 35 58 38 11 4 20 10 20 15 0 4 21 24 48 43 26 19 78 51 115 71 38 20 77 36 88 36 10 0 36 15 56 34 21 18 54 38 73 45 19 6 44 22 54 36 10 14 26 25 35 25 9 1 27 16 41 35 14 19 36 50 50 69 14 20 30 36 35 36 6 0 16 4 24 9 10 7 11 13 2 30 -7 11 -18 21 -27 21 -8 0 -43 -18 -76 -40 -34 -22 -66 -40 -70 -40 -4 0 -8 10 -8 23 1 12 7 33 15 47 8 14 14 40 15 58 0 18 5 42 11 53 6 11 15 44 20 72 5 29 13 106 18 172 6 78 5 124 -1 133 -6 6 -25 12 -42 12 -18 0 -36 -4 -41 -9 -6 -5 -50 -19 -100 -30 -49 -12 -102 -31 -117 -41 -15 -11 -32 -20 -38 -20 -5 0 -10 -4 -10 -9 0 -5 -12 -24 -26 -41 -15 -17 -23 -34 -19 -38 3 -4 11 -7 17 -7 6 0 16 -8 22 -17 8 -14 5 -28 -14 -65 -14 -26 -40 -74 -59 -108 -19 -33 -50 -80 -70 -105 -20 -24 -65 -74 -101 -111 -44 -46 -76 -70 -100 -76 -27 -7 -37 -16 -45 -41 -5 -18 -14 -32 -20 -32 -5 0 -16 -9 -23 -21 -11 -16 -20 -20 -42 -15 -17 3 -32 1 -36 -6 -4 -7 -2 -14 4 -16 7 -2 12 -10 12 -18 0 -8 -4 -14 -8 -14 -5 0 -15 -11 -22 -25 -7 -13 -28 -29 -47 -36 -18 -6 -33 -15 -33 -21 0 -6 -9 -20 -19 -32 -11 -12 -48 -49 -82 -84 -34 -35 -83 -74 -110 -87 -26 -14 -50 -29 -54 -35 -3 -5 -15 -10 -25 -10 -12 0 -25 -13 -35 -33 -8 -18 -38 -55 -65 -80 -28 -26 -50 -51 -50 -56 0 -5 -16 -18 -35 -30 -19 -11 -35 -27 -35 -35 0 -8 -14 -26 -31 -41 -18 -14 -38 -25 -47 -23 -8 2 -21 21 -28 43 -8 22 -26 65 -40 95 -15 30 -37 75 -50 100 -17 34 -28 45 -46 45 -20 0 -23 -6 -26 -39 -2 -22 3 -56 12 -75 8 -20 27 -76 42 -126 15 -49 33 -99 41 -111 11 -17 11 -25 -1 -50 -8 -16 -30 -43 -48 -60 -18 -18 -43 -35 -54 -38 -12 -4 -27 -19 -34 -35 -6 -16 -27 -46 -46 -66 -19 -21 -34 -41 -34 -45 0 -4 -11 -15 -25 -24 -14 -9 -25 -22 -25 -30 0 -7 -9 -21 -20 -31 -11 -10 -20 -26 -20 -35 0 -9 -12 -28 -27 -42 -16 -14 -43 -33 -61 -42 -17 -9 -43 -33 -57 -54 -14 -20 -36 -54 -50 -74 -14 -20 -34 -42 -45 -48 -11 -6 -29 -29 -40 -51 -12 -22 -18 -48 -15 -58 3 -11 16 -21 28 -25 13 -3 43 5 77 21 30 14 75 28 100 31 25 2 50 9 56 13 6 5 32 12 58 15 25 4 46 3 46 -1 0 -5 -18 -30 -40 -56 -34 -40 -37 -49 -26 -64 9 -12 19 -15 34 -11 12 4 36 19 53 33 17 15 34 36 39 48 4 11 39 42 76 67 38 26 85 66 104 89 19 24 56 63 82 87 27 25 62 67 79 94 17 26 34 48 38 48 4 0 24 23 45 50 21 28 45 50 52 50 8 0 32 -9 54 -20 22 -11 65 -27 96 -35 32 -8 64 -21 73 -28 9 -8 44 -26 79 -40 35 -15 73 -27 84 -27 11 0 39 -9 62 -20 23 -10 60 -24 83 -30 23 -6 45 -15 49 -21 4 -6 1 -14 -5 -18 -6 -4 -9 -15 -6 -23 3 -8 17 -20 30 -26 14 -6 28 -26 35 -49 7 -21 18 -44 24 -52 6 -8 30 -23 53 -33 33 -14 58 -18 107 -14 36 3 74 10 85 16 12 6 24 23 27 38 4 15 18 42 32 60 13 17 31 32 38 32 8 0 14 -4 14 -9 0 -5 24 -12 53 -16 28 -4 75 -8 102 -10 28 -2 69 -6 93 -10 36 -7 45 -5 57 11 13 18 14 18 20 2 4 -10 15 -18 25 -18 10 0 21 -8 24 -18 5 -13 23 -22 68 -30 46 -8 79 -8 135 0 57 9 91 9 144 0 60 -10 72 -10 85 3 9 8 20 15 25 15 6 0 19 -5 30 -11 13 -6 25 -7 32 -1 7 5 50 15 97 22 61 9 100 9 140 2 30 -5 90 -7 133 -5 65 5 81 3 97 -12 17 -15 24 -16 50 -5 19 8 48 10 75 7 25 -4 53 -11 62 -16 10 -5 37 -17 60 -26 36 -15 47 -16 73 -5 17 7 45 10 64 7 18 -3 38 -2 45 3 7 4 25 3 40 -2 22 -9 36 -5 89 27 l63 37 39 -27 c21 -15 53 -27 71 -27 19 0 95 2 169 6 74 4 143 9 153 12 10 3 25 0 33 -7 9 -7 43 -16 76 -20 47 -5 71 -3 115 12 55 20 55 20 98 -1 33 -16 56 -20 97 -16 29 2 72 0 95 -5 25 -5 61 -5 92 1 37 7 69 24 118 61 38 28 89 72 116 98 26 25 53 46 60 46 6 0 22 7 35 15 12 8 22 23 22 34 0 10 25 48 56 83 31 35 71 78 87 95 17 17 44 50 59 74 15 24 61 82 103 128 41 47 75 89 75 94 0 5 14 27 31 48 18 22 47 62 65 89 19 28 54 77 79 110 24 33 56 83 71 110 14 28 42 66 63 85 20 19 48 55 64 80 15 25 37 60 50 78 12 18 43 59 68 90 25 31 65 88 89 127 23 38 51 76 60 85 10 8 23 31 31 50 7 19 16 37 19 40 4 3 33 40 66 84 32 43 75 104 94 136 19 32 58 84 86 115 45 51 53 56 72 46 14 -8 36 -8 73 -1 28 6 80 10 115 10 34 0 65 -4 68 -9 3 -4 49 -11 103 -15 53 -4 105 -12 114 -16 10 -6 19 -29 24 -62 4 -29 8 -76 8 -104 0 -39 -6 -63 -28 -100 -15 -26 -52 -71 -82 -99 -32 -31 -53 -60 -53 -73 0 -18 6 -22 35 -22 31 0 35 -3 35 -25 0 -14 -14 -51 -32 -83 -17 -31 -43 -73 -57 -92 -14 -19 -45 -55 -70 -80 -24 -25 -54 -61 -66 -80 -12 -19 -32 -43 -43 -54 -12 -10 -26 -35 -33 -55 -6 -20 -26 -52 -44 -71 -17 -19 -50 -65 -73 -102 -23 -37 -42 -71 -42 -76 0 -5 -12 -19 -26 -33 -14 -13 -48 -60 -75 -105 -28 -44 -87 -118 -132 -165 -46 -46 -100 -95 -120 -109 -20 -14 -40 -33 -43 -43 -3 -10 -42 -53 -86 -96 -44 -44 -86 -90 -94 -103 -7 -12 -28 -52 -45 -88 -23 -46 -33 -78 -32 -112 0 -27 7 -58 17 -73 14 -22 23 -26 44 -20 15 3 43 10 63 16 20 5 53 20 73 34 20 14 43 25 50 25 7 0 30 9 53 20 26 12 45 30 53 50 7 17 24 39 37 50 13 10 35 34 48 52 13 18 45 64 71 102 26 37 64 89 85 115 21 25 44 53 51 61 8 9 26 38 42 65 16 28 39 63 50 78 12 15 33 42 48 60 15 18 30 45 33 59 4 14 29 56 56 94 27 38 70 101 96 139 25 39 66 93 89 121 24 28 44 55 44 59 0 4 16 32 36 62 19 29 45 64 57 77 12 13 67 86 122 163 55 76 116 154 136 173 20 19 44 50 53 68 9 18 24 36 32 39 8 3 23 21 32 40 10 19 54 73 97 120 44 47 110 119 148 159 37 40 67 79 67 87 0 8 10 25 23 39 12 14 40 52 62 83 22 32 46 63 54 69 7 6 31 29 53 51 22 21 52 56 65 76 14 21 31 40 38 43 7 2 41 37 75 78 35 40 142 156 239 257 97 101 208 218 247 260 39 42 90 101 114 131 23 30 55 63 71 73 16 11 29 23 29 28 0 5 26 30 59 55 32 25 67 60 77 79 10 19 28 36 41 40 13 3 42 31 66 63 23 31 85 100 137 152 53 52 134 131 181 175 46 44 94 96 106 115 12 19 26 54 33 78 9 37 9 48 -5 69 -16 24 -21 25 -74 20 -31 -4 -103 -16 -161 -27 -58 -12 -113 -23 -122 -26 -9 -3 -20 -19 -23 -36 -4 -17 -33 -59 -64 -93 -31 -34 -81 -95 -111 -135 -30 -41 -81 -104 -113 -142 -33 -37 -62 -68 -66 -68 -4 0 -13 -11 -19 -25 -6 -14 -18 -25 -25 -25 -8 0 -26 -9 -40 -20 -13 -11 -28 -35 -31 -53 -4 -20 -20 -47 -40 -65 -19 -17 -44 -49 -57 -72 -14 -25 -46 -56 -81 -80 -39 -26 -73 -60 -101 -101 -23 -35 -62 -77 -86 -94 -26 -18 -49 -43 -54 -60 -6 -17 -24 -49 -41 -73 -17 -24 -41 -57 -53 -73 -12 -17 -34 -40 -50 -52 -15 -12 -41 -38 -58 -57 -16 -19 -38 -41 -47 -50 -10 -8 -62 -59 -116 -112 -54 -53 -110 -100 -123 -103 -15 -4 -53 -38 -87 -78 -34 -40 -80 -88 -104 -107 -23 -19 -56 -49 -73 -66 -16 -17 -48 -41 -70 -53 -22 -11 -58 -34 -80 -51 -22 -16 -51 -31 -65 -32 -21 -3 -25 2 -28 27 -1 17 -7 50 -12 75 -6 25 -21 81 -34 125 -14 44 -32 109 -41 145 -9 36 -21 72 -25 80 -5 8 -21 38 -36 65 -14 28 -32 57 -38 65 -7 8 -22 32 -34 53 -12 21 -22 44 -22 50 0 7 18 26 39 43 21 16 55 49 75 73 20 23 36 46 36 51 0 4 8 25 17 46 9 22 18 50 19 63 2 15 51 70 137 155 73 72 146 151 163 175 16 25 52 61 79 82 28 21 71 55 98 76 26 21 74 61 106 88 32 28 78 67 102 89 24 21 54 42 67 47 13 5 44 23 70 41 25 17 66 42 91 56 26 13 57 35 72 48 14 13 34 24 46 24 11 0 27 7 34 17 8 9 28 22 46 30 18 7 46 13 63 13 17 0 45 7 63 16 18 9 39 22 47 29 8 8 44 24 80 38 36 13 88 36 115 50 28 14 57 33 66 43 9 11 20 44 25 74 4 30 7 62 5 70 -1 8 -10 22 -19 31 -9 9 -48 26 -86 38 -38 11 -94 21 -124 21 -37 0 -62 -6 -81 -19 -15 -11 -54 -29 -88 -40 -34 -11 -82 -35 -107 -51 -25 -17 -48 -35 -51 -40 -3 -5 -19 -11 -36 -15 -17 -4 -45 -20 -62 -35 -18 -15 -53 -34 -77 -41 -25 -7 -55 -11 -68 -10 -13 1 -30 -3 -37 -9 -8 -7 -27 -13 -42 -15 -16 -1 -40 -8 -56 -15 -24 -12 -30 -11 -52 10 l-25 24 -28 -34 c-28 -32 -32 -34 -142 -46 -62 -7 -117 -11 -121 -8 -5 3 -21 -2 -37 -10 -16 -8 -64 -18 -108 -21 -43 -4 -119 -13 -169 -21 -52 -8 -200 -16 -350 -19 -143 -3 -293 -8 -333 -13 -40 -4 -75 -5 -78 -1 -2 4 14 29 36 55 22 27 40 55 40 62 0 7 8 34 19 60 10 26 24 79 31 117 6 39 17 96 23 127 9 50 9 60 -6 76 -10 11 -43 24 -74 31 -31 6 -66 10 -77 9 -12 -1 -39 -3 -61 -5z m1415 -563 c18 -10 16 -14 -26 -70 -25 -33 -49 -60 -54 -60 -5 0 -15 -6 -22 -12 -8 -7 -40 -38 -73 -68 -33 -30 -64 -67 -70 -82 -5 -15 -39 -58 -75 -95 -36 -38 -87 -92 -113 -121 -27 -29 -54 -52 -61 -52 -7 0 -21 -9 -32 -20 -10 -11 -32 -36 -49 -55 -16 -19 -59 -64 -95 -100 -36 -35 -78 -77 -95 -93 -16 -16 -39 -39 -50 -51 -11 -12 -37 -33 -58 -46 -21 -14 -42 -25 -48 -25 -5 0 -26 16 -45 35 -19 20 -52 46 -72 60 -20 13 -63 42 -94 65 -32 22 -64 40 -72 40 -8 0 -30 9 -48 19 -18 11 -51 23 -73 27 -22 3 -47 12 -55 19 -8 7 -41 25 -74 39 -32 14 -67 26 -78 26 -11 0 -29 6 -41 12 -12 7 -40 14 -62 15 -22 1 -77 4 -122 5 -60 2 -87 8 -99 19 -15 15 -12 23 36 102 34 58 61 91 82 102 17 8 39 15 48 15 9 0 25 9 35 20 10 11 25 20 33 20 8 0 28 15 46 34 19 21 55 42 94 56 36 13 70 33 78 45 12 18 27 24 72 28 36 3 69 0 91 -9 18 -8 45 -14 59 -14 14 0 35 8 46 18 12 10 43 27 70 37 37 13 66 16 121 12 42 -3 87 -13 106 -24 28 -15 54 -18 149 -16 75 1 130 7 159 17 24 9 55 16 70 16 14 0 55 9 91 20 36 11 85 20 109 20 25 0 57 8 75 19 17 10 50 22 73 26 23 3 47 13 54 21 6 8 18 14 26 14 8 0 23 -5 33 -10z m-1778 -832 c48 -22 74 -29 94 -24 14 4 50 2 79 -5 45 -10 58 -19 91 -60 28 -36 51 -53 84 -64 25 -8 63 -15 85 -17 40 -3 40 -4 82 -88 23 -47 45 -100 48 -117 4 -18 4 -44 1 -58 -4 -15 -54 -73 -111 -130 -58 -57 -105 -109 -105 -114 0 -6 -36 -47 -80 -92 -43 -45 -99 -103 -124 -130 -25 -27 -54 -49 -64 -49 -11 0 -25 7 -32 15 -10 12 -16 13 -26 4 -11 -9 -18 -8 -29 1 -8 7 -21 10 -29 7 -8 -3 -31 5 -51 19 -20 13 -40 24 -46 24 -5 0 -24 7 -41 16 -26 13 -35 14 -55 3 -21 -11 -31 -9 -79 15 -41 21 -65 27 -89 23 -25 -4 -41 0 -66 19 -18 13 -44 24 -57 24 -13 0 -31 4 -41 10 -10 5 -35 24 -56 42 -21 18 -47 41 -57 51 -10 9 -18 29 -18 43 0 18 -12 38 -35 60 -32 30 -35 37 -29 69 4 22 20 47 45 70 22 19 45 35 53 35 7 0 21 11 29 24 9 13 59 68 112 121 52 54 95 99 95 101 0 2 14 17 31 34 18 16 37 30 43 30 6 1 23 20 39 44 15 24 27 48 27 53 0 5 6 15 13 22 9 10 35 12 107 7 76 -5 108 -13 162 -38z m982 -670 c29 -44 37 -68 47 -143 6 -49 20 -112 30 -138 11 -26 19 -50 19 -52 0 -2 -52 -3 -115 -1 -91 2 -118 5 -133 19 -13 12 -36 17 -80 17 -53 0 -62 3 -62 18 0 10 19 43 43 74 23 31 60 81 82 113 22 31 52 73 68 92 15 20 27 40 27 44 0 5 9 9 20 9 13 0 32 -18 54 -52z"
       id="path6539"
       style="fill:#626262;fill-opacity:1" />
    <path
       d="M11517 10586 c-16 -11 -53 -44 -83 -73 -30 -28 -63 -72 -75 -98 -18 -40 -20 -58 -14 -114 4 -36 16 -85 28 -109 l21 -42 -36 -38 c-19 -20 -45 -55 -58 -77 -13 -22 -42 -63 -66 -90 -23 -28 -49 -68 -58 -90 -9 -21 -31 -57 -50 -79 -18 -23 -47 -70 -65 -106 -17 -36 -44 -89 -60 -118 -15 -29 -39 -65 -54 -80 -14 -15 -33 -45 -43 -67 -9 -22 -30 -60 -48 -85 -17 -25 -43 -60 -58 -78 -16 -18 -28 -37 -28 -43 0 -6 -17 -33 -37 -60 -21 -28 -73 -94 -116 -147 -44 -53 -85 -109 -93 -124 -8 -16 -19 -28 -23 -28 -5 0 -25 -28 -44 -63 -20 -34 -47 -75 -61 -90 -14 -15 -26 -34 -26 -42 0 -8 -9 -19 -20 -25 -10 -6 -61 -61 -112 -123 -52 -61 -111 -136 -132 -164 -21 -29 -41 -53 -45 -53 -5 0 -22 -21 -39 -47 -17 -27 -52 -75 -77 -108 -26 -33 -61 -76 -79 -95 -18 -19 -50 -62 -71 -95 -21 -33 -70 -93 -109 -133 -39 -41 -75 -78 -81 -83 -5 -5 -27 -20 -48 -34 -21 -14 -42 -25 -47 -25 -5 0 -13 -12 -16 -27 -4 -16 -25 -47 -47 -70 -22 -23 -47 -52 -56 -65 -9 -13 -44 -50 -77 -82 -34 -31 -77 -68 -95 -82 -19 -14 -40 -36 -47 -49 -7 -14 -18 -25 -25 -25 -7 0 -18 -14 -24 -31 -11 -28 -14 -30 -47 -23 -30 5 -36 3 -36 -10 0 -10 -12 -33 -27 -52 -16 -18 -35 -34 -43 -34 -9 0 -31 -11 -50 -24 -19 -12 -52 -29 -73 -35 -21 -7 -44 -10 -53 -7 -8 3 -29 -3 -47 -14 -17 -11 -40 -20 -50 -20 -9 0 -43 -14 -75 -32 -31 -18 -59 -35 -62 -38 -3 -4 -21 -14 -40 -24 -19 -10 -54 -24 -77 -32 -22 -8 -48 -11 -57 -8 -9 3 -16 1 -16 -4 0 -6 8 -12 18 -15 12 -3 8 -6 -13 -12 -16 -5 -76 -30 -131 -57 -56 -26 -105 -48 -109 -48 -5 0 -15 -7 -24 -15 -9 -8 -38 -33 -64 -55 -26 -22 -60 -43 -75 -46 -15 -3 -43 -11 -62 -16 -19 -6 -46 -18 -60 -28 -14 -9 -49 -26 -79 -38 -29 -12 -60 -22 -67 -22 -7 0 -32 -18 -56 -40 -24 -22 -71 -54 -106 -71 -34 -17 -70 -29 -80 -28 -9 2 -36 -9 -59 -24 -23 -14 -45 -32 -50 -39 -4 -7 -27 -26 -50 -41 -24 -15 -49 -27 -57 -27 -8 0 -32 -15 -53 -33 -22 -18 -73 -49 -114 -69 -41 -20 -108 -52 -150 -72 -42 -20 -82 -36 -89 -36 -7 0 -27 -11 -44 -23 -17 -13 -49 -30 -71 -37 -22 -7 -60 -30 -85 -51 -25 -22 -53 -46 -62 -54 -9 -7 -31 -21 -47 -30 -17 -8 -31 -19 -31 -24 0 -4 -18 -16 -40 -26 -22 -10 -45 -24 -51 -31 -6 -8 -34 -25 -62 -38 -29 -14 -67 -34 -86 -45 -18 -11 -43 -29 -55 -39 -11 -11 -56 -34 -99 -52 -42 -18 -89 -45 -105 -61 -15 -16 -71 -60 -125 -97 -54 -37 -121 -82 -150 -99 -28 -18 -61 -33 -73 -33 -12 0 -42 -18 -67 -40 -25 -23 -89 -61 -141 -85 -52 -25 -97 -49 -100 -54 -3 -5 -16 -11 -29 -15 -13 -3 -58 -28 -100 -56 -42 -28 -80 -49 -84 -48 -4 1 -40 -14 -78 -33 -39 -19 -82 -42 -95 -52 -13 -9 -31 -17 -40 -17 -8 0 -21 -9 -27 -19 -8 -12 -34 -24 -69 -32 -32 -7 -52 -15 -46 -17 8 -2 9 -9 2 -22 -5 -10 -21 -21 -36 -24 -15 -4 -41 -18 -58 -31 -17 -13 -51 -33 -76 -44 -25 -12 -65 -36 -90 -55 -25 -19 -50 -35 -56 -35 -5 -1 -23 -15 -40 -32 -16 -17 -46 -41 -68 -52 -21 -12 -53 -30 -70 -39 -18 -9 -38 -23 -45 -32 -8 -9 -19 -16 -27 -16 -7 0 -22 -14 -34 -30 -12 -17 -36 -38 -53 -47 -18 -8 -50 -31 -72 -49 -22 -18 -53 -44 -70 -58 -16 -13 -49 -41 -71 -60 -23 -20 -45 -36 -49 -36 -4 0 -20 -11 -37 -25 -16 -14 -36 -25 -43 -25 -8 0 -23 -13 -35 -29 -11 -17 -46 -42 -78 -56 -31 -15 -82 -51 -112 -80 -30 -29 -88 -76 -128 -104 -39 -28 -83 -51 -95 -51 -13 0 -33 -10 -44 -22 -11 -13 -23 -31 -26 -40 -3 -9 -24 -22 -46 -28 -25 -6 -48 -22 -61 -40 -12 -17 -26 -30 -32 -30 -5 0 -42 -33 -82 -72 -39 -40 -85 -80 -102 -89 -26 -14 -33 -25 -38 -62 -4 -25 -13 -48 -22 -51 -7 -3 -35 -1 -62 4 -36 6 -51 5 -63 -6 -8 -8 -23 -14 -32 -14 -10 0 -50 -26 -90 -58 -39 -32 -100 -85 -134 -119 -34 -33 -88 -77 -120 -99 -32 -21 -78 -58 -102 -81 -24 -24 -74 -64 -111 -89 -37 -24 -78 -56 -90 -69 -13 -14 -29 -25 -35 -25 -7 0 -20 -9 -30 -20 -10 -11 -24 -20 -32 -20 -8 0 -27 -14 -42 -31 -26 -28 -31 -29 -51 -17 -19 11 -23 11 -36 -7 -8 -11 -25 -36 -37 -55 -19 -30 -29 -35 -64 -38 -30 -2 -40 -7 -37 -16 3 -8 -20 -39 -51 -71 -31 -31 -69 -62 -83 -68 -15 -7 -58 -37 -96 -67 -38 -30 -95 -81 -127 -112 -32 -32 -76 -66 -98 -77 -21 -11 -47 -31 -57 -44 -11 -13 -45 -43 -76 -67 -32 -23 -58 -48 -58 -54 0 -7 -17 -28 -37 -48 -21 -19 -51 -39 -67 -42 -16 -4 -40 -20 -55 -35 -14 -15 -46 -65 -70 -110 -31 -58 -54 -87 -75 -98 -17 -9 -38 -25 -46 -37 -8 -12 -32 -37 -53 -56 -22 -19 -62 -66 -90 -104 -29 -37 -60 -82 -69 -98 -9 -17 -43 -58 -75 -91 -32 -33 -75 -78 -95 -100 -21 -22 -38 -43 -38 -47 0 -5 -10 -21 -23 -37 -13 -15 -36 -50 -51 -76 -15 -26 -38 -53 -52 -59 -13 -6 -24 -14 -24 -18 0 -4 -15 -23 -33 -42 -17 -19 -48 -55 -67 -79 -19 -24 -35 -55 -36 -69 0 -14 -3 -43 -7 -65 -4 -22 -3 -80 2 -130 6 -60 20 -117 41 -170 18 -44 44 -92 58 -108 14 -15 44 -36 66 -47 23 -11 60 -37 83 -59 24 -21 43 -48 43 -59 0 -11 6 -25 14 -31 7 -6 35 -23 62 -37 26 -14 71 -35 99 -45 27 -11 95 -27 149 -35 79 -12 105 -13 128 -3 23 9 40 9 83 -1 40 -10 61 -10 85 -1 18 6 75 11 126 11 68 0 104 5 137 19 36 16 52 17 97 9 29 -5 87 -8 129 -6 42 2 105 12 141 21 36 10 77 24 92 32 14 8 36 15 47 15 12 0 56 16 97 36 53 25 94 37 134 40 46 2 64 9 84 29 14 14 34 25 45 25 11 0 47 16 81 36 33 19 89 57 124 84 56 43 72 50 137 59 41 6 92 17 114 25 22 9 47 15 55 16 9 0 50 23 92 50 42 28 81 50 86 50 5 0 21 9 35 20 14 11 44 27 67 35 23 8 61 28 84 43 23 16 54 32 68 35 15 4 40 18 56 32 17 14 34 25 39 25 5 0 23 14 41 30 18 17 37 30 42 30 5 0 47 17 92 39 46 21 104 48 130 59 25 12 49 26 53 32 3 5 15 10 25 10 10 0 25 8 32 18 7 9 40 36 73 58 33 23 83 51 110 62 28 11 76 25 108 32 52 10 59 15 75 48 12 26 31 44 67 62 28 14 70 38 95 54 25 16 56 39 70 51 14 13 42 28 62 33 20 6 43 15 50 21 7 6 31 23 53 38 22 14 66 40 98 57 32 17 70 38 86 46 15 9 50 32 77 52 27 19 65 43 84 52 19 9 63 40 97 70 34 29 76 64 95 77 18 13 37 29 41 36 4 7 15 13 23 13 8 0 26 7 39 16 14 9 33 13 45 9 11 -3 20 -2 20 3 0 6 -6 13 -12 16 -9 3 -5 11 12 25 14 11 32 27 40 36 8 8 26 27 39 40 13 14 32 25 41 25 9 0 25 9 36 21 10 11 32 26 49 33 16 7 47 11 68 8 24 -3 46 2 62 12 14 9 25 25 25 35 0 10 24 39 53 63 28 25 76 61 105 81 29 20 63 39 75 43 12 3 29 12 37 19 8 7 28 15 44 17 16 2 34 12 40 23 6 11 16 23 21 27 6 4 20 8 33 8 12 0 22 4 22 10 0 5 15 16 33 24 18 7 40 25 49 39 10 14 37 32 64 41 26 9 61 26 78 39 17 13 50 33 74 45 23 11 71 37 107 58 35 20 69 47 75 60 7 12 38 35 69 50 31 16 62 36 69 46 7 10 37 30 65 45 30 15 77 53 110 89 32 35 66 64 76 64 9 0 31 16 50 35 18 19 38 35 46 35 7 0 27 14 44 32 17 17 31 37 31 44 0 6 10 18 23 26 12 8 54 24 93 36 39 12 81 33 92 45 12 13 22 31 22 39 0 9 12 30 26 47 14 17 31 31 38 31 7 0 21 9 31 20 10 11 24 20 32 20 7 0 39 17 71 38 31 21 77 47 102 57 25 10 55 28 68 39 12 11 22 25 22 32 0 7 10 19 23 25 12 7 31 20 42 31 11 10 37 34 57 53 21 19 41 35 46 35 5 0 14 11 20 25 7 15 8 25 2 25 -6 0 -10 8 -10 18 0 9 28 47 63 84 34 36 81 88 104 115 24 26 50 58 58 70 10 14 31 25 55 29 31 5 39 11 43 34 4 17 19 35 40 48 22 12 39 33 46 54 6 18 28 46 49 61 20 15 60 50 87 78 28 27 65 64 83 82 19 18 42 48 53 68 10 20 25 39 34 43 8 3 20 17 25 31 5 14 17 25 25 25 9 0 33 9 55 20 21 11 83 64 138 119 54 54 108 102 120 105 12 4 40 35 63 69 22 34 62 79 88 100 27 21 95 83 152 137 57 55 108 100 113 100 4 0 21 11 38 25 16 14 27 25 24 25 -4 0 1 12 11 28 10 15 38 48 63 73 25 25 62 73 83 106 20 33 37 66 37 73 0 9 10 11 30 6 24 -4 32 -2 38 13 4 10 29 42 55 70 26 28 52 51 56 51 5 0 18 16 30 35 11 20 28 35 39 35 10 0 28 9 40 20 12 12 22 30 22 42 0 13 20 40 49 67 27 25 60 66 73 91 13 25 43 66 67 90 23 25 61 71 82 103 22 31 43 57 48 57 5 0 23 28 41 63 19 34 40 68 47 75 7 7 13 17 13 22 0 5 8 11 18 14 10 4 44 36 75 72 31 36 60 78 64 92 3 15 19 43 35 63 16 20 40 42 53 49 14 7 37 31 52 54 15 23 48 66 74 96 25 30 49 63 52 73 4 9 15 17 25 17 11 0 30 16 45 38 14 20 50 63 81 95 30 32 64 78 75 103 11 24 34 59 51 76 17 17 50 57 73 90 23 33 52 74 65 91 13 18 45 54 73 80 27 27 66 73 86 103 31 47 43 56 86 69 28 8 55 15 61 15 6 0 42 16 80 35 40 20 84 35 105 35 20 0 59 12 86 25 28 14 62 25 76 25 14 0 44 9 67 20 23 11 65 25 94 30 28 6 59 17 69 26 10 9 44 18 81 21 36 4 74 14 88 24 18 13 60 21 142 29 65 6 122 9 127 5 5 -3 12 -1 16 5 3 5 31 10 61 10 34 0 72 8 99 20 24 11 50 18 57 15 7 -3 35 1 62 9 30 9 67 13 97 9 28 -3 54 -1 61 5 7 5 40 15 73 22 33 7 69 16 80 20 11 5 34 12 50 16 17 4 39 7 50 8 14 1 20 8 20 26 0 23 -4 25 -46 28 -25 2 -88 -6 -140 -18 -52 -11 -128 -25 -171 -30 -48 -6 -89 -5 -112 1 -30 8 -40 7 -65 -12 -25 -18 -39 -21 -83 -16 -37 3 -59 1 -73 -9 -10 -8 -33 -14 -50 -14 -17 0 -40 -7 -52 -15 -16 -11 -34 -14 -63 -9 -23 4 -51 2 -63 -4 -12 -6 -45 -18 -73 -27 -29 -9 -59 -24 -69 -35 -16 -17 -19 -18 -49 -3 -30 14 -42 14 -127 -1 -52 -9 -118 -21 -147 -26 -30 -4 -62 -16 -71 -24 -11 -10 -36 -16 -69 -16 -29 0 -52 4 -52 9 0 5 16 21 35 35 19 15 35 32 35 38 0 6 14 26 30 45 17 18 30 40 30 47 0 8 13 25 29 38 15 13 32 36 37 50 5 15 54 75 109 135 55 59 109 117 120 129 12 11 27 25 35 30 8 5 28 26 44 48 16 21 48 52 72 69 24 17 46 38 49 46 3 9 25 31 48 48 23 18 66 57 94 85 29 29 76 77 105 107 29 29 69 64 88 77 19 13 44 39 54 58 10 19 36 47 57 61 21 14 43 25 48 25 5 0 20 15 34 33 14 18 54 60 89 94 34 33 88 82 118 107 30 26 71 63 90 81 20 19 67 54 105 79 39 25 84 55 100 66 17 12 62 45 101 73 39 29 82 57 95 64 13 6 37 14 52 18 17 3 31 15 37 30 5 14 13 25 18 25 5 0 26 15 48 33 21 19 65 48 96 65 42 24 70 32 106 32 27 0 71 7 98 15 27 9 87 20 134 25 47 5 144 16 215 24 72 8 146 19 165 25 19 5 57 17 83 25 27 9 58 24 70 35 12 11 39 34 60 52 21 17 45 45 53 60 7 15 14 48 14 72 0 37 -8 55 -44 105 -24 33 -49 62 -54 66 -5 3 -81 -1 -168 -10 -127 -12 -169 -20 -209 -39 -30 -14 -74 -25 -110 -28 -40 -2 -84 -14 -130 -35 -38 -18 -92 -44 -120 -59 -27 -14 -63 -38 -80 -52 -16 -15 -48 -39 -70 -54 -22 -15 -55 -39 -74 -52 -19 -14 -44 -25 -57 -25 -12 0 -24 -5 -26 -11 -2 -6 -22 -18 -43 -26 -22 -8 -71 -18 -109 -23 -46 -7 -77 -17 -91 -30 -12 -11 -28 -20 -37 -20 -9 0 -22 9 -29 20 -13 17 -20 19 -81 11 -36 -5 -95 -6 -131 -4 -36 3 -79 1 -96 -5 -17 -6 -33 -7 -36 -2 -3 5 -63 9 -133 9 -70 0 -176 5 -237 11 -60 7 -118 16 -127 21 -10 5 -29 7 -43 3 -19 -5 -30 -1 -39 11 -10 14 -35 20 -105 25 -50 5 -98 13 -105 19 -7 6 -40 13 -73 15 -33 2 -70 9 -83 16 -13 7 -42 30 -66 52 -36 33 -44 47 -44 76 0 22 11 53 30 82 21 33 32 65 36 107 l7 61 -43 46 c-23 25 -48 46 -56 46 -7 0 -19 6 -26 13 -7 7 -20 16 -28 19 -9 3 -28 -4 -43 -16z m1596 -732 c16 -9 13 -14 -29 -47 -26 -20 -53 -37 -61 -37 -7 0 -39 -24 -71 -54 -31 -30 -75 -68 -97 -84 -22 -16 -49 -39 -60 -52 -11 -12 -32 -28 -46 -34 -15 -6 -51 -32 -80 -58 -30 -26 -85 -71 -124 -100 -38 -29 -79 -60 -91 -68 -12 -8 -40 -30 -64 -47 -24 -18 -54 -33 -67 -33 -15 0 -37 -13 -53 -30 -16 -17 -37 -47 -47 -68 -11 -24 -26 -38 -41 -40 -12 -2 -34 -19 -49 -39 -15 -20 -57 -59 -93 -88 -36 -29 -79 -59 -95 -68 -17 -9 -95 -86 -175 -172 -80 -86 -160 -165 -177 -176 -18 -11 -33 -24 -33 -29 0 -4 -12 -23 -27 -41 -16 -18 -57 -62 -93 -99 -36 -36 -76 -73 -90 -82 -14 -8 -56 -44 -94 -79 -38 -35 -91 -88 -119 -116 -28 -29 -57 -53 -66 -53 -9 -1 -34 -26 -55 -56 -22 -30 -54 -62 -72 -70 -18 -9 -56 -42 -86 -73 -29 -32 -65 -73 -80 -92 -15 -19 -33 -41 -40 -50 -7 -9 -27 -25 -43 -37 -17 -11 -49 -23 -70 -27 -22 -4 -58 -14 -80 -22 -22 -9 -65 -17 -95 -19 -30 -1 -75 -8 -100 -15 -25 -6 -54 -15 -65 -19 -11 -4 -38 -14 -60 -22 -22 -9 -98 -34 -170 -57 -71 -23 -140 -41 -152 -41 -12 0 -24 -4 -27 -9 -3 -4 -21 -11 -40 -14 -19 -3 -48 -15 -64 -27 -23 -17 -44 -22 -90 -23 -40 0 -59 -4 -56 -11 2 -6 -9 -19 -25 -29 -16 -9 -47 -17 -69 -17 -22 0 -45 -6 -51 -14 -6 -7 -29 -13 -51 -13 -22 0 -40 4 -40 9 0 5 25 35 55 66 30 31 55 60 55 64 0 4 13 23 30 41 16 19 43 40 60 47 19 8 33 22 37 39 3 14 22 45 42 67 20 23 48 58 62 78 14 19 102 115 195 213 93 97 189 198 214 224 25 27 53 56 62 66 9 10 59 68 111 128 51 61 108 133 125 160 18 28 55 75 82 105 27 30 68 78 91 105 22 28 69 82 104 120 35 39 89 99 120 135 32 36 76 92 98 125 22 33 46 65 53 70 6 6 46 63 89 129 42 65 100 151 129 190 29 39 70 96 91 126 21 30 48 79 60 109 l21 54 64 14 c36 7 92 13 125 12 33 -1 80 4 105 11 25 7 67 10 94 7 28 -2 63 -1 79 4 16 5 91 13 167 19 76 5 245 13 376 16 131 3 240 7 242 8 1 2 107 2 235 2 135 -1 240 -6 250 -12z m-2713 -2427 c0 -8 -9 -22 -19 -31 -11 -10 -21 -30 -23 -44 -2 -17 -11 -28 -30 -34 -15 -5 -54 -35 -87 -66 -33 -31 -72 -79 -86 -107 -14 -27 -35 -60 -47 -72 -12 -13 -27 -23 -33 -23 -7 0 -32 -15 -57 -34 -25 -19 -51 -48 -58 -65 -7 -17 -15 -31 -19 -31 -4 0 -12 5 -19 12 -9 9 -13 7 -18 -8 -4 -10 -20 -32 -36 -48 -15 -17 -28 -35 -28 -42 0 -6 -6 -24 -14 -39 -8 -15 -29 -40 -48 -56 -18 -15 -39 -28 -47 -29 -7 0 -22 -11 -33 -25 -11 -14 -37 -35 -59 -45 -21 -11 -39 -26 -39 -33 0 -7 -20 -32 -44 -56 -26 -25 -46 -55 -48 -70 -2 -20 -9 -27 -31 -29 -19 -2 -31 -11 -37 -28 -5 -13 -14 -24 -20 -24 -6 0 -15 -12 -21 -27 -5 -16 -24 -37 -42 -47 -17 -10 -44 -25 -60 -33 -15 -8 -32 -23 -38 -34 -5 -11 -20 -25 -32 -30 -12 -6 -36 -18 -54 -28 -18 -10 -64 -50 -103 -90 -39 -39 -75 -71 -80 -71 -6 0 -10 7 -10 15 0 8 -5 15 -10 15 -6 0 -8 -11 -4 -25 4 -18 0 -30 -20 -48 -14 -13 -26 -31 -26 -40 0 -8 -12 -18 -27 -22 -16 -4 -22 -10 -15 -12 6 -3 12 -12 12 -20 0 -8 -12 -30 -27 -47 -16 -18 -41 -49 -57 -69 -15 -20 -33 -37 -40 -37 -6 0 -33 -25 -60 -55 -26 -30 -55 -55 -62 -55 -8 0 -19 -11 -24 -25 -5 -13 -20 -27 -34 -31 -13 -3 -35 -22 -49 -42 -13 -21 -39 -62 -57 -93 -18 -31 -58 -82 -89 -115 -31 -32 -81 -81 -112 -108 -32 -27 -80 -57 -109 -67 -29 -10 -58 -26 -66 -36 -7 -10 -14 -21 -14 -25 0 -4 -14 -15 -31 -24 -18 -9 -66 -43 -108 -76 -42 -33 -80 -68 -86 -77 -5 -9 -29 -41 -51 -71 -23 -30 -65 -79 -95 -109 -43 -44 -53 -60 -53 -88 0 -23 6 -38 17 -44 9 -6 17 -20 17 -33 0 -12 -15 -37 -35 -56 -19 -19 -35 -40 -35 -46 0 -7 -15 -20 -32 -28 -18 -8 -49 -17 -70 -20 -24 -5 -37 -3 -40 6 -3 9 -17 8 -59 -5 -30 -10 -66 -25 -80 -35 -14 -9 -52 -45 -84 -79 -33 -35 -64 -63 -71 -63 -6 0 -23 -15 -38 -34 -14 -19 -32 -62 -40 -94 -8 -33 -17 -66 -21 -72 -5 -8 -19 -10 -39 -5 -17 3 -47 9 -67 11 -21 4 -50 0 -72 -9 -27 -12 -42 -28 -62 -66 -14 -28 -32 -51 -41 -51 -8 0 -22 -16 -30 -35 -8 -19 -21 -35 -29 -35 -8 0 -20 -10 -26 -22 -7 -13 -18 -27 -25 -31 -8 -4 -14 -18 -14 -29 0 -12 -12 -35 -27 -50 -15 -15 -35 -28 -45 -28 -11 0 -18 -7 -18 -20 0 -12 -9 -38 -20 -60 -11 -21 -29 -41 -40 -45 -11 -3 -32 -23 -47 -43 -15 -20 -42 -51 -61 -69 -19 -18 -59 -44 -89 -58 -31 -14 -61 -25 -67 -25 -6 0 -19 -9 -29 -20 -9 -11 -29 -20 -44 -20 -16 0 -39 -7 -53 -15 -14 -8 -35 -19 -48 -25 -13 -5 -46 -21 -75 -34 -29 -13 -69 -31 -91 -40 -21 -9 -49 -16 -62 -16 -14 0 -48 -16 -77 -35 -28 -19 -59 -42 -67 -51 -8 -10 -24 -26 -35 -36 -11 -11 -56 -48 -100 -84 -44 -35 -90 -72 -103 -82 -13 -9 -32 -34 -43 -54 -10 -21 -33 -45 -50 -54 -17 -8 -37 -13 -45 -10 -10 4 -42 -23 -91 -73 -54 -56 -89 -84 -122 -97 -25 -9 -62 -31 -83 -48 -20 -17 -51 -40 -70 -52 -19 -11 -32 -27 -30 -36 2 -12 -3 -15 -18 -11 -13 3 -22 -1 -26 -11 -5 -12 -10 -14 -20 -6 -9 8 -19 8 -34 0 -11 -6 -25 -22 -30 -35 -8 -22 -13 -24 -36 -15 -18 7 -32 7 -48 -2 -13 -7 -61 -42 -107 -77 -59 -45 -84 -70 -84 -85 0 -12 -17 -37 -40 -57 -22 -20 -51 -40 -64 -44 -14 -4 -61 -31 -105 -60 -45 -29 -98 -68 -119 -85 -20 -18 -57 -63 -82 -100 l-45 -68 -44 5 c-35 4 -53 0 -83 -17 -21 -13 -56 -42 -78 -64 -22 -23 -54 -50 -70 -61 -16 -11 -43 -34 -60 -52 -16 -17 -58 -49 -93 -71 -34 -22 -97 -72 -140 -110 -42 -38 -90 -77 -107 -86 -16 -9 -37 -20 -45 -25 -8 -5 -35 -15 -60 -22 -25 -7 -61 -21 -80 -32 -19 -11 -48 -33 -63 -48 -15 -15 -41 -31 -57 -34 -16 -4 -41 -16 -55 -27 -18 -14 -35 -19 -55 -15 -19 4 -32 1 -41 -9 -7 -9 -29 -24 -49 -34 -19 -10 -41 -29 -47 -42 -6 -12 -14 -31 -17 -41 -3 -9 -15 -17 -26 -17 -11 0 -40 -18 -64 -40 -24 -22 -47 -40 -51 -40 -4 0 -32 -16 -62 -36 -55 -36 -56 -36 -132 -30 -70 6 -79 5 -96 -13 -11 -13 -31 -21 -50 -21 -17 0 -63 -16 -102 -35 -39 -19 -81 -35 -92 -35 -13 0 -30 -14 -45 -38 -13 -22 -32 -46 -41 -55 -9 -10 -29 -17 -44 -17 -15 0 -42 -11 -61 -25 -20 -15 -47 -25 -66 -25 -18 0 -36 -4 -39 -10 -3 -5 -19 -10 -34 -10 -16 0 -47 -6 -69 -14 -22 -8 -50 -12 -61 -9 -11 3 -40 -4 -63 -14 -24 -11 -55 -25 -71 -31 -15 -7 -26 -17 -25 -24 2 -7 -17 -17 -45 -24 -27 -7 -54 -17 -61 -23 -7 -6 -39 -13 -72 -17 -32 -4 -69 -14 -82 -22 -12 -8 -34 -12 -49 -9 -15 3 -37 -2 -50 -10 -20 -13 -28 -14 -48 -3 -20 11 -30 9 -79 -15 -30 -15 -61 -34 -68 -42 -7 -9 -22 -13 -39 -9 -15 3 -64 1 -109 -4 -50 -6 -111 -6 -158 0 -42 5 -103 17 -135 27 -47 15 -57 22 -57 40 0 12 5 25 10 28 6 3 10 15 10 26 0 10 -4 19 -9 19 -5 0 -14 -7 -21 -15 -7 -8 -18 -15 -25 -15 -7 0 -15 6 -18 14 -3 8 -3 17 0 20 4 3 14 6 24 6 9 0 20 7 23 16 3 9 6 26 6 38 0 13 -8 34 -19 47 -10 13 -20 33 -22 44 -3 15 -14 21 -44 25 -35 5 -40 8 -47 40 -4 19 -12 74 -17 123 l-10 88 40 85 c21 47 39 92 39 100 0 7 11 23 25 36 13 13 46 66 72 118 45 90 51 96 100 120 52 25 53 25 47 62 -5 35 -3 39 29 58 26 15 40 34 51 67 9 25 27 58 40 72 13 14 39 42 58 62 18 20 51 57 72 83 20 25 42 46 48 46 6 0 20 7 30 17 10 9 18 24 18 34 0 11 14 26 32 35 18 9 52 34 75 55 24 22 49 39 57 39 9 0 68 50 133 111 65 61 138 131 163 155 25 23 58 46 75 50 16 4 52 25 78 46 27 21 56 38 65 38 8 0 50 33 91 74 42 40 103 88 136 105 33 17 76 43 95 56 19 13 62 51 95 83 33 32 89 79 124 103 35 24 85 59 110 76 25 18 51 33 56 33 6 0 30 16 54 35 24 19 48 35 53 35 6 0 22 8 36 19 15 10 40 21 57 25 16 4 56 25 89 47 32 21 62 39 66 39 4 0 36 14 71 32 35 17 65 35 67 39 2 5 13 20 25 35 12 15 29 55 37 88 15 56 20 63 60 84 24 13 61 37 82 53 25 20 56 34 91 39 28 5 70 13 92 19 22 6 55 11 74 11 29 0 47 13 126 89 50 49 110 100 132 114 22 14 64 53 95 86 30 34 61 61 69 61 8 0 37 11 64 24 28 13 77 43 110 68 33 25 72 48 87 52 15 3 48 25 74 47 27 23 56 52 66 64 9 12 42 33 73 45 32 13 61 32 68 45 7 13 41 46 76 74 35 28 76 54 90 58 14 3 35 13 46 23 11 9 45 33 75 52 30 18 80 44 110 57 30 13 69 40 87 60 18 20 49 53 70 74 21 20 40 37 44 37 4 0 36 17 70 38 35 21 109 62 164 91 55 29 111 63 126 77 14 13 28 24 32 24 3 0 26 13 49 29 24 17 67 39 94 50 28 11 73 33 99 50 27 17 55 31 62 31 7 0 27 16 44 35 18 19 36 35 41 35 5 0 24 11 42 25 18 14 35 25 39 25 3 0 49 29 103 65 54 36 105 65 113 65 8 0 52 25 98 57 46 31 88 62 94 70 6 7 16 13 21 13 5 0 43 25 84 56 40 31 76 60 80 65 3 5 19 9 36 9 24 0 42 12 82 52 28 28 79 71 114 95 34 24 98 59 141 78 43 18 100 49 125 69 26 20 52 36 57 36 5 0 28 17 52 38 23 21 58 50 79 65 20 14 60 35 90 46 29 10 65 22 81 25 15 4 35 14 45 24 9 9 28 22 42 28 14 7 45 29 70 50 25 22 59 45 75 53 17 7 40 18 52 24 11 7 49 29 84 50 34 21 76 41 93 44 17 2 56 15 86 26 30 12 70 32 88 46 18 13 49 27 70 31 20 5 61 17 91 29 29 11 61 26 70 34 9 7 27 18 41 24 14 7 62 28 108 47 46 20 93 36 106 36 13 0 34 11 47 24 13 13 34 27 47 30 18 6 31 0 64 -32 36 -36 45 -40 77 -34 25 4 51 21 90 59 30 30 67 56 81 59 14 3 35 9 47 14 12 5 34 28 48 50 17 27 41 48 68 61 23 10 52 19 65 19 12 0 22 6 22 13 0 7 19 31 43 54 23 23 62 49 86 59 25 10 70 33 100 51 31 19 67 36 81 39 14 3 35 10 48 15 13 5 30 9 39 9 9 0 35 16 59 35 23 19 48 35 56 35 7 0 46 16 87 35 40 19 88 35 107 35 19 0 45 6 57 14 12 8 60 24 107 36 47 12 94 30 106 41 13 12 35 19 61 19 22 0 66 9 98 20 32 11 78 20 102 20 24 0 51 4 61 9 9 5 31 13 47 19 17 5 33 10 38 11 4 1 7 -5 7 -12z"
       id="path6541"
       style="fill:#626262;fill-opacity:1" />
    <path
       d="M17208 10590 c-16 -5 -58 -25 -95 -46 -38 -20 -99 -62 -138 -92 -38 -31 -82 -69 -97 -84 -15 -15 -32 -28 -39 -28 -6 0 -62 -45 -124 -100 -62 -54 -124 -102 -137 -105 -14 -4 -35 -20 -47 -36 -12 -16 -34 -35 -49 -43 -17 -9 -34 -11 -42 -6 -8 5 -22 4 -32 -1 -12 -6 -17 -17 -14 -27 3 -9 2 -22 -2 -28 -4 -5 -24 -23 -45 -39 -21 -15 -60 -38 -86 -50 -34 -16 -52 -32 -65 -59 -9 -19 -26 -41 -38 -47 -11 -6 -48 -36 -82 -66 -33 -30 -77 -69 -96 -87 -19 -18 -53 -46 -75 -62 -22 -16 -69 -58 -105 -94 -36 -36 -104 -101 -152 -144 -47 -43 -91 -88 -98 -100 -6 -12 -41 -43 -77 -70 -37 -27 -82 -55 -102 -62 -19 -6 -39 -18 -45 -27 -6 -8 -36 -25 -66 -37 -30 -13 -69 -34 -87 -47 -17 -12 -43 -23 -57 -23 -13 0 -37 -5 -52 -10 -14 -6 -35 -22 -46 -35 -15 -19 -29 -25 -57 -25 -22 0 -49 -8 -62 -19 -13 -10 -35 -21 -49 -24 -14 -3 -47 -12 -75 -20 -27 -9 -66 -21 -85 -28 -19 -8 -54 -26 -78 -41 -24 -15 -53 -28 -66 -28 -13 0 -57 -8 -98 -19 -40 -10 -83 -23 -94 -29 -12 -6 -41 -18 -65 -27 -24 -9 -71 -23 -104 -32 -33 -8 -91 -18 -130 -22 -38 -4 -79 -11 -90 -16 -11 -4 -32 -16 -46 -26 -14 -10 -56 -29 -94 -44 -37 -14 -73 -24 -79 -23 -6 1 -28 -2 -49 -7 -25 -5 -42 -4 -50 4 -6 6 -38 11 -71 11 -44 0 -70 -6 -91 -20 -16 -11 -61 -49 -100 -85 -38 -35 -94 -83 -124 -106 -45 -35 -62 -42 -115 -46 -33 -3 -68 -11 -76 -19 -8 -7 -27 -15 -42 -19 -15 -4 -32 -13 -38 -21 -7 -7 -9 -18 -5 -24 3 -5 24 -10 46 -10 32 0 39 -4 39 -19 0 -10 -11 -26 -25 -35 -14 -9 -47 -38 -74 -64 -27 -26 -90 -86 -140 -134 -51 -49 -98 -88 -105 -88 -7 0 -25 -10 -40 -22 -15 -13 -46 -40 -68 -60 -23 -21 -46 -38 -53 -38 -6 0 -29 -21 -50 -46 -22 -25 -49 -60 -61 -77 -12 -18 -42 -50 -67 -72 -25 -22 -77 -67 -116 -100 -39 -33 -71 -66 -71 -72 0 -7 -13 -19 -30 -28 -16 -9 -30 -19 -30 -23 0 -5 -26 -36 -58 -70 -32 -34 -65 -62 -74 -62 -8 0 -26 -12 -39 -27 -14 -16 -56 -55 -93 -88 -38 -33 -72 -62 -76 -65 -4 -3 -14 -18 -23 -35 -8 -16 -33 -45 -56 -63 -23 -18 -41 -39 -41 -46 0 -7 -30 -46 -68 -87 -37 -41 -83 -96 -101 -122 -19 -26 -40 -47 -47 -47 -8 0 -22 -17 -33 -37 -10 -21 -30 -50 -44 -65 -15 -16 -30 -28 -35 -28 -5 0 -14 -11 -20 -25 -7 -14 -31 -47 -55 -73 -24 -26 -51 -59 -60 -75 -10 -15 -35 -38 -57 -52 -31 -20 -40 -31 -40 -53 0 -18 -19 -56 -51 -103 -29 -41 -61 -94 -73 -119 -12 -25 -30 -58 -40 -73 -16 -23 -18 -39 -13 -101 4 -40 9 -80 12 -89 4 -8 16 -18 28 -21 12 -3 48 -6 79 -6 48 0 74 8 151 45 52 25 100 45 107 45 8 0 23 9 34 19 12 11 49 29 83 40 34 12 82 21 107 21 30 0 67 11 117 36 56 27 95 58 160 123 48 47 93 91 100 98 8 6 37 37 64 68 28 32 53 62 57 69 4 6 50 55 102 109 53 54 96 103 96 109 0 6 29 38 65 71 36 33 65 64 65 69 0 5 30 37 67 71 37 34 82 77 100 95 19 17 37 32 41 32 4 0 16 15 25 33 10 17 58 68 107 112 56 50 92 90 96 107 4 16 21 37 40 49 19 11 37 32 40 45 4 15 51 62 119 119 62 51 131 104 154 116 26 13 51 37 66 64 14 23 25 52 25 64 0 12 7 32 15 45 12 17 14 37 9 79 -5 40 -15 65 -35 90 -16 20 -49 43 -74 53 -45 17 -46 16 -68 -4 -12 -12 -33 -43 -46 -69 -13 -26 -32 -65 -42 -85 -11 -20 -19 -42 -19 -49 0 -6 -21 -40 -47 -75 -27 -34 -67 -75 -90 -90 -24 -15 -43 -33 -43 -40 0 -7 -12 -22 -27 -34 -22 -17 -37 -21 -70 -17 -28 3 -43 1 -43 -7 0 -6 9 -17 20 -24 11 -7 20 -19 20 -27 0 -8 -6 -15 -14 -15 -7 0 -25 -11 -40 -25 -17 -16 -26 -34 -26 -54 0 -21 -14 -47 -45 -85 -25 -31 -45 -62 -45 -69 0 -8 -39 -51 -86 -95 -47 -45 -91 -82 -98 -82 -6 0 -20 -14 -30 -30 -9 -17 -36 -43 -59 -57 -23 -14 -68 -49 -99 -76 -31 -28 -59 -61 -62 -73 -4 -13 -36 -48 -74 -79 -37 -31 -86 -74 -110 -96 -24 -21 -52 -39 -63 -39 -12 0 -19 -7 -19 -20 0 -11 -7 -23 -15 -26 -8 -3 -17 -14 -20 -25 -4 -10 -26 -32 -50 -49 -24 -17 -46 -26 -50 -21 -3 6 -1 37 4 70 5 32 21 81 35 108 14 26 26 56 26 65 0 9 25 37 56 62 31 26 64 46 74 46 10 0 23 7 30 15 9 11 10 18 1 29 -8 9 -8 22 -2 38 5 13 17 30 26 38 10 8 28 31 41 51 12 20 42 56 66 81 24 25 66 72 93 106 28 34 53 62 57 62 5 0 30 22 58 49 27 27 50 54 50 60 0 5 16 21 35 34 19 13 53 47 76 75 23 28 49 54 58 57 9 3 32 31 51 62 19 31 74 96 123 146 48 49 87 98 87 109 0 10 18 38 40 60 22 23 40 48 40 55 0 7 10 18 23 24 12 7 32 23 44 36 12 12 31 23 42 23 11 0 28 11 38 24 10 14 34 47 53 75 19 27 39 50 43 51 4 0 27 19 51 43 23 23 67 61 95 85 29 23 58 42 63 42 5 0 21 9 35 20 16 13 41 20 67 20 23 0 52 7 65 16 13 9 51 31 84 49 34 19 117 61 184 94 67 34 133 61 146 61 14 0 39 11 55 25 17 14 35 25 40 25 6 0 31 14 55 30 25 17 49 30 54 30 6 0 18 9 28 20 10 11 34 23 54 26 20 4 47 15 60 25 13 11 29 19 35 19 6 0 23 -7 39 -14 15 -8 27 -11 27 -7 0 5 11 16 25 25 14 10 38 19 53 21 15 1 47 12 72 23 25 11 63 24 85 30 22 6 67 20 99 31 33 12 82 21 110 21 28 1 62 7 76 15 14 8 34 14 46 15 11 0 30 11 42 25 12 14 33 25 46 25 24 0 24 -1 10 -27 -7 -16 -14 -40 -14 -55 0 -14 -10 -39 -23 -55 -13 -15 -26 -36 -30 -45 -3 -10 -12 -15 -19 -13 -8 3 -21 -8 -31 -25 -10 -16 -24 -30 -32 -30 -7 0 -27 -16 -43 -36 -17 -20 -47 -46 -68 -59 -22 -13 -77 -69 -124 -125 -54 -65 -109 -120 -150 -148 -36 -25 -67 -50 -69 -56 -2 -6 -17 -23 -33 -38 -15 -14 -28 -35 -28 -46 0 -11 -15 -40 -33 -64 -18 -23 -42 -47 -53 -53 -10 -5 -29 -17 -40 -25 -11 -8 -26 -26 -33 -39 -11 -19 -18 -22 -43 -17 -26 5 -29 3 -23 -14 3 -10 -1 -32 -9 -49 -9 -17 -32 -37 -56 -47 -22 -10 -40 -22 -40 -27 0 -5 -18 -31 -41 -58 -22 -27 -47 -49 -54 -49 -7 0 -33 -16 -57 -36 -23 -20 -46 -45 -50 -56 -6 -15 -15 -19 -35 -15 -16 2 -22 2 -15 0 6 -3 12 -8 12 -12 0 -3 -8 -14 -17 -23 -10 -9 -29 -28 -42 -42 -13 -14 -26 -26 -30 -26 -3 0 -15 15 -24 33 -18 33 -18 35 7 111 14 42 26 86 26 99 0 12 7 45 16 72 9 28 24 67 35 87 10 20 19 51 19 68 0 17 -5 40 -10 51 -6 11 -21 19 -35 19 -14 0 -25 4 -25 10 0 5 10 30 22 55 12 25 29 47 39 50 9 3 24 25 33 48 9 24 16 50 16 59 0 9 -4 20 -10 23 -5 3 -17 2 -26 -3 -8 -5 -24 -22 -34 -38 -11 -16 -56 -60 -101 -99 -77 -66 -83 -74 -101 -135 -10 -36 -21 -105 -24 -155 -5 -73 -3 -104 14 -165 11 -41 23 -104 27 -140 4 -36 12 -82 17 -103 11 -35 9 -40 -18 -68 -16 -18 -44 -38 -61 -45 -18 -8 -39 -27 -48 -44 -8 -16 -28 -36 -44 -44 -16 -9 -31 -22 -34 -31 -4 -8 -12 -15 -19 -15 -7 0 -25 -20 -41 -43 -15 -23 -50 -71 -77 -107 -27 -36 -68 -88 -91 -117 -23 -28 -52 -54 -65 -57 -13 -4 -31 -20 -39 -36 -8 -16 -39 -52 -67 -80 -28 -27 -55 -50 -59 -50 -4 0 -11 -9 -14 -20 -4 -11 -18 -27 -33 -35 -15 -7 -61 -47 -103 -87 -42 -40 -86 -91 -97 -113 -11 -22 -33 -49 -49 -61 -15 -12 -41 -40 -57 -62 -15 -23 -34 -59 -42 -82 -12 -33 -12 -54 -3 -103 8 -47 17 -67 36 -81 22 -17 30 -17 83 -6 32 7 63 9 69 6 6 -4 35 -9 66 -11 53 -4 56 -3 98 38 24 23 81 77 128 120 46 43 95 88 109 100 14 13 39 33 57 45 22 15 34 34 39 58 4 21 22 51 46 76 21 22 45 56 53 75 8 19 27 51 42 70 16 19 48 56 73 83 25 26 61 68 81 92 20 23 44 57 54 73 11 17 33 44 50 60 17 17 40 44 50 60 10 17 46 61 79 99 34 37 91 98 129 134 37 36 67 73 67 83 0 9 14 29 31 43 17 14 34 26 39 26 5 0 19 17 31 37 13 21 42 57 64 80 22 23 49 51 60 62 11 12 34 34 50 49 17 16 51 53 76 83 25 30 68 65 94 79 35 18 52 34 59 57 6 17 41 64 79 105 37 40 88 101 113 136 25 34 55 67 67 74 12 6 43 32 69 58 26 26 48 54 48 63 0 9 8 18 18 21 9 3 39 33 66 66 28 33 53 60 57 60 4 0 21 20 38 46 17 25 31 49 31 54 0 5 22 27 50 49 47 37 52 39 85 28 33 -10 38 -8 68 21 20 20 43 32 59 32 15 0 33 3 42 6 9 3 16 12 16 20 0 8 -9 19 -20 26 -11 7 -20 21 -20 31 0 10 -5 28 -11 40 -11 19 -4 28 63 92 41 38 78 80 82 92 4 12 16 25 26 28 11 4 24 4 29 1 5 -4 23 13 40 36 16 24 39 52 49 63 11 11 26 32 33 47 8 14 38 52 68 83 29 30 66 62 81 70 16 8 54 24 85 36 31 11 59 27 61 34 3 7 23 20 44 29 21 8 41 20 45 26 3 5 17 10 31 10 15 0 24 6 24 15 0 9 12 27 28 42 15 14 52 37 82 53 30 15 72 30 92 33 21 3 49 14 62 24 14 10 28 25 31 33 3 8 26 36 53 62 26 26 67 66 92 89 25 23 64 53 88 68 23 15 73 56 110 92 37 35 102 91 146 124 43 33 86 65 95 70 8 6 29 21 46 34 16 13 67 58 113 99 46 42 90 90 98 106 8 17 23 46 34 64 10 18 25 41 34 51 9 10 16 23 16 30 0 7 14 33 30 58 17 24 37 60 45 80 11 25 12 40 5 54 -6 10 -19 23 -30 29 -10 5 -22 10 -27 9 -4 0 -20 -4 -35 -9z"
       id="path6543"
       style="fill:#626262;fill-opacity:1" />
    <path
       d="M36685 10342 c-11 -2 -27 -10 -35 -17 -8 -7 -31 -20 -50 -29 -19 -8 -72 -27 -118 -40 -45 -14 -96 -34 -111 -46 -16 -11 -36 -20 -44 -20 -9 0 -18 -4 -21 -9 -3 -5 -21 -12 -39 -15 -18 -3 -56 -20 -83 -38 -27 -17 -69 -43 -94 -56 -25 -14 -58 -32 -75 -40 -16 -8 -55 -38 -86 -66 -31 -28 -82 -69 -113 -91 -31 -22 -71 -52 -87 -68 -16 -15 -52 -38 -79 -52 -27 -13 -51 -29 -55 -35 -4 -6 -38 -26 -76 -45 -38 -20 -69 -40 -69 -45 0 -6 -7 -18 -15 -27 -8 -10 -31 -37 -51 -60 -20 -24 -52 -53 -72 -65 -21 -12 -87 -72 -148 -133 -61 -62 -151 -145 -199 -186 -48 -41 -101 -84 -118 -96 -17 -13 -40 -32 -52 -43 -11 -11 -47 -42 -79 -70 -33 -28 -71 -66 -84 -84 -13 -18 -35 -39 -50 -47 -15 -7 -43 -30 -62 -50 -19 -20 -70 -61 -112 -92 -43 -32 -82 -57 -87 -57 -5 0 -43 -36 -83 -80 -40 -44 -89 -91 -108 -104 -19 -13 -85 -72 -145 -131 -61 -59 -121 -114 -135 -123 -14 -9 -47 -40 -73 -69 -27 -29 -71 -67 -98 -84 -27 -18 -55 -42 -63 -55 -8 -12 -44 -36 -79 -53 -36 -17 -71 -29 -79 -26 -9 4 -18 0 -21 -7 -3 -8 -41 -35 -86 -61 -44 -26 -83 -47 -87 -47 -3 0 -19 -10 -36 -21 -16 -12 -66 -35 -110 -50 -44 -16 -92 -29 -106 -29 -13 0 -53 -18 -88 -40 -35 -22 -70 -40 -79 -40 -9 0 -47 -16 -86 -35 -39 -19 -83 -44 -99 -55 -15 -11 -35 -20 -43 -20 -9 0 -19 -5 -22 -10 -4 -6 -23 -22 -43 -35 -21 -14 -47 -32 -59 -41 -12 -8 -52 -26 -90 -39 -37 -14 -76 -25 -85 -25 -9 0 -37 -18 -62 -39 -25 -22 -55 -42 -66 -46 -11 -3 -20 -11 -20 -16 0 -5 -15 -18 -32 -29 -18 -11 -43 -20 -56 -20 -13 0 -38 -11 -56 -25 -18 -14 -42 -25 -54 -25 -11 0 -23 -4 -26 -9 -3 -5 -39 -26 -78 -46 -40 -21 -95 -42 -122 -46 -27 -5 -56 -15 -66 -24 -9 -8 -28 -15 -43 -15 -14 0 -29 5 -32 10 -3 6 -15 10 -26 10 -10 0 -19 7 -19 15 0 8 20 28 45 45 25 17 45 38 45 46 0 8 10 19 23 24 12 5 36 24 52 42 17 18 47 58 68 89 20 30 82 102 137 158 55 56 100 106 100 110 0 4 -9 16 -19 25 -10 10 -27 16 -36 14 -10 -2 -20 3 -22 10 -3 8 8 12 35 12 23 0 45 -6 52 -15 7 -8 22 -15 34 -15 12 0 33 12 47 28 14 15 39 38 55 52 16 13 49 40 74 59 25 19 61 48 81 65 19 17 46 38 58 46 13 8 55 41 95 72 39 31 87 72 106 92 19 19 52 46 73 60 21 14 51 33 68 41 17 9 62 49 100 88 47 49 89 82 132 102 45 22 63 37 65 53 2 14 18 30 43 43 24 12 48 17 60 14 14 -5 25 -1 35 13 9 13 31 22 65 27 50 7 52 6 90 -34 33 -34 44 -40 68 -35 19 4 38 0 56 -12 26 -17 28 -17 40 -1 7 9 19 17 28 17 9 0 18 4 21 9 3 4 43 29 89 55 50 28 90 58 100 75 9 16 17 36 17 44 0 8 -9 34 -20 58 -11 24 -20 60 -20 79 -1 19 -7 58 -14 85 -11 43 -21 57 -71 95 l-58 45 -78 -2 c-43 -2 -96 -7 -116 -12 -21 -5 -78 -26 -128 -46 -49 -21 -103 -50 -120 -66 -16 -15 -46 -35 -65 -43 -19 -8 -45 -26 -57 -40 -13 -14 -31 -26 -41 -26 -10 0 -26 -13 -35 -30 -10 -16 -27 -35 -39 -41 -12 -6 -38 -29 -58 -50 -25 -27 -45 -39 -64 -39 -18 0 -35 -10 -49 -26 -12 -15 -34 -39 -48 -53 -15 -14 -46 -41 -69 -58 -23 -18 -48 -33 -55 -33 -6 0 -42 -26 -78 -58 -36 -32 -85 -65 -108 -72 -25 -9 -67 -38 -108 -77 -36 -34 -73 -63 -83 -63 -9 0 -36 -16 -60 -34 -23 -19 -57 -46 -74 -60 -18 -15 -41 -26 -51 -26 -11 0 -38 -13 -59 -30 -21 -16 -50 -38 -64 -49 -14 -10 -50 -35 -80 -55 -30 -20 -78 -53 -107 -74 -29 -21 -66 -57 -82 -80 -17 -23 -42 -48 -55 -57 -14 -9 -29 -30 -35 -46 -5 -16 -17 -32 -26 -35 -9 -4 -23 -21 -32 -38 -8 -17 -39 -56 -67 -87 -28 -31 -61 -71 -74 -90 -12 -19 -37 -56 -54 -84 -17 -27 -39 -63 -50 -78 -11 -16 -34 -49 -51 -74 -18 -25 -40 -57 -49 -72 -10 -14 -29 -47 -43 -73 -14 -26 -25 -59 -25 -73 0 -14 6 -41 14 -60 8 -18 24 -39 36 -45 12 -6 28 -26 35 -44 7 -17 22 -40 33 -49 11 -10 23 -29 26 -41 3 -12 17 -28 31 -34 14 -7 38 -12 52 -12 14 0 46 7 72 15 25 8 105 33 178 55 72 22 147 40 167 40 27 0 40 6 57 29 11 16 33 35 48 42 14 8 51 31 82 51 31 21 59 38 63 38 3 0 25 14 48 30 22 17 47 30 54 30 7 0 26 12 43 26 17 14 47 30 66 35 19 6 49 23 66 40 19 19 40 29 59 29 21 0 39 11 67 41 21 23 54 48 74 56 20 7 45 26 56 41 11 15 50 43 87 61 36 19 71 40 77 48 6 7 22 13 35 13 14 0 39 17 65 45 23 25 48 45 54 45 7 0 24 9 39 21 15 12 48 32 74 45 26 13 52 24 59 24 6 0 24 11 40 24 15 13 45 29 66 36 21 6 41 10 43 7 3 -3 -14 -24 -38 -47 -23 -24 -54 -48 -68 -54 -15 -6 -41 -22 -59 -36 -18 -14 -67 -57 -110 -97 -42 -40 -83 -78 -92 -85 -9 -7 -26 -27 -38 -45 -12 -17 -30 -35 -41 -38 -11 -4 -20 -13 -20 -21 0 -8 -17 -32 -37 -54 -21 -21 -48 -51 -60 -65 -13 -14 -23 -32 -23 -40 0 -9 10 -15 23 -15 12 0 39 -17 61 -37 27 -25 42 -50 52 -87 9 -33 24 -61 44 -78 21 -20 41 -28 66 -28 25 0 42 7 59 26 14 15 25 33 25 39 0 7 29 42 64 78 35 36 73 68 83 71 10 4 31 27 46 51 16 25 33 45 37 45 5 0 46 34 92 77 46 42 106 98 133 124 28 26 79 77 115 114 42 44 84 77 119 93 36 17 77 49 125 99 39 41 85 82 101 90 17 9 51 33 76 54 26 22 50 39 55 39 4 0 26 12 48 27 23 15 64 48 92 73 28 25 65 57 83 73 18 15 39 27 46 27 8 0 35 16 61 36 26 20 63 43 82 51 19 8 59 32 88 54 29 22 82 51 118 63 60 21 72 22 146 12 44 -5 80 -14 80 -19 0 -5 -33 -45 -72 -90 -40 -44 -89 -96 -108 -114 -19 -19 -63 -50 -98 -70 -41 -23 -77 -53 -100 -84 -20 -27 -40 -49 -44 -49 -4 0 -23 -11 -43 -24 -19 -14 -43 -33 -53 -44 -9 -10 -37 -27 -62 -37 -25 -11 -62 -33 -82 -50 -21 -18 -55 -40 -75 -50 -21 -10 -46 -22 -55 -26 -10 -5 -26 -9 -36 -9 -9 0 -26 -6 -37 -13 -11 -7 -40 -19 -64 -26 -25 -7 -59 -15 -75 -17 -17 -2 -46 -7 -64 -10 -18 -4 -39 -16 -47 -27 -8 -12 -15 -31 -15 -42 0 -12 6 -30 14 -41 12 -16 32 -20 118 -26 56 -3 117 -9 134 -13 19 -4 49 -1 78 9 44 15 50 15 81 0 27 -12 36 -24 41 -51 4 -22 0 -53 -10 -85 -9 -28 -16 -56 -16 -62 0 -6 -8 -23 -17 -36 -10 -14 -39 -69 -65 -123 -25 -54 -53 -106 -61 -115 -8 -10 -17 -30 -21 -46 -4 -16 -18 -43 -32 -61 -13 -17 -24 -39 -24 -48 0 -9 -18 -53 -40 -98 -22 -45 -44 -87 -49 -93 -5 -6 -12 -22 -16 -36 -4 -14 -15 -43 -25 -65 -10 -22 -28 -62 -40 -90 -12 -27 -27 -63 -34 -80 -8 -16 -25 -61 -38 -100 -14 -38 -33 -101 -43 -140 -10 -38 -24 -101 -31 -140 -7 -38 -14 -133 -15 -211 -1 -99 3 -156 14 -195 9 -30 20 -76 25 -104 5 -27 19 -72 30 -100 11 -27 25 -68 32 -90 7 -22 20 -49 30 -60 10 -11 23 -37 29 -57 7 -21 17 -40 22 -43 5 -4 9 -20 9 -36 0 -21 -6 -32 -22 -38 -13 -5 -61 -24 -108 -42 -47 -18 -112 -45 -144 -62 -54 -26 -65 -28 -123 -22 -35 4 -310 8 -611 10 -347 2 -560 8 -582 14 -19 6 -54 11 -78 11 -23 0 -53 -7 -66 -15 -18 -12 -55 -14 -207 -11 -101 2 -240 9 -309 15 -69 6 -287 14 -485 17 -198 4 -412 8 -475 9 -63 1 -164 5 -225 9 -60 4 -117 12 -127 17 -9 5 -65 7 -125 5 -74 -3 -149 2 -238 16 -71 10 -131 21 -133 23 -3 2 -18 -3 -34 -11 -26 -13 -32 -13 -60 1 -22 10 -34 12 -38 5 -4 -7 -49 -11 -116 -11 -60 0 -133 5 -161 10 -34 7 -71 7 -105 1 -29 -5 -78 -10 -108 -11 -30 -1 -125 1 -210 6 -85 4 -185 7 -221 6 -36 -1 -78 3 -93 9 -17 6 -34 7 -45 1 -9 -5 -48 -11 -86 -12 -39 -1 -194 1 -345 5 -151 3 -324 8 -385 11 -60 2 -124 0 -141 -6 -21 -6 -70 -6 -150 2 -66 6 -163 13 -217 15 -54 1 -105 8 -112 14 -8 7 -19 9 -24 6 -5 -4 -25 0 -43 8 -18 8 -67 22 -108 31 -41 9 -115 16 -165 16 -49 1 -245 -1 -435 -4 -190 -2 -406 -10 -480 -16 -74 -7 -200 -15 -280 -18 -80 -3 -171 -5 -203 -4 -31 1 -78 -4 -105 -10 -26 -6 -130 -12 -231 -14 -101 -2 -195 1 -208 6 -17 6 -34 5 -56 -5 -18 -8 -99 -19 -182 -26 -82 -6 -160 -11 -173 -12 -13 0 -29 8 -36 18 -8 10 -20 15 -30 11 -9 -4 -16 -13 -16 -22 0 -8 -3 -15 -7 -15 -5 -1 -30 -3 -56 -5 -26 -3 -114 -7 -195 -10 -81 -4 -187 -8 -237 -11 -49 -3 -205 -6 -345 -8 -147 -2 -273 0 -297 6 -34 8 -53 6 -105 -11 -41 -13 -89 -20 -138 -20 -41 0 -104 2 -140 5 -36 2 -74 4 -85 4 -11 -1 -42 -3 -70 -5 -27 -2 -99 -8 -159 -14 -98 -10 -110 -9 -121 6 -11 15 -18 16 -56 4 -24 -7 -57 -17 -74 -23 -16 -6 -43 -11 -60 -11 -16 1 -66 -3 -110 -9 -44 -5 -109 -13 -145 -19 -36 -5 -110 -11 -165 -14 -55 -3 -138 -8 -185 -10 -47 -3 -184 -7 -305 -10 -121 -2 -254 -4 -295 -3 -41 0 -91 2 -110 3 -19 2 -41 3 -47 4 -7 1 -13 12 -13 25 0 14 5 28 11 32 7 4 9 24 5 58 -4 28 -13 60 -21 72 -7 11 -20 44 -29 73 -8 29 -13 64 -10 79 2 15 -1 37 -8 48 -7 12 -29 46 -49 75 -21 30 -67 88 -103 129 -36 41 -69 78 -73 82 -5 4 -42 39 -83 79 -41 39 -91 79 -110 89 -20 10 -60 37 -90 60 -30 22 -75 50 -100 61 -25 11 -61 28 -80 38 -19 10 -66 24 -105 31 -38 8 -92 14 -120 16 -27 1 -92 5 -144 9 -61 5 -105 14 -125 25 -17 10 -58 21 -91 24 -33 3 -78 6 -100 6 -22 1 -65 -2 -95 -5 -30 -3 -68 -10 -85 -15 -19 -6 -54 -6 -95 0 -36 5 -96 10 -135 10 -38 0 -86 -4 -105 -9 -19 -5 -51 -15 -70 -22 -19 -6 -42 -14 -50 -16 -12 -4 -12 -7 4 -18 14 -11 52 -14 145 -13 81 1 135 -3 149 -11 12 -6 22 -15 22 -19 0 -4 -7 -16 -15 -26 -8 -11 -15 -34 -15 -52 0 -17 -10 -44 -22 -60 -12 -16 -26 -31 -30 -35 -4 -3 -26 -29 -48 -59 -22 -29 -40 -59 -40 -66 0 -7 -16 -25 -35 -39 -24 -19 -36 -37 -40 -63 -4 -21 -8 -47 -11 -58 -2 -12 -19 -31 -38 -42 -19 -11 -42 -36 -52 -54 -9 -18 -36 -60 -61 -93 -24 -33 -63 -85 -86 -115 -23 -30 -46 -69 -52 -86 -5 -18 -36 -60 -67 -95 -32 -35 -73 -84 -93 -109 -20 -25 -55 -64 -78 -88 -23 -23 -58 -47 -77 -52 -19 -5 -48 -10 -63 -10 -16 0 -37 -5 -49 -11 -14 -8 -38 -8 -83 0 -47 8 -70 8 -88 0 -18 -8 -34 -8 -54 -2 -19 7 -36 7 -53 0 -14 -6 -61 -14 -105 -19 -44 -4 -120 -12 -170 -17 -49 -5 -100 -12 -112 -16 -13 -4 -31 -4 -40 0 -10 4 -40 8 -67 10 -27 2 -56 0 -65 -4 -9 -5 -53 -11 -98 -15 -77 -6 -83 -5 -83 12 0 11 8 30 19 43 10 13 21 44 24 69 2 25 11 63 20 85 8 21 21 41 28 43 8 3 24 14 37 25 12 12 22 32 22 48 0 16 14 45 34 71 19 23 44 53 55 66 11 12 39 47 61 76 23 30 51 57 63 60 12 4 42 31 67 61 25 31 64 63 88 75 23 11 60 36 81 55 21 19 42 35 47 35 5 0 45 24 89 53 44 28 103 63 130 77 35 17 55 35 66 59 9 19 24 40 34 48 11 7 30 13 43 13 13 0 42 15 65 34 23 19 64 41 90 50 27 9 63 24 80 32 17 9 37 23 45 30 7 8 26 13 40 12 15 -1 50 7 77 17 28 10 65 29 83 42 17 13 32 28 32 34 0 5 -19 9 -42 9 -24 0 -81 -11 -128 -24 -47 -13 -125 -40 -173 -60 -49 -20 -130 -57 -180 -82 -51 -26 -128 -65 -172 -86 -44 -22 -89 -48 -100 -58 -11 -10 -34 -25 -51 -34 -18 -8 -62 -36 -98 -61 -36 -25 -69 -45 -73 -45 -3 0 -29 -17 -57 -39 -28 -21 -73 -60 -101 -86 -27 -27 -88 -81 -134 -122 -47 -40 -90 -86 -96 -101 -7 -15 -39 -61 -71 -102 -32 -41 -71 -93 -86 -115 -15 -22 -34 -57 -43 -79 -9 -21 -28 -57 -43 -80 -15 -22 -31 -48 -37 -57 -5 -9 -20 -35 -33 -57 -12 -23 -32 -48 -45 -56 -13 -9 -70 -20 -137 -26 -63 -6 -164 -15 -225 -20 -60 -5 -137 -13 -170 -18 -33 -5 -89 -8 -124 -6 -40 1 -72 -3 -85 -11 -12 -7 -57 -18 -101 -23 -44 -6 -127 -17 -185 -23 -58 -7 -122 -12 -142 -10 -20 1 -39 -3 -43 -9 -3 -5 -34 -10 -68 -10 -34 -1 -98 -7 -141 -15 -44 -8 -92 -11 -108 -8 -16 3 -53 1 -81 -5 -29 -6 -83 -16 -121 -23 -38 -6 -122 -12 -185 -13 -64 -1 -141 -7 -172 -14 -38 -8 -70 -10 -96 -4 -27 6 -50 5 -78 -6 -23 -8 -85 -15 -145 -17 -58 -1 -121 -8 -140 -14 -19 -7 -71 -16 -115 -22 -44 -6 -127 -15 -185 -20 -58 -6 -184 -14 -280 -20 -96 -5 -195 -11 -219 -12 -31 -3 -49 1 -58 12 -8 9 -27 36 -43 61 -17 25 -30 52 -30 61 0 9 -8 23 -18 32 -10 10 -29 17 -43 17 -16 0 -32 -11 -47 -34 -21 -31 -23 -42 -17 -100 7 -63 6 -65 -16 -71 -13 -3 -64 -9 -114 -14 -49 -5 -133 -16 -185 -25 -52 -9 -176 -28 -275 -42 -99 -15 -198 -28 -220 -30 -22 -1 -67 -8 -100 -14 -33 -6 -94 -15 -135 -20 -41 -5 -104 -13 -140 -20 -36 -6 -112 -18 -170 -26 -58 -9 -134 -19 -170 -24 -36 -4 -116 -13 -179 -20 -63 -6 -126 -16 -140 -22 -14 -6 -73 -16 -131 -24 -58 -7 -134 -18 -170 -24 -36 -6 -87 -15 -115 -19 -27 -5 -70 -13 -95 -19 -25 -6 -74 -15 -110 -21 -36 -5 -92 -15 -125 -21 -33 -7 -91 -24 -130 -39 -56 -22 -76 -35 -97 -67 -15 -21 -43 -71 -62 -110 -20 -39 -36 -81 -36 -93 0 -12 14 -35 32 -52 18 -16 48 -32 68 -35 19 -3 47 -10 62 -16 15 -5 70 -8 125 -5 54 2 166 10 248 16 83 7 161 17 174 22 14 6 70 15 125 20 56 6 137 14 181 18 44 3 94 14 111 23 27 15 47 16 165 7 95 -7 169 -7 249 1 63 6 169 15 235 20 66 6 152 10 192 11 40 1 78 -3 85 -8 8 -6 58 -9 123 -6 61 2 144 5 185 7 42 2 87 9 100 16 14 8 45 18 70 23 25 4 68 11 95 13 28 3 75 7 105 9 30 2 89 8 130 13 41 5 86 14 100 20 14 6 81 16 150 21 l125 11 72 -75 c50 -51 85 -100 112 -153 24 -48 56 -94 85 -120 25 -23 50 -42 56 -42 6 0 26 -25 45 -55 22 -33 50 -63 73 -75 20 -11 69 -47 107 -80 39 -33 95 -77 125 -98 30 -21 79 -48 109 -61 29 -12 69 -38 87 -57 24 -23 44 -34 64 -34 17 0 67 -19 113 -43 45 -23 105 -52 134 -65 28 -12 66 -25 85 -29 18 -3 47 -15 63 -25 20 -12 50 -18 91 -18 35 0 74 -6 90 -15 16 -8 48 -15 72 -15 23 0 59 -7 80 -17 20 -9 55 -17 77 -19 22 -1 67 -4 100 -7 33 -3 72 -10 85 -15 14 -6 84 -15 155 -21 72 -7 173 -14 225 -17 52 -3 138 -6 190 -5 52 0 131 3 175 6 44 3 139 8 210 11 72 3 157 12 190 21 33 9 89 17 125 19 36 2 101 6 145 8 44 3 96 11 116 20 19 8 41 22 49 30 8 10 29 16 55 16 24 0 66 11 96 25 43 19 76 25 160 29 59 2 126 10 149 17 32 10 46 10 61 1 11 -7 19 -8 19 -2 0 5 14 17 30 25 20 11 42 14 65 9 28 -5 40 -1 66 20 17 14 39 26 49 26 10 0 37 11 60 24 32 18 51 22 85 18 32 -3 55 1 83 16 23 12 71 23 115 27 43 4 77 11 77 16 0 5 19 21 42 35 23 15 56 30 72 35 17 4 54 10 81 12 28 3 68 12 89 21 32 13 55 14 148 6 60 -5 129 -7 153 -3 32 4 54 0 86 -15 26 -12 76 -23 119 -27 41 -3 116 -7 165 -10 50 -2 131 -8 180 -13 54 -5 118 -5 161 0 64 9 76 7 113 -12 l42 -21 28 20 c24 17 38 19 92 14 35 -3 82 -6 104 -5 22 1 83 3 135 5 52 2 104 7 114 12 13 6 21 5 24 -3 2 -7 19 -12 37 -12 19 0 37 5 40 10 3 6 13 10 21 10 8 0 28 -10 44 -21 26 -20 36 -21 102 -15 40 4 79 13 87 19 10 9 86 12 255 12 218 0 245 2 270 18 20 14 37 17 60 12 17 -4 49 -6 71 -6 22 1 76 4 120 6 44 3 118 6 165 8 47 2 136 9 199 15 81 8 128 8 163 1 45 -10 52 -9 73 11 21 20 28 21 52 11 20 -8 47 -8 98 -1 39 6 81 11 95 11 14 0 43 5 65 11 22 6 54 12 70 14 17 2 129 6 250 9 188 5 235 10 324 31 57 14 115 23 127 20 13 -4 45 3 72 13 26 11 77 25 113 31 35 6 73 15 84 20 11 5 58 9 105 10 47 0 105 3 130 5 25 2 83 8 130 14 47 5 139 23 205 40 66 17 136 31 156 31 21 0 47 9 63 21 17 13 50 24 90 29 35 4 72 12 82 18 11 6 55 15 99 21 44 6 100 13 125 16 25 3 79 9 120 14 41 5 91 15 110 24 19 8 62 17 95 20 34 3 85 15 113 26 30 12 76 21 105 21 29 0 58 5 64 11 7 7 45 13 85 15 41 1 99 12 132 23 40 14 84 21 135 21 61 0 85 5 121 24 30 16 71 26 125 31 54 5 91 14 115 28 26 16 48 21 97 19 42 -1 77 5 106 17 24 11 70 24 103 31 32 7 76 21 96 31 21 11 55 19 76 19 21 0 47 7 58 15 10 8 29 15 42 15 13 0 57 11 97 25 40 13 100 29 132 34 32 5 89 23 127 40 61 28 73 30 103 20 29 -9 41 -8 76 10 23 11 83 37 132 57 50 20 102 45 117 55 14 11 43 19 65 19 21 0 81 11 133 25 52 14 108 32 123 40 16 8 42 15 58 15 23 0 44 16 102 75 60 62 78 75 104 75 23 0 38 9 57 31 14 17 26 36 26 44 0 7 7 18 16 26 10 8 13 21 9 36 -3 14 4 41 20 73 14 28 28 70 32 95 4 31 1 58 -9 83 -9 20 -20 51 -25 67 -7 26 -14 30 -43 30 -19 1 -45 4 -57 9 -13 4 -23 13 -23 20 0 7 8 20 18 28 9 9 27 19 39 22 13 4 51 9 85 12 35 2 110 6 168 8 64 2 113 0 125 -7 11 -6 58 -10 106 -9 47 0 97 6 112 11 19 7 46 6 98 -5 40 -8 76 -17 81 -20 4 -3 24 -2 44 2 19 3 49 18 66 32 19 17 43 26 64 26 18 0 41 -8 52 -17 11 -10 35 -17 58 -17 21 0 56 -4 77 -9 23 -6 61 -5 95 0 31 6 71 12 87 15 17 3 67 8 113 11 60 4 96 1 132 -11 27 -9 71 -16 97 -16 27 0 54 5 60 11 7 7 48 9 124 5 63 -3 132 -8 154 -10 22 -3 70 -8 106 -12 42 -4 79 -2 101 5 28 9 50 9 105 -3 53 -11 81 -12 118 -4 35 7 58 7 80 -1 16 -6 62 -10 100 -10 39 0 140 0 225 1 85 0 187 -5 225 -12 39 -6 171 -11 295 -12 124 0 252 -1 285 0 33 0 96 -1 140 -3 44 -3 152 -6 240 -9 88 -2 196 -8 240 -12 44 -4 96 -6 115 -4 19 2 58 3 85 3 28 -1 64 -1 80 -2 17 0 55 1 85 2 30 2 69 9 85 16 17 8 39 18 50 23 14 6 32 4 58 -7 21 -8 81 -20 135 -24 53 -5 131 -6 172 -2 41 4 81 6 88 3 6 -2 12 -10 12 -18 0 -7 -9 -18 -21 -25 -12 -6 -60 -22 -107 -36 -47 -13 -151 -58 -231 -100 -80 -41 -156 -86 -168 -99 -13 -14 -23 -33 -23 -43 0 -10 6 -23 13 -29 8 -7 28 -6 66 4 30 7 61 20 70 29 10 8 46 27 81 43 36 16 99 41 140 55 41 13 97 36 124 51 27 14 58 26 69 26 12 0 55 9 96 21 42 11 85 24 96 29 11 4 62 18 113 30 51 12 95 26 98 31 2 5 25 17 49 28 25 11 45 25 45 30 0 6 30 26 68 45 55 27 82 34 152 38 63 4 95 11 120 27 19 11 38 21 42 21 4 0 24 -26 46 -57 21 -32 47 -78 59 -103 12 -25 25 -58 30 -74 5 -20 17 -32 36 -37 15 -4 56 -36 90 -71 34 -35 105 -108 157 -163 52 -55 115 -116 140 -135 25 -19 54 -44 66 -56 11 -11 27 -25 35 -30 7 -5 19 -18 25 -29 6 -11 27 -29 48 -40 29 -15 40 -29 48 -61 11 -38 15 -42 59 -53 30 -8 71 -31 109 -62 34 -27 65 -49 69 -49 5 0 29 -26 54 -59 38 -48 54 -60 94 -71 26 -7 66 -22 88 -33 22 -11 60 -35 85 -54 39 -30 50 -34 85 -29 22 3 61 8 87 12 42 5 52 3 79 -20 28 -24 38 -26 122 -26 66 -1 98 -5 112 -16 11 -8 55 -26 98 -39 42 -14 90 -32 105 -42 15 -9 37 -26 49 -37 19 -16 41 -20 125 -23 57 -2 120 -4 141 -4 21 -1 49 7 64 16 17 11 50 19 87 20 48 2 73 -3 116 -23 30 -14 69 -36 85 -48 17 -13 41 -28 55 -34 14 -6 40 -22 59 -35 32 -23 42 -25 160 -25 92 0 134 -4 155 -15 15 -8 37 -15 48 -15 10 0 33 -7 51 -16 26 -14 53 -16 156 -11 98 4 132 2 154 -9 19 -10 60 -15 131 -15 74 0 109 -4 122 -14 11 -8 30 -14 44 -15 14 0 45 7 70 16 25 8 54 24 65 34 11 10 33 22 49 26 16 4 58 8 95 9 36 2 89 8 116 15 28 6 77 15 110 20 33 5 78 14 100 19 22 5 67 19 100 31 33 12 76 32 95 45 24 17 56 26 105 31 62 6 75 11 111 44 22 20 87 60 145 88 58 28 125 69 149 92 24 22 51 40 59 40 9 0 33 11 52 24 22 15 45 45 59 73 12 26 45 74 73 106 28 33 63 84 78 115 16 31 31 76 35 100 5 31 12 46 25 49 10 3 21 14 24 24 4 11 17 27 31 35 13 9 44 58 70 111 38 77 45 101 41 130 -4 21 0 50 8 71 8 19 15 53 15 76 0 22 -7 71 -15 109 -10 49 -27 87 -62 140 -26 39 -75 98 -108 130 -33 32 -77 70 -97 84 -21 14 -38 29 -38 34 0 5 -14 15 -30 24 -17 9 -41 33 -55 54 -13 22 -35 42 -47 46 -13 3 -47 18 -76 33 -29 15 -63 33 -75 39 -12 7 -33 13 -47 13 -14 0 -45 13 -70 30 -24 16 -56 32 -70 35 -14 3 -47 16 -72 29 -26 13 -61 34 -79 47 -18 13 -73 33 -122 46 -48 12 -117 34 -152 48 -35 14 -75 25 -89 25 -14 0 -47 5 -73 11 -27 6 -64 17 -83 25 -19 7 -64 15 -99 18 -35 3 -94 15 -130 25 -36 10 -110 29 -163 41 -93 21 -106 22 -270 11 -95 -6 -240 -16 -323 -21 -82 -6 -172 -15 -200 -20 -27 -5 -117 -16 -200 -25 -82 -9 -159 -18 -170 -21 -11 -3 -47 -9 -80 -14 -33 -5 -91 -15 -130 -23 -38 -8 -101 -17 -140 -21 -38 -4 -104 -13 -145 -22 -41 -8 -103 -21 -137 -29 -34 -8 -109 -15 -167 -15 -66 0 -107 -4 -112 -11 -4 -7 -21 -9 -45 -5 -27 4 -46 2 -63 -9 -13 -9 -52 -22 -88 -29 -36 -7 -76 -19 -89 -27 -13 -7 -49 -17 -79 -22 -30 -5 -80 -11 -110 -12 -30 -1 -75 -12 -100 -23 -31 -14 -69 -21 -120 -23 -41 -1 -90 -8 -109 -15 -18 -8 -42 -14 -53 -14 -10 0 -54 -16 -96 -36 -42 -20 -108 -43 -146 -50 -38 -8 -77 -19 -87 -24 -10 -6 -30 -10 -44 -10 -14 0 -35 5 -46 10 -10 6 -19 18 -19 27 0 8 -17 42 -39 73 -28 42 -47 91 -71 177 -17 65 -40 138 -50 163 -11 25 -23 68 -29 95 -5 28 -20 100 -33 160 -14 66 -22 136 -20 175 1 36 9 99 17 140 8 41 22 100 31 130 9 30 19 98 23 150 6 69 16 113 36 160 15 36 35 81 45 100 10 19 28 69 40 110 12 41 24 89 27 105 3 17 14 39 24 51 10 11 32 47 49 79 16 32 30 64 30 71 0 7 11 24 25 37 25 22 26 27 19 91 -7 67 -8 68 -75 137 -38 39 -69 74 -69 79 0 5 12 17 26 27 25 16 27 16 44 -7 16 -21 21 -23 43 -13 17 8 27 22 29 40 2 20 12 33 36 45 19 9 39 23 45 32 7 9 30 25 52 37 22 12 54 28 70 36 17 7 44 21 60 30 17 9 52 27 79 42 27 14 88 59 135 101 47 41 105 89 129 107 24 17 55 46 69 65 13 18 38 58 54 88 16 30 47 84 69 120 22 36 40 75 40 87 0 12 -20 45 -45 74 -31 37 -58 57 -84 65 -24 7 -45 8 -55 2 -9 -5 -20 -6 -26 -3 -5 3 -33 -1 -62 -9 -29 -8 -83 -17 -120 -20 -36 -4 -82 -13 -100 -21 -21 -8 -39 -10 -48 -5 -11 7 -2 14 35 30 28 12 88 40 135 62 47 22 95 46 106 52 12 6 41 24 65 40 24 16 76 56 116 90 39 34 88 72 108 86 20 14 64 45 97 70 33 25 93 73 133 107 40 34 99 75 131 91 33 17 78 50 101 75 23 24 80 70 127 101 48 31 91 56 96 56 6 0 22 14 37 31 16 17 44 39 65 50 20 10 45 30 56 43 13 17 26 23 39 20 14 -4 28 4 49 29 16 19 43 42 59 52 17 10 44 31 60 46 17 16 48 35 70 44 22 9 60 34 85 54 25 21 57 46 72 55 15 10 30 26 33 36 3 10 23 24 43 31 20 7 44 22 54 34 10 13 35 30 55 38 21 8 62 34 92 56 30 23 61 41 68 41 7 0 50 34 95 76 55 51 94 96 116 137 32 59 33 66 27 132 -4 38 -13 81 -21 96 -7 15 -24 31 -36 34 -13 4 -43 17 -68 29 -36 17 -65 21 -145 22 -55 0 -109 -1 -120 -4z m-2105 -2066 c0 -3 -4 -8 -10 -11 -5 -3 -10 -1 -10 4 0 6 5 11 10 11 6 0 10 -2 10 -4z m-110 -46 c-8 -5 -21 -10 -28 -10 -7 0 -10 5 -7 10 3 6 16 10 28 10 18 0 19 -2 7 -10z m-14974 -2552 c15 -13 34 -18 60 -17 22 1 56 -3 77 -10 l39 -13 -7 -47 c-4 -25 -18 -66 -32 -90 -14 -23 -32 -50 -40 -60 -8 -9 -33 -45 -55 -81 -22 -36 -90 -117 -150 -180 -60 -63 -131 -138 -156 -167 -26 -29 -57 -65 -70 -80 -12 -15 -52 -64 -87 -107 -36 -43 -78 -100 -93 -125 -15 -25 -50 -69 -78 -97 -28 -29 -62 -58 -75 -65 -13 -7 -60 -14 -104 -15 -44 -1 -108 -7 -142 -14 -34 -7 -69 -10 -77 -7 -9 4 -16 11 -16 16 0 6 20 33 45 61 25 28 48 62 51 76 4 15 18 47 32 71 14 25 44 65 68 90 24 24 46 52 49 62 3 11 20 26 38 34 18 9 53 37 78 64 26 26 66 77 90 113 24 36 74 95 110 131 49 49 70 78 83 117 10 28 28 66 41 84 14 18 35 56 49 83 13 28 29 66 35 86 7 20 28 55 47 78 l36 41 66 -6 c45 -4 74 -13 88 -26z m507 -179 c10 -11 23 -31 28 -43 6 -12 20 -27 32 -33 12 -6 36 -18 54 -26 19 -9 47 -40 72 -78 23 -35 41 -68 41 -75 0 -6 18 -34 40 -62 22 -27 40 -57 40 -66 0 -8 20 -38 45 -66 43 -48 45 -54 45 -110 0 -48 -5 -68 -29 -106 -27 -42 -29 -52 -26 -119 3 -55 0 -77 -10 -85 -8 -7 -40 -13 -72 -15 -32 -2 -85 -6 -118 -9 -33 -2 -91 -9 -130 -16 -38 -6 -128 -15 -200 -20 -71 -5 -184 -9 -250 -10 -66 -1 -129 -1 -140 -1 -11 1 -69 -2 -128 -5 -78 -5 -112 -3 -120 6 -9 9 -7 15 8 28 11 9 44 46 74 82 29 36 64 70 77 75 13 6 37 29 54 53 17 24 38 46 46 49 8 3 24 23 34 44 11 21 29 43 40 49 10 6 34 32 51 58 18 26 49 63 68 82 20 20 43 49 51 64 8 16 43 58 78 92 34 35 62 71 62 79 0 9 6 18 14 21 8 3 31 33 52 67 21 34 50 74 64 89 14 15 27 27 30 28 3 0 14 -9 23 -21z m17377 -147 c25 -6 77 -18 115 -26 39 -9 80 -16 93 -16 13 0 58 -7 100 -16 42 -9 101 -24 129 -34 29 -10 66 -28 82 -39 16 -12 42 -21 58 -21 15 0 60 -12 98 -26 39 -14 107 -39 152 -55 45 -16 108 -43 140 -59 32 -17 77 -49 101 -71 35 -34 47 -40 70 -35 15 4 43 9 62 12 23 4 55 -1 95 -16 33 -12 82 -28 110 -36 27 -8 53 -21 58 -29 4 -9 50 -35 102 -59 53 -25 98 -53 104 -65 7 -11 31 -30 55 -40 23 -11 48 -27 55 -35 7 -8 14 -31 17 -53 3 -21 10 -48 16 -59 7 -16 7 -32 -2 -58 -6 -20 -16 -36 -22 -36 -6 0 -8 -10 -4 -24 3 -13 -2 -45 -13 -72 -10 -27 -26 -83 -36 -124 -9 -41 -33 -106 -51 -143 -19 -38 -34 -77 -34 -87 0 -11 14 -35 30 -53 17 -19 30 -39 30 -44 0 -6 -8 -18 -19 -27 -15 -14 -23 -15 -43 -5 -20 9 -32 8 -56 -5 -21 -11 -34 -27 -40 -49 -4 -18 -17 -36 -30 -42 -12 -5 -25 -19 -28 -30 -3 -11 -25 -39 -47 -62 -23 -24 -48 -43 -57 -43 -9 0 -42 -25 -74 -56 -47 -46 -69 -59 -122 -74 -36 -10 -79 -28 -97 -38 -18 -11 -61 -28 -97 -37 -36 -10 -85 -21 -110 -26 -25 -5 -72 -13 -105 -19 -33 -5 -85 -15 -115 -21 -30 -6 -141 -12 -247 -14 -111 -2 -200 -8 -212 -14 -11 -6 -28 -11 -37 -11 -10 0 -27 9 -39 20 -20 19 -23 19 -54 4 -22 -11 -43 -14 -64 -9 -18 4 -47 6 -64 6 -18 0 -48 -1 -65 -1 -18 0 -55 1 -83 2 -27 2 -61 9 -74 17 -15 8 -38 11 -60 7 -26 -4 -58 2 -106 19 -39 14 -91 25 -117 25 -26 0 -95 14 -154 31 -58 17 -112 28 -119 26 -6 -3 -19 3 -28 13 -8 10 -36 22 -62 25 -31 5 -59 19 -86 41 -23 19 -49 34 -58 34 -10 0 -50 11 -90 25 -46 15 -80 34 -93 50 -10 14 -28 25 -39 25 -11 0 -39 16 -62 35 -28 23 -78 48 -142 70 -55 19 -110 35 -122 35 -12 0 -31 12 -43 29 -11 17 -28 32 -38 35 -10 3 -36 8 -58 10 -23 2 -51 9 -62 15 -12 6 -35 32 -53 57 -17 25 -42 49 -56 55 -13 5 -37 9 -52 9 -15 0 -44 9 -66 20 -22 11 -52 20 -68 20 -15 0 -41 7 -57 15 -15 8 -38 31 -51 52 -12 21 -31 48 -42 61 -11 12 -28 22 -37 22 -9 0 -48 22 -86 50 -38 27 -99 70 -135 95 -36 25 -69 45 -73 45 -4 0 -19 8 -34 18 -15 10 -48 33 -75 51 -26 18 -97 81 -157 141 -71 71 -111 119 -115 137 -3 15 -14 45 -24 65 l-19 37 35 27 c28 21 57 30 146 43 81 13 130 26 177 49 41 21 91 35 136 41 39 5 82 16 95 24 13 9 67 26 119 37 52 12 127 24 165 26 39 3 108 6 155 7 54 2 96 9 115 19 17 9 50 22 75 28 25 7 70 14 100 15 30 1 82 9 115 18 33 9 122 23 199 32 76 9 151 22 167 31 21 11 34 12 48 4 11 -5 30 -10 43 -10 13 0 28 4 34 9 5 5 32 12 59 14 28 3 91 10 140 14 50 5 96 13 103 17 7 4 26 3 41 -4 21 -8 50 -9 117 0 49 6 125 11 168 10 58 -1 90 -7 119 -22 27 -13 51 -18 76 -15 20 3 54 10 76 15 22 5 54 17 70 26 17 9 39 15 50 13 11 -3 40 -9 65 -15z m-12257 -665 c24 -10 78 -13 212 -10 99 3 232 6 295 8 89 3 132 -1 192 -16 43 -11 83 -18 90 -17 7 2 14 -13 18 -40 4 -24 13 -48 21 -53 8 -5 17 -9 20 -9 4 0 18 9 32 20 19 15 40 20 86 20 33 0 81 5 106 12 41 11 47 10 74 -9 16 -12 48 -25 72 -29 24 -3 116 -7 204 -9 155 -2 162 -3 230 -33 39 -17 81 -32 96 -32 14 0 30 -5 36 -11 6 -6 47 -13 90 -16 44 -2 88 -10 100 -19 12 -7 31 -14 41 -14 10 0 33 -17 50 -39 17 -21 51 -48 76 -60 25 -11 57 -21 71 -21 14 0 25 -3 25 -7 0 -5 -16 -20 -34 -35 -19 -16 -39 -28 -44 -28 -5 0 -17 -9 -27 -20 -10 -11 -26 -20 -35 -20 -9 0 -31 -11 -50 -25 -19 -14 -39 -25 -46 -25 -7 0 -38 -13 -69 -30 -31 -16 -63 -30 -71 -30 -8 0 -43 -9 -77 -20 -34 -12 -71 -25 -82 -30 -11 -5 -40 -17 -65 -26 -25 -8 -61 -19 -80 -24 -19 -5 -64 -19 -100 -33 -36 -13 -79 -31 -97 -40 -18 -9 -47 -17 -65 -17 -18 -1 -91 -21 -163 -46 -71 -25 -148 -48 -170 -51 -22 -3 -44 -9 -50 -13 -5 -4 -46 -17 -90 -29 -44 -12 -94 -26 -111 -32 -17 -5 -42 -9 -57 -9 -14 0 -28 -4 -31 -9 -3 -5 -20 -11 -38 -14 -18 -3 -62 -10 -98 -16 -36 -7 -74 -18 -85 -25 -11 -7 -33 -15 -50 -18 -16 -3 -66 -15 -109 -27 -44 -11 -95 -21 -115 -21 -20 0 -49 -7 -65 -15 -15 -8 -44 -15 -62 -15 -19 0 -42 -4 -52 -10 -9 -5 -45 -19 -79 -30 -38 -12 -73 -17 -92 -14 -20 4 -39 1 -56 -10 -13 -9 -46 -25 -73 -35 -26 -11 -95 -29 -152 -40 -58 -12 -116 -27 -130 -33 -14 -6 -52 -12 -85 -13 -33 -2 -96 -15 -140 -29 -44 -14 -96 -26 -116 -26 -20 0 -88 -18 -153 -40 -64 -22 -127 -40 -139 -40 -13 0 -52 -10 -86 -21 -51 -17 -70 -20 -96 -12 -19 6 -39 7 -46 2 -8 -5 -28 -9 -45 -9 -17 0 -37 -7 -44 -15 -7 -8 -20 -15 -30 -15 -10 0 -47 -13 -82 -30 -34 -16 -76 -30 -93 -30 -16 1 -48 7 -70 15 -22 8 -50 15 -62 15 -12 0 -25 -5 -29 -11 -4 -8 -26 -10 -63 -6 -37 4 -74 1 -106 -8 -26 -8 -67 -15 -91 -15 -24 0 -46 -4 -49 -10 -3 -5 -23 -10 -44 -10 -21 0 -56 -6 -77 -14 -22 -7 -61 -17 -89 -22 -27 -4 -79 -7 -115 -5 -36 1 -114 -5 -175 -15 -60 -10 -146 -19 -190 -21 -44 -2 -126 -3 -182 -2 -57 0 -119 -5 -138 -11 -19 -6 -77 -12 -128 -12 -71 -1 -101 -5 -132 -21 -34 -17 -59 -20 -184 -20 -80 0 -159 -4 -176 -9 -16 -5 -106 -11 -199 -14 -116 -3 -180 0 -203 8 -27 10 -35 9 -51 -5 -10 -9 -26 -17 -35 -17 -9 0 -17 5 -17 10 0 6 -7 10 -15 10 -8 0 -24 -9 -35 -20 -11 -11 -29 -20 -41 -20 -11 0 -29 5 -40 10 -10 6 -63 11 -116 11 -54 1 -117 -4 -141 -9 -29 -7 -65 -7 -105 -1 -34 6 -87 12 -117 15 -30 3 -71 6 -90 8 -19 1 -49 6 -67 10 -23 5 -39 3 -57 -9 -14 -9 -31 -15 -38 -12 -7 2 -34 -2 -60 -10 -35 -10 -67 -11 -120 -5 -40 4 -138 7 -218 5 -80 -2 -167 -5 -195 -5 -27 -1 -144 5 -260 11 -115 7 -219 16 -230 21 -11 4 -29 11 -40 15 -19 7 -19 8 5 17 14 6 34 14 45 19 11 5 27 13 35 18 8 4 31 14 50 21 19 7 47 12 62 12 20 -1 28 5 32 23 4 15 20 31 39 40 17 8 48 24 67 35 19 11 43 20 53 20 10 0 35 11 55 25 20 14 40 25 45 25 5 0 27 13 50 29 23 15 65 40 94 55 29 14 63 26 77 26 13 0 37 11 53 24 15 12 59 35 96 50 38 15 83 36 100 47 18 10 44 19 58 19 15 0 38 9 52 20 14 11 36 20 50 20 13 0 55 22 93 49 38 28 80 65 93 83 13 18 42 47 64 63 22 17 55 44 73 62 19 17 34 38 34 47 0 9 10 36 21 59 12 23 48 66 81 96 32 30 73 77 91 104 17 28 39 60 47 72 8 12 43 50 77 85 45 45 64 72 69 99 4 20 15 47 24 61 10 14 25 42 33 63 9 20 23 37 31 37 8 0 18 -4 21 -10 3 -5 15 -10 26 -10 11 0 39 -21 63 -47 l44 -47 66 33 66 34 122 -5 c86 -4 138 -1 173 8 28 7 87 13 131 14 62 0 85 -4 94 -16 8 -8 29 -22 48 -30 19 -8 43 -14 53 -14 10 0 60 18 111 39 51 21 108 42 126 45 20 3 48 0 69 -9 19 -8 49 -15 65 -15 16 0 39 5 51 12 12 6 40 16 62 20 22 5 56 11 75 13 19 2 98 11 176 19 77 8 153 12 169 8 15 -4 57 -4 94 0 36 5 72 9 79 8 6 0 20 0 30 0 9 1 39 1 67 1 27 0 68 5 90 11 22 6 99 17 170 25 72 8 159 18 195 22 42 5 87 3 125 -5 37 -7 69 -8 83 -3 13 5 83 11 155 13 73 2 149 7 169 11 24 5 45 2 67 -9 26 -14 35 -14 54 -4 13 8 61 13 117 14 52 1 117 5 143 9 31 5 67 3 100 -5 48 -11 55 -10 89 9 20 12 62 26 94 31 42 7 75 6 114 -3 45 -11 64 -11 105 0 30 8 71 11 103 7 42 -4 58 -2 72 11 15 14 25 15 57 6 21 -6 41 -11 45 -11 4 0 17 11 30 24 13 13 32 26 43 29 11 3 37 5 58 6 21 0 52 -5 70 -12z m-7128 -347 c16 -18 16 -20 1 -26 -9 -3 -30 -4 -46 0 -17 3 -41 0 -55 -6 -19 -8 -28 -8 -40 2 -9 7 -14 18 -12 24 2 6 28 14 58 17 30 3 59 6 65 7 6 1 19 -7 29 -18z m-194 -16 c10 -13 10 -17 -2 -24 -8 -5 -35 -14 -61 -20 -32 -6 -56 -6 -74 0 -22 9 -24 13 -14 25 7 8 24 15 39 16 14 0 35 4 46 9 11 5 27 9 36 9 9 1 22 -6 30 -15z m-203 -26 c3 -14 -3 -18 -26 -18 -16 0 -35 -6 -41 -14 -6 -8 -26 -16 -44 -19 -18 -3 -66 -11 -107 -17 -41 -6 -94 -12 -116 -13 -24 -1 -50 -10 -61 -19 -11 -10 -41 -24 -68 -32 -26 -8 -83 -18 -125 -22 -71 -6 -78 -5 -83 12 -3 11 -9 35 -12 54 -4 22 -1 42 7 53 12 16 34 18 218 19 153 1 212 5 233 15 17 9 37 11 50 7 12 -5 27 -6 32 -4 6 1 28 6 50 10 22 5 51 7 65 6 15 0 26 -8 28 -18z m2622 -14 c8 -8 8 -20 -3 -45 -8 -19 -33 -59 -56 -89 -22 -30 -44 -69 -47 -87 -4 -22 -20 -44 -49 -67 -23 -19 -48 -50 -55 -68 -8 -18 -31 -52 -52 -75 -21 -24 -38 -49 -38 -58 0 -8 -26 -28 -59 -45 -33 -16 -63 -36 -68 -44 -4 -8 -25 -26 -46 -40 -21 -14 -48 -26 -61 -26 -17 0 -30 -11 -45 -35 -11 -19 -32 -40 -46 -45 -15 -6 -44 -10 -65 -10 -32 0 -46 -7 -79 -40 -22 -22 -48 -40 -58 -40 -10 0 -38 -16 -62 -35 -24 -19 -48 -35 -52 -35 -5 0 -34 -12 -66 -26 -32 -14 -71 -32 -86 -40 -16 -8 -37 -14 -47 -14 -11 0 -34 -13 -52 -28 -18 -15 -64 -44 -103 -64 -38 -19 -87 -41 -109 -48 -21 -7 -54 -23 -74 -36 -19 -13 -40 -24 -47 -24 -6 0 -33 -14 -59 -31 -25 -17 -87 -46 -137 -65 -87 -32 -93 -33 -157 -23 -37 6 -85 13 -107 15 -22 3 -80 6 -129 7 -79 2 -90 5 -98 23 -5 11 -41 35 -79 53 -38 18 -69 36 -69 39 0 4 4 12 8 17 4 6 27 26 50 44 24 19 66 62 93 95 27 34 63 75 79 91 17 17 30 36 30 43 0 6 45 57 99 112 55 55 104 100 110 100 6 0 11 7 11 15 0 8 10 19 23 26 12 6 37 25 55 42 17 17 32 35 32 39 0 5 12 25 28 44 15 20 39 42 55 50 15 8 27 21 27 28 0 8 12 21 26 31 14 9 42 43 63 76 21 33 72 95 114 138 l75 78 144 6 c78 3 186 11 238 17 52 6 104 16 115 22 11 6 70 13 130 15 61 1 131 8 156 14 39 9 56 7 113 -11 l67 -22 57 25 c53 23 68 24 204 23 93 -1 151 -5 158 -12z m-3538 -75 c12 -23 16 -46 12 -71 -6 -32 -12 -39 -47 -53 -22 -9 -63 -18 -91 -20 -28 -2 -98 -8 -156 -14 -58 -6 -152 -18 -210 -26 -58 -9 -132 -17 -166 -19 -33 -2 -76 -12 -95 -22 -24 -12 -68 -20 -150 -25 -63 -3 -126 -12 -140 -20 -13 -7 -62 -19 -109 -26 -47 -8 -111 -17 -142 -22 -32 -4 -66 -15 -77 -25 -18 -16 -25 -17 -50 -6 -19 8 -49 9 -88 5 -32 -4 -74 -14 -93 -21 -19 -7 -118 -20 -220 -29 -102 -8 -219 -20 -260 -26 -41 -6 -120 -12 -174 -14 -73 -3 -109 -10 -137 -24 -26 -14 -77 -23 -176 -32 -76 -7 -172 -13 -214 -14 -41 -1 -82 -5 -89 -10 -8 -5 -28 -10 -44 -11 -17 -2 -82 -6 -143 -10 -85 -5 -113 -4 -113 5 0 7 -25 38 -55 70 -49 51 -55 63 -55 99 0 23 3 42 6 42 4 0 24 -5 46 -12 34 -10 44 -9 71 7 19 11 57 20 97 23 36 2 88 4 115 5 28 1 56 6 63 10 7 5 35 6 62 2 30 -4 56 -2 70 5 12 7 75 16 139 22 64 5 138 9 166 8 27 0 79 8 115 19 36 11 97 24 135 29 47 7 86 7 120 0 28 -5 66 -10 85 -9 19 0 57 2 83 3 26 2 52 9 56 16 5 9 17 11 34 7 20 -5 34 -1 57 18 16 14 44 30 62 36 18 6 105 12 193 15 88 3 180 10 205 16 25 7 59 15 75 20 17 5 62 9 100 9 39 1 85 4 103 7 25 5 42 0 72 -20 22 -14 42 -26 44 -26 3 0 13 8 23 19 10 10 32 21 48 25 17 4 57 11 90 14 33 4 66 11 73 15 7 5 34 10 61 12 27 2 64 11 82 21 25 13 47 15 96 10 45 -5 71 -3 90 7 19 10 52 13 103 10 41 -2 84 -4 94 -4 10 0 23 4 27 8 5 5 30 8 56 7 44 -1 49 -4 65 -35z m1658 -19 c19 0 75 1 123 3 49 1 91 -1 93 -5 3 -4 0 -18 -7 -30 -6 -13 -22 -34 -35 -48 -13 -14 -62 -65 -109 -115 -47 -49 -85 -93 -85 -97 0 -4 -24 -32 -52 -62 -29 -30 -71 -75 -93 -101 -22 -25 -82 -88 -132 -141 -51 -53 -93 -104 -93 -113 0 -10 -12 -34 -27 -55 -16 -20 -43 -54 -62 -74 -18 -20 -41 -53 -51 -72 -10 -19 -37 -52 -59 -73 -23 -20 -41 -45 -41 -56 0 -10 8 -25 18 -33 9 -8 26 -18 36 -22 18 -6 17 -9 -12 -39 -22 -22 -32 -43 -32 -63 0 -19 9 -38 23 -51 12 -11 39 -26 59 -32 28 -9 42 -9 58 -1 13 7 40 9 68 5 32 -4 59 -1 84 9 32 14 37 14 48 1 7 -8 27 -19 44 -23 26 -7 31 -13 29 -37 -1 -15 -3 -29 -5 -30 -2 -2 -22 1 -45 8 -38 10 -43 9 -71 -15 -25 -20 -46 -27 -108 -33 -42 -4 -93 -15 -113 -25 -20 -10 -53 -22 -74 -25 -20 -4 -40 -11 -43 -16 -3 -5 -20 -9 -38 -9 -18 0 -57 -7 -87 -16 -30 -9 -58 -20 -63 -25 -6 -5 -25 -9 -43 -9 -17 0 -58 -7 -90 -16 -32 -9 -78 -20 -103 -26 -25 -5 -79 -11 -120 -13 -62 -3 -93 -11 -175 -47 -55 -24 -136 -52 -180 -62 -44 -10 -88 -22 -98 -28 -12 -6 -47 -5 -97 3 -68 10 -90 9 -149 -6 -49 -12 -75 -14 -88 -7 -13 7 -40 6 -88 -5 -39 -8 -78 -19 -87 -24 -10 -5 -67 -9 -127 -9 -61 0 -143 5 -184 11 -62 9 -79 8 -111 -5 -27 -11 -43 -13 -56 -6 -11 6 -45 10 -77 9 -32 -1 -83 1 -113 4 -30 3 -95 10 -145 15 -49 6 -106 13 -125 17 -19 3 -53 11 -75 17 -22 6 -71 21 -108 34 -38 13 -77 24 -87 24 -10 0 -41 12 -67 26 -42 22 -56 25 -105 19 -48 -5 -66 -2 -110 18 -29 14 -111 44 -183 67 -71 24 -148 55 -169 69 -22 14 -64 42 -95 62 -31 19 -83 55 -114 80 -32 24 -73 54 -90 67 -18 13 -61 48 -97 79 -36 31 -75 71 -87 89 -13 18 -23 37 -23 42 0 5 -12 19 -26 33 -14 13 -33 38 -41 54 -9 17 -29 46 -45 66 -16 20 -42 71 -58 113 l-28 77 21 8 c12 5 81 14 152 21 72 7 143 19 159 27 22 12 37 13 70 4 28 -7 53 -7 81 0 22 6 83 15 135 20 52 6 133 13 180 17 49 4 99 15 117 25 20 10 54 17 89 17 49 0 62 4 85 26 27 26 29 26 81 13 29 -7 58 -11 63 -9 6 2 36 2 68 1 32 -1 82 5 112 14 30 8 65 13 78 10 13 -4 41 1 62 9 21 9 62 16 91 16 31 0 71 8 96 19 24 11 75 26 113 34 39 9 108 18 155 21 47 3 105 13 129 21 24 9 60 15 80 14 20 -2 46 3 59 10 12 7 30 11 40 10 9 -1 44 1 77 6 33 5 101 9 150 11 50 1 115 7 145 14 30 6 84 15 120 20 36 4 86 15 112 23 25 9 88 18 139 21 70 4 100 10 119 24 21 16 48 20 142 24 82 3 123 9 140 20 13 9 44 18 68 21 25 4 77 10 115 15 39 6 105 17 148 26 43 10 87 14 98 11 11 -4 30 0 42 8 16 10 44 13 99 11 58 -3 79 0 88 11 7 8 19 15 26 15 8 0 14 -5 14 -10 0 -6 -6 -18 -12 -26 -7 -9 -26 -30 -43 -48 -16 -18 -43 -55 -60 -81 -16 -26 -38 -62 -47 -79 -10 -17 -28 -40 -42 -51 -13 -11 -27 -31 -31 -45 -4 -14 -22 -37 -41 -53 -18 -15 -38 -43 -44 -62 -6 -19 -24 -48 -38 -63 -15 -16 -36 -41 -47 -56 -11 -15 -38 -45 -60 -67 -22 -21 -45 -39 -51 -39 -6 0 -18 -10 -27 -22 l-15 -23 -35 38 c-19 20 -40 37 -46 37 -7 0 -19 17 -28 38 -8 20 -21 44 -28 52 -7 8 -18 33 -25 55 -7 22 -17 46 -23 53 -5 7 -17 25 -26 41 -9 16 -28 47 -44 70 -18 28 -34 41 -50 41 -12 0 -33 -9 -46 -19 -22 -17 -24 -23 -19 -89 l5 -70 72 -73 c39 -41 82 -92 96 -115 13 -22 27 -52 30 -67 4 -14 22 -38 40 -52 19 -14 37 -34 40 -45 4 -14 -2 -30 -19 -51 -18 -21 -26 -42 -26 -68 0 -28 8 -46 34 -74 21 -23 43 -37 58 -37 13 0 48 12 77 26 l53 27 86 -23 c48 -13 96 -29 107 -36 11 -8 31 -14 46 -14 15 0 37 8 49 18 20 16 21 21 11 59 -7 26 -22 49 -39 61 -15 11 -44 25 -64 31 -21 7 -47 24 -58 38 -11 14 -20 37 -20 51 0 13 10 40 21 59 12 19 32 46 45 58 13 13 24 30 24 38 0 8 21 34 48 58 26 23 61 67 77 98 19 34 51 71 87 100 32 25 92 84 133 131 41 47 98 108 126 137 27 28 66 60 87 70 22 11 46 35 62 63 15 25 37 51 51 58 15 8 41 10 69 7 25 -3 61 -6 80 -5z m-5151 -336 c12 -15 21 -32 21 -39 0 -7 15 -26 32 -41 18 -15 41 -40 50 -56 10 -16 18 -35 18 -43 0 -8 -12 -17 -27 -20 -16 -4 -35 -10 -43 -16 -8 -5 -26 -14 -40 -20 -14 -6 -90 -20 -170 -31 -80 -11 -176 -22 -215 -24 -38 -3 -79 -9 -90 -14 -11 -4 -51 -11 -89 -15 -38 -3 -83 -12 -100 -19 -18 -7 -68 -17 -111 -21 -44 -4 -140 -9 -215 -11 -74 -2 -166 -6 -205 -9 -38 -2 -126 -9 -195 -14 -69 -4 -167 -14 -218 -21 -71 -9 -100 -10 -119 -1 -19 9 -64 9 -176 1 -84 -6 -180 -13 -214 -15 -33 -1 -66 -6 -71 -9 -6 -4 -37 1 -69 10 -56 15 -62 15 -134 -5 -40 -11 -103 -23 -139 -27 -57 -5 -72 -3 -122 21 -32 14 -58 33 -58 41 0 8 8 17 18 20 9 3 38 16 65 30 26 14 60 24 75 23 15 -2 54 1 87 5 33 5 71 14 85 21 14 7 53 15 88 18 35 4 72 12 83 17 14 8 29 8 52 -1 28 -10 39 -9 68 6 18 10 59 19 89 21 30 1 84 7 121 12 36 5 83 18 105 29 21 11 59 23 84 27 25 4 67 10 94 13 27 2 61 9 75 15 14 6 53 14 86 19 33 5 94 13 135 19 41 6 116 20 165 31 50 11 133 22 185 24 52 2 160 7 240 10 96 4 150 11 160 19 8 8 56 17 105 21 50 5 119 9 155 11 36 2 86 -2 112 -7 37 -9 52 -8 75 5 15 8 38 15 50 16 12 0 31 -12 42 -26z"
       id="path6545"
       style="fill:#626262;fill-opacity:1" />
    <path
       d="M31230 8909 c-19 -10 -42 -19 -50 -19 -8 0 -33 -7 -55 -15 -22 -7 -58 -23 -81 -34 -22 -11 -54 -23 -70 -27 -16 -4 -42 -18 -57 -31 -16 -12 -34 -23 -40 -23 -7 0 -44 -24 -82 -52 -39 -29 -84 -60 -100 -68 -17 -8 -46 -26 -65 -39 -19 -14 -67 -56 -106 -93 -40 -37 -77 -68 -83 -68 -6 0 -46 -35 -90 -77 -43 -43 -104 -100 -135 -127 -39 -34 -68 -50 -89 -51 -17 -1 -32 -6 -34 -11 -2 -5 -12 -24 -23 -42 -11 -18 -28 -36 -37 -39 -9 -4 -35 -25 -58 -47 -22 -23 -73 -69 -112 -103 -39 -35 -78 -63 -87 -63 -8 0 -21 -8 -28 -18 -7 -11 -30 -24 -50 -31 -21 -7 -38 -18 -38 -25 0 -7 -12 -21 -27 -32 -16 -11 -36 -23 -45 -27 -10 -3 -18 -10 -18 -15 0 -5 -19 -22 -42 -38 -24 -16 -72 -51 -108 -79 -36 -28 -85 -61 -110 -74 -25 -14 -56 -33 -69 -43 -13 -10 -34 -18 -47 -18 -13 0 -28 -8 -33 -19 -7 -13 -18 -17 -35 -14 -14 3 -45 -3 -70 -12 -25 -10 -53 -26 -62 -36 -9 -10 -21 -16 -26 -13 -5 3 -17 -1 -26 -9 -9 -8 -42 -26 -73 -41 -31 -14 -68 -26 -82 -26 -14 0 -30 -6 -34 -14 -4 -7 -18 -18 -30 -25 -12 -6 -29 -11 -38 -11 -9 0 -28 -8 -43 -18 -15 -11 -45 -31 -68 -45 -22 -15 -49 -27 -60 -27 -12 0 -29 -9 -40 -21 -10 -12 -41 -33 -67 -48 -27 -14 -67 -36 -89 -48 -23 -13 -44 -26 -47 -31 -3 -4 -28 -21 -56 -37 -27 -17 -70 -38 -94 -47 -24 -9 -51 -23 -60 -31 -9 -8 -31 -22 -49 -31 -17 -9 -69 -21 -113 -27 -68 -8 -85 -7 -105 6 -13 8 -31 15 -40 15 -12 0 -15 7 -11 28 2 15 19 61 37 102 18 41 37 84 43 95 6 11 26 49 44 84 19 35 44 78 56 95 12 17 27 38 32 47 6 9 23 34 40 55 16 22 47 53 68 69 22 17 50 41 63 55 13 14 39 45 56 69 23 32 52 54 98 77 38 18 83 51 108 78 23 25 42 49 42 53 1 5 24 24 52 43 28 19 64 47 82 61 17 14 45 34 63 43 18 9 49 34 69 56 21 22 43 40 51 40 8 0 25 11 39 25 14 14 54 44 88 65 35 22 67 40 72 40 5 0 26 9 48 20 21 12 76 28 123 37 64 12 87 13 96 4 6 -6 12 -26 13 -43 1 -18 10 -38 20 -45 10 -7 36 -13 58 -13 25 0 64 11 98 27 56 27 58 29 81 98 14 38 32 94 41 124 9 29 16 70 16 90 -1 20 -7 64 -14 98 -10 45 -24 76 -50 107 -20 25 -45 48 -56 51 -10 3 -37 1 -59 -5 -22 -6 -66 -23 -98 -39 -32 -16 -78 -35 -103 -42 -25 -7 -52 -18 -60 -25 -8 -7 -31 -24 -50 -38 -19 -14 -61 -39 -93 -57 -32 -18 -66 -43 -76 -55 -10 -13 -49 -44 -86 -68 -37 -25 -71 -43 -76 -40 -5 3 -9 -4 -9 -15 0 -12 -7 -21 -15 -21 -9 0 -34 -12 -57 -27 -23 -16 -56 -41 -72 -57 -17 -15 -54 -39 -82 -51 -28 -13 -54 -30 -57 -39 -3 -8 -39 -40 -80 -70 -57 -42 -79 -53 -99 -49 -18 3 -33 -2 -47 -16 -12 -12 -21 -31 -21 -42 0 -13 -24 -44 -61 -80 -34 -33 -65 -59 -70 -59 -4 0 -24 -16 -45 -35 -20 -20 -49 -38 -63 -41 -14 -3 -32 -8 -39 -10 -9 -2 -11 -11 -7 -25 6 -18 4 -20 -16 -14 -22 7 -23 6 -10 -9 13 -15 13 -19 0 -27 -8 -5 -19 -9 -26 -9 -6 0 -13 12 -15 28 -2 18 -9 28 -23 30 -11 1 -25 -1 -31 -5 -6 -5 -15 -23 -19 -40 -6 -32 -5 -33 24 -33 17 0 31 -3 31 -6 0 -3 -9 -19 -20 -34 -11 -16 -29 -31 -39 -35 -10 -3 -32 -25 -49 -49 -21 -29 -41 -45 -60 -49 -20 -4 -54 -33 -107 -92 -43 -47 -83 -85 -90 -85 -6 0 -35 -26 -65 -57 -29 -32 -65 -63 -81 -70 -19 -8 -31 -23 -38 -50 -6 -21 -11 -50 -11 -65 0 -15 -5 -39 -11 -54 -8 -22 -6 -38 6 -71 11 -28 38 -62 81 -101 47 -43 83 -65 130 -82 59 -21 83 -23 272 -23 l207 -1 55 28 c30 16 80 40 110 54 30 13 69 32 85 40 17 8 50 26 75 39 24 14 60 37 80 52 19 15 51 34 70 41 19 8 52 25 73 38 20 14 37 28 37 32 0 4 15 10 32 14 18 4 48 22 68 40 19 19 54 39 76 45 23 6 58 22 78 36 20 14 41 25 46 25 5 0 29 10 52 22 24 12 47 28 51 35 5 7 13 11 18 7 5 -3 23 6 40 20 17 14 35 26 40 26 5 0 9 -3 9 -7 0 -5 -16 -28 -35 -52 -19 -24 -35 -48 -35 -53 0 -5 -8 -7 -19 -3 -15 5 -20 -1 -26 -32 -3 -21 -19 -50 -33 -65 -15 -15 -34 -36 -43 -46 -9 -10 -19 -23 -22 -29 -4 -6 -2 -24 2 -41 5 -17 12 -66 16 -108 3 -42 10 -84 14 -93 5 -9 18 -24 29 -34 19 -17 29 -18 114 -8 51 6 132 12 180 14 74 3 91 7 116 28 16 13 46 34 68 47 21 13 66 39 99 59 33 19 78 42 100 49 21 8 46 21 55 28 8 7 30 21 48 30 19 10 54 33 79 52 24 19 48 34 53 34 4 0 31 16 60 35 29 19 58 35 66 35 7 0 18 10 25 21 9 17 17 20 45 16 26 -4 34 -2 34 9 0 8 22 37 50 64 27 28 53 50 57 50 4 0 20 10 34 23 15 12 55 44 90 72 35 27 82 62 105 76 23 15 51 30 63 34 12 3 38 24 57 45 20 21 46 40 57 42 13 2 23 13 27 28 4 15 15 26 30 30 14 3 27 15 30 27 3 12 25 36 50 54 25 18 57 44 71 58 14 14 43 37 64 51 21 14 66 52 99 84 34 33 73 69 88 80 15 12 54 40 87 64 33 23 65 42 71 42 6 0 15 11 20 25 7 19 17 25 42 27 18 1 46 1 62 0 16 -2 53 7 83 18 29 11 65 20 78 20 13 0 27 -4 30 -10 3 -5 10 -10 16 -10 5 0 9 6 9 13 0 6 15 21 33 33 17 11 86 35 152 52 66 18 134 37 150 43 17 6 46 16 66 22 28 8 42 7 67 -5 26 -13 33 -14 42 -3 6 7 43 23 83 35 50 15 87 21 122 17 31 -3 60 0 75 8 14 7 49 39 79 70 49 51 52 58 38 72 -10 10 -34 16 -64 17 -26 0 -101 -5 -165 -11 -65 -7 -126 -17 -137 -23 -11 -5 -41 -10 -66 -10 -25 0 -56 -5 -67 -11 -12 -6 -40 -13 -63 -14 -23 -2 -67 -6 -97 -10 -43 -5 -57 -4 -67 9 -10 12 -23 15 -47 10 -26 -5 -36 -1 -50 15 -10 12 -26 21 -36 21 -9 0 -22 8 -27 19 -6 10 -21 21 -34 25 -16 4 -28 19 -41 55 -15 42 -16 55 -5 89 6 22 9 55 5 74 -5 23 -23 48 -64 84 -31 28 -68 53 -82 57 -15 3 -38 -2 -60 -14z m-536 -654 c-4 -15 -1 -32 6 -40 10 -12 7 -22 -16 -52 -15 -21 -37 -48 -48 -59 -12 -12 -37 -43 -56 -68 -19 -25 -58 -65 -87 -88 -28 -24 -53 -51 -56 -60 -4 -14 -16 -18 -46 -18 -35 0 -41 -3 -41 -20 0 -11 -6 -23 -13 -26 -8 -3 -29 -36 -47 -74 -23 -47 -40 -70 -53 -72 -11 -2 -30 -19 -41 -40 -12 -20 -41 -52 -66 -71 -25 -20 -58 -49 -75 -65 -16 -17 -49 -40 -72 -51 -23 -12 -47 -30 -53 -42 -7 -11 -26 -27 -44 -34 -17 -7 -40 -23 -50 -34 -11 -12 -30 -21 -42 -21 -14 0 -43 -19 -75 -50 -28 -27 -59 -50 -69 -50 -10 0 -23 -7 -30 -15 -7 -8 -20 -15 -29 -15 -10 0 -41 -20 -70 -45 -29 -25 -60 -45 -69 -45 -10 0 -34 -11 -54 -25 -20 -14 -42 -25 -47 -25 -6 0 -11 5 -11 11 0 6 5 19 11 30 7 15 7 24 -1 33 -7 9 -7 22 -1 38 5 13 15 29 22 35 8 5 26 13 40 16 14 4 62 27 107 53 45 25 82 50 82 55 0 5 6 9 13 9 6 0 50 34 96 75 46 41 88 75 93 75 5 0 34 19 65 43 30 23 65 48 77 56 11 8 30 23 41 32 11 10 32 20 47 24 14 4 50 31 78 61 28 30 57 54 63 54 7 0 24 12 40 25 15 13 27 29 27 35 0 6 18 30 40 54 23 24 53 46 69 49 22 5 29 11 29 31 0 14 11 39 26 56 14 17 26 36 26 42 0 5 19 30 43 55 23 24 59 61 80 81 21 20 55 42 75 48 21 6 41 20 47 32 5 12 13 22 18 22 4 0 5 -11 1 -25z"
       id="path6547"
       style="fill:#626262;fill-opacity:1" />
    <path
       d="M27528 8686 c-35 -29 -81 -73 -103 -97 -22 -24 -67 -69 -100 -100 -33 -30 -77 -65 -97 -78 -21 -12 -47 -35 -58 -51 -11 -16 -31 -32 -43 -36 -12 -4 -28 -15 -35 -25 -7 -11 -19 -19 -26 -19 -7 0 -23 -11 -36 -25 -13 -14 -31 -25 -40 -25 -9 0 -32 -14 -49 -31 -24 -23 -39 -29 -56 -25 -19 5 -24 2 -27 -16 -2 -12 -9 -24 -17 -26 -10 -3 -12 0 -7 14 4 10 11 48 15 84 5 36 18 84 30 106 12 23 26 66 32 95 5 30 12 74 15 99 5 43 3 46 -40 83 l-45 37 -113 5 c-62 3 -146 1 -187 -4 -58 -7 -81 -16 -110 -39 -20 -16 -57 -40 -81 -52 -25 -13 -60 -35 -79 -49 -19 -14 -44 -35 -56 -46 -12 -11 -42 -35 -66 -53 -24 -18 -73 -55 -109 -83 -36 -28 -67 -54 -70 -58 -3 -3 -23 -19 -45 -36 -22 -16 -55 -45 -73 -64 -18 -20 -52 -51 -77 -71 -24 -19 -77 -62 -117 -95 -40 -33 -95 -79 -123 -103 -27 -24 -61 -59 -76 -77 -14 -18 -44 -49 -68 -69 -24 -20 -54 -36 -66 -36 -17 0 -29 -9 -40 -32 -9 -18 -29 -47 -44 -65 -16 -17 -40 -37 -53 -44 -12 -7 -29 -20 -36 -31 -7 -10 -19 -18 -25 -18 -7 0 -25 -13 -40 -29 -15 -16 -42 -34 -60 -40 -18 -7 -45 -29 -62 -52 -16 -22 -39 -42 -52 -45 -12 -3 -34 -21 -48 -40 -14 -19 -37 -37 -50 -40 -13 -3 -36 -21 -50 -39 -14 -19 -25 -38 -25 -43 0 -5 -20 -27 -44 -48 -24 -22 -59 -51 -77 -67 -19 -15 -53 -44 -77 -64 -24 -20 -52 -52 -63 -69 -11 -18 -35 -41 -53 -52 -19 -11 -50 -20 -69 -19 -22 1 -44 -6 -57 -18 -11 -10 -20 -24 -20 -32 0 -8 -12 -30 -26 -49 -15 -19 -35 -34 -46 -34 -10 0 -40 -11 -66 -25 -26 -14 -67 -41 -92 -59 -25 -19 -52 -35 -60 -35 -8 -1 -21 -10 -27 -20 -7 -10 -26 -26 -44 -35 -18 -9 -34 -14 -37 -11 -3 2 1 18 8 34 7 17 27 41 45 55 18 14 36 38 40 53 3 15 17 39 30 53 13 14 31 41 39 60 8 20 24 44 36 55 12 11 31 37 41 58 11 20 29 43 40 50 11 6 29 31 40 55 11 24 30 48 42 53 12 6 49 56 82 112 40 67 89 132 145 190 47 49 99 99 117 111 17 11 59 43 93 69 34 26 78 53 98 60 20 7 41 21 47 32 5 11 80 91 165 178 85 86 160 157 167 157 7 0 38 26 70 58 32 32 66 61 76 65 10 4 25 21 35 38 9 18 28 46 42 63 14 17 34 43 43 58 9 15 17 47 17 70 0 24 -6 54 -13 67 -6 13 -21 29 -32 35 -11 6 -39 23 -62 38 -23 15 -48 28 -56 28 -8 0 -20 -7 -27 -15 -7 -8 -19 -15 -27 -15 -8 0 -27 -7 -43 -15 -17 -9 -43 -40 -64 -78 -19 -34 -43 -70 -53 -79 -10 -9 -29 -32 -43 -50 -14 -18 -50 -57 -80 -85 -30 -29 -60 -53 -67 -53 -6 0 -18 -8 -25 -18 -7 -10 -45 -39 -84 -65 -40 -26 -76 -47 -80 -47 -5 0 -20 -9 -34 -20 -14 -11 -33 -20 -42 -20 -9 0 -21 -8 -27 -17 -5 -10 -13 -14 -17 -10 -4 4 -3 38 3 76 6 39 19 85 28 103 10 18 21 62 25 98 4 36 13 96 20 133 9 52 9 75 0 95 -6 16 -39 44 -79 69 -38 24 -82 46 -99 49 -22 5 -41 0 -65 -15 -18 -11 -62 -27 -98 -36 -35 -8 -77 -15 -93 -15 -16 0 -44 -12 -63 -27 -19 -16 -66 -60 -104 -99 -38 -39 -89 -81 -114 -94 -25 -13 -62 -37 -82 -54 -19 -17 -61 -55 -92 -84 -31 -30 -78 -68 -106 -86 -27 -18 -58 -35 -67 -39 -9 -3 -25 -21 -34 -39 -9 -18 -40 -58 -68 -89 -28 -30 -76 -84 -106 -118 -30 -35 -66 -74 -80 -88 -13 -14 -29 -35 -35 -48 -5 -12 -24 -38 -40 -56 -17 -19 -53 -52 -80 -74 -28 -22 -85 -74 -127 -117 -42 -42 -88 -84 -102 -93 -14 -9 -30 -32 -36 -50 -6 -19 -20 -37 -31 -40 -10 -4 -19 -10 -19 -15 0 -5 -93 -102 -206 -216 -115 -115 -210 -219 -216 -236 -6 -18 -25 -36 -49 -49 -21 -10 -39 -25 -39 -32 0 -7 -13 -25 -28 -40 -15 -15 -32 -27 -38 -27 -5 0 -30 -18 -55 -40 -36 -30 -51 -54 -69 -102 -12 -35 -37 -99 -56 -143 -18 -44 -36 -99 -39 -123 -5 -30 -2 -49 8 -66 11 -17 29 -25 64 -30 26 -4 67 -9 90 -11 24 -2 46 -6 50 -8 5 -3 48 3 97 14 49 10 99 16 111 13 15 -4 24 0 28 10 3 8 28 26 54 40 26 14 69 45 96 70 26 24 64 54 85 65 20 12 70 37 110 56 39 20 72 40 72 45 0 6 5 10 11 10 7 0 32 20 58 44 25 25 69 61 96 80 28 19 69 44 93 55 23 11 42 24 42 29 0 4 17 18 38 30 20 12 46 30 57 39 11 10 28 30 37 45 10 15 29 33 42 40 13 7 59 40 102 73 43 33 86 65 95 70 10 6 47 27 83 48 36 21 68 42 71 47 3 6 17 10 31 10 13 0 24 -4 24 -9 0 -4 -9 -20 -20 -34 -11 -14 -20 -30 -20 -37 0 -7 -9 -23 -20 -37 -11 -14 -20 -34 -20 -44 0 -10 -9 -23 -20 -29 -11 -6 -26 -23 -34 -38 -8 -15 -53 -72 -100 -126 -47 -54 -86 -101 -86 -105 0 -5 -16 -29 -36 -55 -19 -26 -38 -62 -41 -81 -5 -29 -1 -38 28 -65 l34 -31 120 6 c70 4 145 15 180 26 33 10 74 19 91 19 17 0 37 7 44 14 6 8 37 21 68 27 46 11 68 23 111 64 30 27 75 71 101 98 26 26 51 47 57 47 5 0 54 50 108 112 60 70 121 128 159 153 33 22 88 62 121 89 33 26 65 53 70 60 6 7 55 46 110 88 55 42 118 93 140 114 22 21 56 49 75 62 19 13 44 32 55 42 11 10 65 61 121 114 55 53 106 96 113 96 7 0 45 28 85 61 39 34 76 72 83 84 6 12 39 36 72 54 33 17 64 38 68 45 5 8 33 41 64 75 31 33 60 61 63 61 4 0 24 12 44 28 20 15 39 30 40 35 2 4 34 21 70 38 37 17 75 39 86 48 10 9 22 26 27 39 5 14 20 25 39 29 18 3 52 27 83 57 28 28 66 57 83 64 17 8 37 24 44 37 9 16 28 28 59 35 25 6 73 16 105 21 33 5 61 7 64 5 2 -3 1 -17 -2 -31 -4 -14 -31 -51 -61 -81 -30 -30 -57 -64 -60 -74 -3 -10 -15 -22 -25 -25 -10 -3 -22 -14 -25 -24 -3 -10 -41 -53 -85 -96 -44 -42 -80 -81 -80 -86 0 -5 -6 -9 -14 -9 -8 0 -16 -5 -18 -11 -2 -6 -64 -77 -138 -157 -74 -80 -171 -182 -216 -226 -44 -45 -96 -95 -115 -111 -18 -17 -50 -52 -69 -78 -19 -26 -58 -71 -86 -100 -28 -29 -106 -104 -174 -167 -67 -63 -145 -139 -173 -168 -28 -29 -61 -55 -74 -58 -13 -4 -23 -9 -23 -13 0 -3 -18 -29 -41 -56 -22 -28 -67 -79 -100 -115 -32 -36 -76 -83 -98 -105 -22 -22 -49 -59 -60 -82 -12 -23 -21 -56 -21 -73 0 -23 6 -33 23 -39 17 -7 47 -3 98 11 41 11 93 32 117 48 24 16 56 31 71 35 15 3 51 28 79 55 31 29 62 50 75 50 12 0 37 9 55 20 17 11 32 26 32 34 0 7 7 19 15 26 8 7 15 19 15 28 0 9 10 30 22 48 12 17 44 46 71 65 27 18 57 49 67 69 10 19 37 58 60 85 23 28 57 57 76 66 18 10 64 44 101 76 37 33 79 67 93 76 14 10 43 29 65 44 22 15 45 27 50 28 6 0 25 11 42 24 18 14 35 32 38 40 3 9 28 32 55 51 28 19 64 47 80 63 16 15 36 27 44 27 8 0 38 24 66 53 28 28 65 71 82 94 17 23 61 62 97 86 36 25 80 52 98 60 17 9 60 44 94 77 35 33 70 60 77 60 8 0 44 29 80 64 37 35 94 82 127 104 33 22 72 43 86 47 14 3 37 19 51 34 14 15 48 43 74 62 26 19 81 66 123 105 47 44 94 78 125 90 26 10 51 26 54 34 2 8 16 27 30 42 18 19 32 26 46 22 16 -4 28 3 44 25 12 17 27 31 32 31 6 0 10 -11 10 -24 0 -15 -21 -51 -51 -88 -28 -35 -58 -63 -67 -63 -12 0 -16 -7 -14 -23 2 -15 -1 -20 -11 -17 -7 3 -20 -2 -29 -12 -8 -10 -21 -35 -27 -55 -7 -21 -22 -46 -34 -56 -12 -9 -44 -42 -72 -72 -27 -30 -63 -59 -79 -65 -21 -7 -32 -19 -38 -41 -4 -17 -18 -42 -32 -55 -13 -13 -39 -38 -57 -55 -19 -17 -55 -45 -80 -63 -26 -18 -52 -42 -58 -55 -7 -12 -25 -30 -41 -41 -17 -11 -30 -23 -30 -28 0 -4 -19 -26 -42 -50 -24 -23 -64 -56 -89 -73 -26 -18 -63 -56 -83 -86 -20 -30 -81 -100 -136 -155 -55 -55 -100 -105 -100 -112 0 -6 -10 -21 -22 -33 -12 -12 -36 -43 -53 -69 -18 -25 -35 -53 -38 -62 -3 -9 -24 -28 -47 -42 -22 -14 -40 -29 -40 -34 0 -4 -13 -26 -30 -47 -16 -22 -41 -50 -55 -64 -14 -14 -32 -48 -40 -75 -14 -45 -14 -51 5 -87 11 -21 20 -47 20 -57 0 -10 7 -35 15 -55 10 -23 25 -40 43 -46 15 -6 32 -13 38 -17 6 -5 23 -16 38 -27 22 -16 30 -17 56 -6 16 7 43 33 60 57 16 25 52 70 80 100 27 29 50 59 50 66 0 7 14 26 31 43 17 16 45 49 61 74 17 25 44 59 60 76 16 17 35 49 43 70 9 26 21 41 36 44 15 4 37 30 64 75 23 39 70 101 106 139 35 37 68 75 73 85 5 9 20 29 35 45 14 15 43 39 63 52 20 13 39 32 42 42 4 11 46 54 94 96 48 42 117 105 153 139 36 34 84 76 107 92 23 17 81 75 128 130 48 55 117 132 153 171 36 38 82 92 101 118 19 26 45 60 58 76 12 15 22 35 22 43 0 9 5 19 10 22 6 3 10 22 10 42 0 20 -7 44 -16 54 -9 10 -19 44 -23 76 -4 32 -13 69 -20 83 -8 14 -24 40 -38 58 -23 30 -28 32 -87 32 -39 0 -69 5 -82 15 -10 8 -24 15 -31 15 -6 0 -40 -24 -75 -54z m-3204 -671 c10 -20 21 -56 23 -79 4 -34 -1 -49 -26 -86 -17 -25 -31 -50 -31 -55 0 -6 -11 -27 -25 -47 -14 -20 -25 -46 -25 -57 0 -11 -5 -23 -11 -27 -6 -3 -19 -26 -29 -50 -11 -24 -34 -59 -52 -77 -18 -19 -43 -45 -55 -58 -13 -13 -30 -31 -38 -39 -8 -8 -26 -27 -41 -41 -14 -15 -35 -35 -46 -45 -10 -11 -26 -27 -35 -36 -8 -9 -30 -24 -49 -33 -21 -10 -36 -26 -40 -42 -4 -15 -19 -30 -38 -39 -17 -7 -51 -34 -75 -59 -25 -24 -54 -48 -65 -51 -12 -4 -45 -25 -75 -48 -29 -23 -69 -51 -87 -64 -19 -12 -34 -26 -34 -31 0 -5 -13 -17 -29 -28 -16 -10 -55 -35 -88 -57 -32 -21 -69 -46 -83 -56 -14 -9 -41 -25 -60 -35 -19 -10 -51 -32 -70 -49 -19 -17 -80 -62 -135 -99 -55 -37 -131 -90 -170 -117 -38 -27 -99 -62 -134 -77 -58 -25 -64 -25 -73 -10 -5 9 -15 17 -23 17 -8 0 -11 -7 -8 -20 4 -13 -1 -26 -13 -35 -11 -8 -27 -15 -38 -15 -15 0 -17 5 -11 27 3 15 16 41 28 57 11 17 37 50 56 74 19 23 41 42 47 42 6 0 20 12 29 28 10 15 35 50 56 77 20 28 41 62 44 77 4 15 25 47 46 72 21 24 39 53 39 63 0 11 14 38 31 61 17 23 35 42 39 42 5 0 16 15 25 33 8 17 52 73 98 124 45 50 99 112 120 136 20 25 37 48 37 52 0 4 15 24 33 46 19 21 52 52 74 68 22 16 50 45 62 65 13 20 56 61 97 92 41 31 84 68 96 84 13 15 37 34 53 42 17 9 42 18 57 22 20 4 30 16 40 48 13 37 21 45 57 59 23 8 46 20 49 26 4 6 35 25 68 42 34 17 68 31 75 31 8 0 38 16 68 35 30 19 71 38 90 41 20 4 43 12 51 19 8 7 22 15 30 17 8 3 29 -1 45 -7 18 -8 38 -27 49 -50z"
       id="path6549"
       style="fill:#626262;fill-opacity:1" />
    <path
       d="M14896 8691 c-3 -4 -3 -11 0 -14 3 -2 14 -2 25 0 16 5 18 8 7 14 -7 5 -16 9 -20 9 -4 0 -9 -4 -12 -9z"
       id="path6551"
       style="fill:#626262;fill-opacity:1" />
    <path
       d="M15452 8359 c-12 -5 -22 -13 -22 -18 0 -5 -17 -16 -39 -24 -21 -9 -48 -13 -59 -10 -12 3 -32 -3 -46 -14 -14 -10 -30 -35 -36 -55 -7 -26 -20 -43 -40 -53 -15 -8 -51 -37 -79 -64 -28 -27 -59 -52 -70 -56 -10 -3 -26 -14 -36 -25 -10 -11 -25 -20 -33 -20 -8 0 -20 8 -27 17 -11 15 -15 12 -40 -25 -15 -23 -38 -45 -50 -48 -12 -3 -32 -19 -44 -35 -12 -16 -50 -47 -85 -69 -35 -22 -71 -51 -80 -65 -8 -13 -26 -27 -38 -31 -13 -3 -26 -12 -30 -18 -4 -6 -8 -21 -8 -34 0 -15 -11 -29 -35 -43 -19 -12 -35 -24 -35 -29 0 -4 -13 -13 -30 -20 -16 -7 -32 -20 -35 -29 -3 -9 -21 -25 -41 -36 -19 -10 -44 -32 -55 -47 -13 -18 -29 -28 -45 -28 -14 0 -27 -7 -31 -17 -3 -10 -19 -35 -36 -55 -16 -21 -36 -38 -46 -38 -9 0 -54 -38 -100 -85 -45 -47 -86 -85 -89 -85 -4 0 -37 -29 -75 -65 -37 -36 -73 -65 -81 -65 -7 0 -50 -36 -96 -80 -56 -55 -80 -85 -76 -96 3 -9 6 -18 6 -20 0 -2 11 -4 24 -4 13 0 34 10 47 23 13 13 42 36 64 52 22 16 61 47 86 70 26 22 64 54 85 71 22 17 50 37 64 44 14 7 44 29 68 49 24 20 73 65 110 100 37 35 86 72 108 82 23 10 49 30 58 45 10 14 37 34 62 44 29 13 52 32 65 55 13 21 32 38 48 42 14 3 42 19 61 35 19 17 57 50 84 75 27 24 60 50 75 56 14 7 31 18 37 27 10 12 14 12 28 1 14 -11 16 -11 16 4 0 9 21 36 46 60 25 24 60 50 78 59 18 9 44 32 57 51 13 20 51 53 85 75 33 21 79 59 101 84 22 24 64 58 94 74 30 15 75 40 101 55 26 15 54 27 62 27 9 0 16 -6 16 -13 0 -7 -5 -18 -12 -25 -7 -7 -20 -12 -31 -12 -12 0 -23 -11 -30 -30 -6 -16 -15 -30 -18 -30 -4 0 -17 -17 -30 -37 -12 -21 -42 -57 -66 -80 -25 -24 -49 -43 -55 -43 -6 0 -8 -7 -4 -15 3 -9 0 -15 -9 -15 -8 0 -15 -4 -15 -10 0 -5 -17 -27 -37 -48 -21 -21 -51 -62 -68 -90 -16 -28 -34 -52 -39 -52 -5 0 -29 -17 -55 -37 -25 -21 -52 -37 -61 -35 -10 2 -16 -6 -17 -25 0 -15 -9 -33 -20 -40 -10 -7 -33 -27 -50 -45 -18 -18 -33 -38 -33 -44 0 -7 -18 -30 -40 -53 -22 -22 -57 -49 -77 -58 -21 -10 -43 -30 -50 -44 -7 -15 -33 -35 -62 -49 -28 -13 -53 -30 -56 -39 -3 -9 -25 -27 -49 -40 -24 -14 -63 -48 -86 -78 -24 -29 -48 -53 -55 -53 -6 0 -38 -25 -70 -55 -33 -30 -62 -55 -66 -55 -3 0 -19 -19 -35 -42 -16 -24 -36 -48 -45 -55 -8 -6 -34 -36 -56 -65 -22 -29 -44 -64 -48 -78 -4 -14 -27 -49 -51 -78 -24 -29 -55 -79 -70 -110 -15 -31 -40 -72 -55 -90 -16 -18 -29 -37 -29 -42 0 -6 -7 -10 -15 -10 -8 0 -22 -11 -31 -25 -9 -14 -13 -32 -10 -41 4 -10 -1 -24 -13 -35 -19 -17 -19 -21 -4 -59 9 -22 24 -42 35 -46 10 -3 31 -30 45 -60 18 -39 33 -56 51 -61 13 -3 48 2 77 11 29 9 68 27 86 41 19 14 49 32 67 40 17 8 32 22 32 30 0 8 18 24 40 35 22 11 55 34 75 51 25 22 35 39 35 61 0 26 -3 29 -22 23 -13 -4 -47 -23 -77 -42 -41 -27 -59 -33 -70 -26 -9 6 -17 17 -19 26 -2 9 13 41 32 70 20 30 36 57 36 60 0 3 11 23 25 44 14 21 42 58 63 83 20 24 48 56 62 70 14 14 49 54 78 90 30 36 97 111 150 166 54 56 104 113 113 126 9 13 44 43 78 66 34 23 68 42 75 42 7 0 18 11 24 25 7 15 24 31 40 38 15 7 47 30 72 52 24 22 57 52 73 68 16 15 31 27 34 27 3 0 22 17 42 38 20 20 44 50 54 65 9 15 26 27 36 27 12 0 29 17 45 45 15 25 31 45 36 45 4 0 27 18 49 39 23 22 41 46 41 54 0 9 3 17 8 19 4 2 47 48 97 103 49 55 117 128 150 163 33 34 77 90 98 124 25 41 37 73 37 97 0 20 -9 55 -20 78 -10 24 -29 47 -42 52 -13 6 -70 19 -128 31 -58 11 -112 22 -120 24 -9 2 -26 -1 -38 -5z"
       id="path6553"
       style="fill:#626262;fill-opacity:1" />
    <path
       d="M22903 8320 c-13 -5 -23 -18 -23 -28 0 -10 6 -30 13 -46 10 -22 16 -26 37 -21 14 4 61 6 105 5 71 -1 85 -4 123 -31 l44 -30 34 31 c32 28 40 30 113 30 43 0 99 3 125 6 25 4 46 10 46 15 0 5 -10 14 -22 21 -13 6 -57 17 -99 23 -43 6 -88 8 -105 3 -16 -5 -76 -6 -134 -4 -62 3 -120 11 -142 20 -21 9 -50 16 -65 15 -15 0 -38 -4 -50 -9z"
       id="path6555"
       style="fill:#626262;fill-opacity:1" />
    <path
       d="M23560 8286 c-6 -8 -10 -25 -8 -38 2 -19 10 -24 40 -26 20 -2 51 4 67 13 17 8 31 22 31 29 0 8 -14 19 -31 25 -18 6 -44 11 -59 11 -15 0 -33 -7 -40 -14z"
       id="path6557"
       style="fill:#626262;fill-opacity:1" />
    <path
       d="M16608 8169 c-27 -17 -48 -38 -48 -46 0 -8 3 -13 8 -11 4 2 33 16 65 31 34 16 57 33 54 40 -2 6 -10 13 -18 15 -8 1 -35 -12 -61 -29z"
       id="path6559"
       style="fill:#626262;fill-opacity:1" />
    <path
       d="M17335 8030 c-3 -5 3 -10 14 -10 12 0 21 5 21 10 0 6 -6 10 -14 10 -8 0 -18 -4 -21 -10z"
       id="path6561"
       style="fill:#626262;fill-opacity:1" />
    <path
       d="M15055 7790 c3 -5 8 -10 11 -10 2 0 4 5 4 10 0 6 -5 10 -11 10 -5 0 -7 -4 -4 -10z"
       id="path6563"
       style="fill:#626262;fill-opacity:1" />
    <path
       d="M27555 7700 c-3 -5 8 -24 24 -42 l29 -33 12 27 c7 15 10 34 7 42 -4 10 -18 16 -36 16 -16 0 -32 -4 -36 -10z"
       id="path6565"
       style="fill:#626262;fill-opacity:1" />
    <path
       d="M27640 7656 c0 -14 5 -28 10 -31 6 -4 17 -1 25 5 8 7 15 21 15 31 0 14 -7 19 -25 19 -20 0 -25 -5 -25 -24z"
       id="path6567"
       style="fill:#626262;fill-opacity:1" />
    <path
       d="M18546 7308 c-9 -12 -16 -26 -16 -31 0 -5 12 -7 28 -5 21 2 28 9 30 31 2 19 -1 27 -12 27 -8 0 -22 -10 -30 -22z"
       id="path6569"
       style="fill:#626262;fill-opacity:1" />
    <path
       d="M18375 7161 c-27 -21 -63 -41 -78 -45 -19 -4 -33 -17 -42 -39 -7 -18 -10 -36 -6 -40 5 -4 20 -5 35 -1 14 3 35 19 46 35 11 15 29 31 39 34 11 3 36 26 56 50 29 36 33 45 18 44 -10 0 -40 -17 -68 -38z"
       id="path6571"
       style="fill:#626262;fill-opacity:1" />
  </g>
</svg>
