<?xml version="1.0" encoding="UTF-8" standalone="no"?>
<!-- Created with Inkscape (http://www.inkscape.org/) -->

<svg
   xmlns:dc="http://purl.org/dc/elements/1.1/"
   xmlns:cc="http://creativecommons.org/ns#"
   xmlns:rdf="http://www.w3.org/1999/02/22-rdf-syntax-ns#"
   xmlns:svg="http://www.w3.org/2000/svg"
   xmlns="http://www.w3.org/2000/svg"
   xmlns:sodipodi="http://sodipodi.sourceforge.net/DTD/sodipodi-0.dtd"
   xmlns:inkscape="http://www.inkscape.org/namespaces/inkscape"
   width="116.67428mm"
   height="113.96291mm"
   viewBox="0 0 116.67428 113.96291"
   version="1.1"
   id="svg4580"
   inkscape:version="0.92.1 r15371"
   sodipodi:docname="word-pdf.svg">
  <defs
     id="defs4574" />
  <sodipodi:namedview
     id="base"
     pagecolor="#ffffff"
     bordercolor="#666666"
     borderopacity="1.0"
     inkscape:pageopacity="0.0"
     inkscape:pageshadow="2"
     inkscape:zoom="0.35"
     inkscape:cx="-287.79612"
     inkscape:cy="469.20952"
     inkscape:document-units="mm"
     inkscape:current-layer="layer1"
     showgrid="false"
     fit-margin-top="1"
     fit-margin-left="1"
     fit-margin-right="1"
     fit-margin-bottom="1"
     inkscape:window-width="1366"
     inkscape:window-height="708"
     inkscape:window-x="0"
     inkscape:window-y="31"
     inkscape:window-maximized="1" />
  <metadata
     id="metadata4577">
    <rdf:RDF>
      <cc:Work
         rdf:about="">
        <dc:format>image/svg+xml</dc:format>
        <dc:type
           rdf:resource="http://purl.org/dc/dcmitype/StillImage" />
        <dc:title></dc:title>
      </cc:Work>
    </rdf:RDF>
  </metadata>
  <g
     inkscape:label="Layer 1"
     inkscape:groupmode="layer"
     id="layer1"
     transform="translate(-56.491296,-159.01545)">
    <g
       id="g5784"
       transform="matrix(0.96388932,0,0,0.96388932,97.450112,185.92165)">
      <path
         style="fill:#626262;fill-opacity:1;stroke:#626262;stroke-width:0.12848549;stroke-opacity:1"
         d="m 31.334696,54.708333 c 0,-1.905697 -1.323272,-3.04305 -3.658496,-3.04305 -0.952591,0 -1.597974,0.09187 -1.936404,0.183991 v 6.119378 c 0.400103,0.09084 0.891946,0.121932 1.566495,0.121932 2.491461,0 4.028405,-1.260313 4.028405,-3.382251 z"
         id="path6418"
         inkscape:connector-curvature="0" />
      <path
         style="fill:#626262;fill-opacity:1;stroke:#626262;stroke-width:0.12848549;stroke-opacity:1"
         d="m 45.788542,51.726699 c -1.046514,0 -1.72132,0.09212 -2.122452,0.184376 v 13.558173 c 0.400361,0.09367 1.046129,0.09367 1.630481,0.09367 4.242206,0.02967 7.009397,-2.305799 7.009397,-7.25609 0.03109,-4.305931 -2.490691,-6.580124 -6.517426,-6.580124 z"
         id="path6420"
         inkscape:connector-curvature="0" />
      <path
         style="fill:#626262;fill-opacity:1;stroke:#626262;stroke-width:0.12848549;stroke-opacity:1"
         d="m 73.483719,43.760599 h -1.69935 v -8.19943 c 0,-0.05114 -0.0081,-0.10266 -0.01491,-0.15444 -0.0029,-0.325582 -0.106257,-0.645382 -0.329184,-0.898755 L 57.795512,18.921142 c -0.0039,-0.004 -0.0081,-0.0054 -0.01093,-0.0098 -0.08133,-0.09084 -0.176157,-0.166389 -0.276373,-0.231788 -0.02967,-0.01991 -0.05962,-0.03662 -0.09071,-0.05383 -0.08686,-0.04741 -0.178978,-0.08673 -0.273799,-0.115123 -0.02569,-0.0072 -0.04883,-0.01773 -0.07452,-0.02441 -0.103048,-0.02441 -0.210077,-0.0397 -0.31852,-0.0397 H 23.216854 c -1.53129,0 -2.775286,1.24541 -2.775286,2.775415 v 22.538027 h -1.698964 c -2.190549,0 -3.966732,1.775413 -3.966732,3.966733 V 68.35439 c 0,2.189781 1.776183,3.966348 3.966732,3.966348 h 1.699092 v 14.120299 c 0,1.529879 1.243997,2.775417 2.775287,2.775417 h 45.792226 c 1.52988,0 2.775287,-1.245412 2.775287,-2.775417 V 72.320738 h 1.699349 c 2.189907,0 3.966474,-1.776567 3.966474,-3.966348 V 47.727331 c -1.26e-4,-2.191192 -1.776693,-3.966732 -3.9666,-3.966732 z M 23.216854,21.222445 h 32.146169 v 14.199317 c 0,0.766673 0.621999,1.387643 1.387641,1.387643 h 12.258419 v 6.952093 H 23.216854 Z m 34.069084,36.92904 c 0,3.96712 -1.444563,6.702446 -3.445982,8.394346 -2.180526,1.813828 -5.501748,2.674298 -9.558806,2.674298 -2.428375,0 -4.149695,-0.153799 -5.319427,-0.306952 V 48.559018 c 1.721577,-0.276116 3.967374,-0.429913 6.334848,-0.429913 3.933198,0 6.48569,0.707698 8.485053,2.213291 2.151232,1.599002 3.504314,4.150338 3.504314,7.809089 z M 21.096844,69.005429 V 48.559018 c 1.444305,-0.244637 3.474504,-0.429913 6.33382,-0.429913 2.889767,0 4.95016,0.553516 6.333178,1.661061 1.322373,1.044715 2.211878,2.766806 2.211878,4.796106 0,2.029942 -0.674549,3.751519 -1.905311,4.919067 -1.598617,1.506876 -3.965705,2.18374 -6.733539,2.18374 -0.613904,0 -1.169218,-0.03122 -1.597717,-0.0929 v 7.409763 H 21.096844 Z M 69.009209,85.689781 H 23.216854 V 72.320738 h 45.792229 v 13.369043 z m 4.021213,-33.563749 h -7.964689 v 4.734818 h 7.440983 v 3.812679 h -7.440983 v 8.332026 h -4.70167 V 48.282902 h 12.666359 z"
         id="path6422"
         inkscape:connector-curvature="0" />
    </g>
    <g
       id="g6426"
       transform="matrix(0.12848548,0,0,0.12848548,10.728065,18.446517)" />
    <g
       id="g6428"
       transform="matrix(0.12848548,0,0,0.12848548,10.728065,18.446517)" />
    <g
       id="g6430"
       transform="matrix(0.12848548,0,0,0.12848548,10.728065,18.446517)" />
    <g
       id="g6432"
       transform="matrix(0.12848548,0,0,0.12848548,10.728065,18.446517)" />
    <g
       id="g6434"
       transform="matrix(0.12848548,0,0,0.12848548,10.728065,18.446517)" />
    <g
       id="g6436"
       transform="matrix(0.12848548,0,0,0.12848548,10.728065,18.446517)" />
    <g
       id="g6438"
       transform="matrix(0.12848548,0,0,0.12848548,10.728065,18.446517)" />
    <g
       id="g6440"
       transform="matrix(0.12848548,0,0,0.12848548,10.728065,18.446517)" />
    <g
       id="g6442"
       transform="matrix(0.12848548,0,0,0.12848548,10.728065,18.446517)" />
    <g
       id="g6444"
       transform="matrix(0.12848548,0,0,0.12848548,10.728065,18.446517)" />
    <g
       id="g6446"
       transform="matrix(0.12848548,0,0,0.12848548,10.728065,18.446517)" />
    <g
       id="g6448"
       transform="matrix(0.12848548,0,0,0.12848548,10.728065,18.446517)" />
    <g
       id="g6450"
       transform="matrix(0.12848548,0,0,0.12848548,10.728065,18.446517)" />
    <g
       id="g6452"
       transform="matrix(0.12848548,0,0,0.12848548,10.728065,18.446517)" />
    <g
       id="g6454"
       transform="matrix(0.12848548,0,0,0.12848548,10.728065,18.446517)" />
    <g
       id="g5789"
       transform="translate(-40.37482,142.01227)">
      <path
         id="path6"
         d="m 134.64021,18.003176 h 4.78011 c 0,2.134249 0,4.260522 0,6.394794 8.55304,0.04804 17.09808,-0.08792 25.64314,0.04804 1.82251,-0.183762 3.25334,1.231004 3.08549,3.053514 0.13595,15.747187 -0.032,31.502372 0.08,47.249559 -0.08,1.614685 0.15997,3.405246 -0.77536,4.836077 -1.16706,0.831326 -2.67783,0.727413 -4.03672,0.791356 -8.0015,-0.03988 -15.99498,-0.02402 -23.99648,-0.02402 0,2.134249 0,4.260522 0,6.394794 h -4.99594 c -12.16613,-2.22219 -24.36421,-4.260547 -36.55429,-6.394796 -0.0091,-18.648842 0,-37.297661 0,-55.938505 12.25403,-2.14227 24.51605,-4.228573 36.7701,-6.41079 z"
         inkscape:connector-curvature="0"
         style="fill:#626262;fill-opacity:1;stroke-width:0.79934978" />
      <path
         id="path46"
         d="m 139.42032,26.796012 c 8.79284,0 17.5857,0 26.37853,0 0,17.050132 0,34.108263 0,51.158395 -8.79283,0 -17.58569,0 -26.37853,0 0,-2.134272 0,-4.260522 0,-6.394794 6.93036,0 13.85274,0 20.78309,0 0,-1.063148 0,-2.134272 0,-3.197397 -6.93035,0 -13.85273,0 -20.78309,0 0,-1.334917 0,-2.661835 0,-3.996752 6.93036,0 13.85274,0 20.78309,0 0,-1.063147 0,-2.134271 0,-3.197396 -6.93035,0 -13.85273,0 -20.78309,0 0,-1.334917 0,-2.661835 0,-3.996752 6.93036,0 13.85274,0 20.78309,0 0,-1.063148 0,-2.134272 0,-3.197397 -6.93035,0 -13.85273,0 -20.78309,0 0,-1.334917 0,-2.661835 0,-3.996752 6.93036,0 13.85274,0 20.78309,0 0,-1.063148 0,-2.134271 0,-3.197397 -6.93035,0 -13.85273,0 -20.78309,0 0,-1.334916 0,-2.661835 0,-3.996751 6.93036,0 13.85274,0 20.78309,0 0,-1.063148 0,-2.134272 0,-3.197397 -6.93035,0 -13.85273,0 -20.78309,0 0,-1.334917 0,-2.661835 0,-3.996752 6.93036,0 13.85274,0 20.78309,0 0,-1.063148 0,-2.134272 0,-3.197397 -6.93035,0 -13.85273,0 -20.78309,0 0,-1.86248 0,-3.732959 0,-5.595461 z"
         inkscape:connector-curvature="0"
         style="fill:#ffffff;stroke-width:0.79934978" />
      <path
         id="path88"
         d="m 114.38469,40.920539 c 1.51874,-0.08792 3.03751,-0.151814 4.55628,-0.231822 1.06313,5.395612 2.15025,10.783224 3.30131,16.154863 0.90327,-5.547493 1.90245,-11.078989 2.86966,-16.618483 1.59871,-0.05597 3.19742,-0.143883 4.78811,-0.239798 -1.80651,7.745685 -3.38922,15.555336 -5.36364,23.253075 -1.33489,0.695442 -3.33328,-0.03195 -4.91599,0.07999 -1.06313,-5.291698 -2.30213,-10.551403 -3.25334,-15.867097 -0.93524,5.163813 -2.15027,10.279657 -3.2214,15.411475 -1.53474,-0.07999 -3.07748,-0.175832 -4.62023,-0.279767 -1.32691,-7.034291 -2.88565,-14.020614 -4.12466,-21.07088 1.36689,-0.0639 2.74178,-0.119865 4.10867,-0.167901 0.82332,5.091871 1.75856,10.159747 2.47798,15.259594 1.12709,-5.227733 2.27815,-10.455489 3.39725,-15.683244 z"
         inkscape:connector-curvature="0"
         style="fill:#ffffff;stroke-width:0.79934978" />
    </g>
  </g>
</svg>
